<?xml version="1.0" encoding="utf-8"?>
<!-- Generator: Adobe Illustrator 26.0.1, SVG Export Plug-In . SVG Version: 6.00 Build 0)  -->
<svg version="1.1" id="Слой_1" xmlns="http://www.w3.org/2000/svg" xmlns:xlink="http://www.w3.org/1999/xlink" x="0px" y="0px"
	 viewBox="0 0 1826.9 881.1" style="enable-background:new 0 0 1826.9 881.1;" xml:space="preserve">
<style type="text/css">
	.st0{clip-path:url(#SVGID_00000066490866704229915200000010763180137319950263_);}
	.st1{fill:#FFF200;}
	.st2{fill:#FFF980;}
	.st3{fill:#80DBF5;}
	.st4{fill:#FF80C8;}
	.st5{fill:#FF0090;}
	.st6{fill:#00B7EB;}
	.st7{fill:#18181B;}
	.st8{display:none;}
	.st9{display:inline;}
	.st10{fill:#110E0E;}
	.st11{display:inline;fill:#110E0E;}
</style>
<g>
	<g>
		<g>
			<defs>
				<path id="SVGID_1_" d="M1774.8,778.6c-4.9,15.1-13.6,29.2-25.3,40.4c-17.5,17-40.9,26.8-65.2,27.3l-334.4,7.3
					c-42.3,1-81.8-17.5-108-50.1l-169.4-208.3c-21.9-27.3-30.7-62.3-23.4-96.4l74-351.4c5.4-24.8,24.8-43.3,49.6-47.7l367-63.8
					c20.4-3.4,40.9-0.5,59.4,8.8c18.5,9.2,33.1,23.8,42.3,42.3l142.1,279.9c11.7,22.4,16.5,47.7,15.1,73l-19,315.4
					C1778.7,763,1777.3,771.3,1774.8,778.6z"/>
			</defs>
			<clipPath id="SVGID_00000008142408517143670730000003592853203547157417_">
				<use xlink:href="#SVGID_1_"  style="overflow:visible;"/>
			</clipPath>
			<g style="clip-path:url(#SVGID_00000008142408517143670730000003592853203547157417_);">
				<path class="st1" d="M1848.8,1003.9c-260.9,16.5-521.7,32.6-782.6,49.2l482.3-546.6C1648.3,672,1748.5,838,1848.8,1003.9z"/>
				<polygon class="st2" points="1035,538.1 1067.2,1053.1 1549.5,506 				"/>
				<path class="st3" d="M1609.3-16.2c-20.4,173.8-40.4,347.5-60.8,520.8L1001.4,22.2C1203.9,9.6,1406.4-3.6,1609.3-16.2z"/>
				<path class="st4" d="M1609.3-16.2c-20.9,173.3-41.9,347-62.8,520.3c200.5-123.1,401-245.8,601.6-368.9
					C1968.5,84.5,1788.9,33.9,1609.3-16.2z"/>
				<path class="st5" d="M1857.1,1010.7c54.5-270.6,109.5-540.7,164-811.3c-158.2,101.7-316.4,203-474.5,304.7
					C1650.2,673,1753.9,841.8,1857.1,1010.7z"/>
				<polygon class="st6" points="1033.6,535.7 1548,503.1 1001.4,21.3 				"/>
			</g>
		</g>
	</g>
	<g>
		<g>
			<g>
				<g>
					<path class="st7" d="M430.1,118.1h155.3L435.9,821.9L309.8,682.7L430.1,118.1z"/>
					<path class="st7" d="M931.8,118.1h155.3L937.7,821.9L811.6,682.7L931.8,118.1z"/>
				</g>
			</g>
			<g>
				<g>
					<g>
						<g>
							<g>
								<g>
									<g>
										<g>
											
												<ellipse transform="matrix(0.3798 -0.9251 0.9251 0.3798 181.7386 1529.0095)" class="st7" cx="1231.2" cy="629" rx="23.8" ry="53.1"/>
										</g>
										<g>
											<path class="st7" d="M1774.8,778.6c-4.9,15.1-13.6,29.2-25.3,40.4c-17.5,17-40.9,26.8-65.2,27.3l-334.4,7.3
												c-42.3,1-81.8-17.5-108-50.1l-169.4-208.3c-21.9-27.3-30.7-62.3-23.4-96.4l74-351.4c5.4-24.8,24.8-43.3,49.6-47.7
												l367-63.8c20.4-3.4,40.9-0.5,59.4,8.8c18.5,9.2,33.1,23.8,42.3,42.3l142.1,279.9c11.7,22.4,16.5,47.7,15.1,73l-19,315.4
												C1778.7,763,1777.3,771.3,1774.8,778.6z M1056,500.7l7.3,1.5c-6.3,29.7,1,60.4,20.4,84.2l169.4,208.3
												c23.8,29.2,58.9,45.3,96.4,44.8l334.4-7.3c42.8-1,78.4-35,80.8-77.9l19-315.4c1.5-22.9-3.4-45.3-13.6-65.7L1627.8,93.3
												c-16.1-32.1-51.1-49.2-86.1-43.3l-367,64.2c-19,3.4-34.1,17.5-38,36.5l-74,351.4L1056,500.7z"/>
										</g>
										<g>
											<path class="st7" d="M1710.6,826.3c-0.5,1.9-1.5,3.4-2.4,4.9c-5.4,9.2-16.1,12.7-24.3,13.1l-327.6,7.3
												c-38.9,0.5-79.3-4.9-110.5-45.8l-164-213.7c-6.8-9.2-8.3-20.9-3.9-31.1c4.9-10.7,14.1-17.5,25.8-18l381.1-30.7
												c27.7-2.4,54,11.2,68.6,35.5l153.8,255.5l0,0C1712.5,813.1,1712.5,820.4,1710.6,826.3z M1086.6,566.9
												c-1.9,6.3-1,13.6,3.4,19l164,213.7c26.8,35,60.4,42.3,102.2,41.9l327.1-7.3c5.4,0,12.7-2.4,16.1-8.3
												c2.9-4.9,2.4-11.2-1-18.5l-152.8-255c-12.7-20.9-35.5-32.6-59.4-30.7l-381.1,30.7c-7.8,0.5-14.6,5.4-17.5,12.7
												C1087.1,565.4,1087.1,565.9,1086.6,566.9z"/>
										</g>
										<g>
											<path class="st7" d="M1773.8,774.2c-2.9,9.2-10.2,16.1-20,18c-12.2,2.9-23.8-1.9-30.2-13.1l-147-250.7
												c-11.2-19-15.6-40.9-12.7-62.8l46.2-371.8c1-5.8,6.3-11.2,13.1-12.2c6.8-1.5,12.7,1.5,15.6,6.3
												c36,69.1,136.3,268.7,145.5,286.7c9.7,19.5,11.2,45.3,11.7,46.2v0.5l-20.9,345.1C1774.8,769.8,1774.3,772.2,1773.8,774.2
												z M1620,95.2l-46.2,371.8c-2.4,19.5,1.5,39.4,11.7,56.5L1732,774.7c4.9,8.3,13.1,9.7,19.5,8.3
												c6.3-1.5,13.1-6.3,13.6-16.5l20.9-345.1c0-2.9-2.4-25.8-10.2-42.3c-8.8-18-109-217.6-145-286.7c-0.5-1.5-2.9-1.5-4.9-1.5
												C1622.5,91.8,1620,93.8,1620,95.2L1620,95.2z"/>
										</g>
										<g>
											<g>
												<path class="st7" d="M1531.5,455.9c-5.4,16.5-20.4,28.7-38,30.2l-402,29.2c-10.2,1-20.4-3.4-27.3-11.2
													c-6.8-7.8-9.7-18.5-7.3-28.7l72-329c5.4-23.4,23.8-41.4,47.7-45.3l370.9-61.3c9.7-1.5,19.5,1.5,26.8,8.3
													s10.7,16.5,9.2,26.3l-50.6,374.3C1532.9,451,1532.4,453.5,1531.5,455.9z M1139.7,143.9c-0.5,1.5-1,2.9-1,4.4l-71.5,329
													c-1.5,7.3,0.5,14.6,5.4,20c4.9,5.4,11.7,8.3,19,7.8l402-29.2c15.6-1,28.7-13.1,30.7-28.7l50.6-373.8
													c1-6.8-1.5-13.6-6.3-18c-4.9-4.9-11.7-6.8-18.5-5.8l-371.4,61.3C1159.6,113.7,1145,126.4,1139.7,143.9z"/>
											</g>
											<g>
												<g>
													
														<ellipse transform="matrix(0.5746 -0.8184 0.8184 0.5746 359.4052 1082.4005)" class="st7" cx="1221" cy="195.5" rx="49.6" ry="33.6"/>
												</g>
												<g>
													<path class="st7" d="M1266.2,153.6c2.9,2.4,5.8,5.4,7.8,8.8c1.9,3.4,3.4,7.3,4.4,11.2c1,3.9,1.5,7.8,1.5,12.2
														c0,3.9,0,8.3-1,12.2c-0.5,1.9-0.5,3.9-1,5.8c0,1-0.5,1.9-1,2.9c-0.5,1-0.5,1.9-1,2.9l-1,2.9c-0.5,1-1,1.9-1,2.9
														c-0.5,1-1,1.9-1.5,2.9l-1.5,2.9c-0.5,1-1,1.9-1.5,2.9l-1.5,2.4c-1,1.9-1.9,3.4-3.4,5.4c-2.4,3.4-4.9,6.3-7.8,9.2
														s-5.8,5.8-9.2,8.3c-3.4,2.4-6.8,4.9-10.7,6.8c-3.9,1.9-7.8,3.9-11.7,4.9c-1,0.5-1.9,0.5-2.9,1s-1.9,0.5-3.4,0.5
														c-1.9,0.5-4.4,0.5-6.3,1c-1,0-2.4,0-3.4,0c-1,0-2.4,0-3.4,0c-2.4,0-4.4-0.5-6.8-1c-4.4-1-8.8-2.9-12.2-5.4
														c-3.4-2.4-6.8-5.8-8.8-9.2c-2.4-3.4-3.4-7.3-3.9-11.2c1.5,3.4,3.9,6.3,6.3,8.8c2.4,2.4,5.8,4.4,8.8,5.8
														c6.8,2.9,14.1,3.4,20.9,1.9s13.6-3.9,20-7.8s11.7-8.3,16.5-13.6c2.4-2.4,4.9-5.4,6.8-8.3c1-1.5,1.9-2.9,2.9-4.4
														l1.5-2.4c0.5-1,1-1.5,1.5-2.4c3.4-6.3,6.3-12.7,8.3-19.5c0.5-1.5,1-3.4,1.5-5.4c0.5-1.9,0.5-3.4,1-5.4
														c0.5-3.4,0.5-7.3,0.5-10.7s-0.5-7.3-1.5-10.7C1269.6,160,1268.2,156.6,1266.2,153.6z"/>
												</g>
											</g>
											<g>
												<g>
													
														<ellipse transform="matrix(0.5746 -0.8184 0.8184 0.5746 490.2765 1260.5265)" class="st7" cx="1457.7" cy="158.6" rx="49.6" ry="33.6"/>
												</g>
												<g>
													<path class="st7" d="M1426.8,121.5c7.3-11.7,18.5-21.4,32.6-26.8c7.3-2.4,15.1-3.9,23.4-2.9c8.3,1,16.5,4.4,22.9,10.2
														c3.4,2.9,6.3,5.8,8.8,9.7c2.4,3.4,4.4,7.3,5.8,11.2c2.9,7.8,3.9,16.1,3.9,24.3c0,3.9-0.5,7.8-1.5,11.7
														c-1,3.9-1.9,7.8-2.9,11.2c-2.4,7.3-5.8,14.6-10.2,20.9c-4.4,6.3-9.2,12.2-15.1,17.5c-5.8,5.4-12.2,9.7-19.5,13.1
														c-7.3,3.4-15.1,5.8-23.4,6.8c-3.9,0.5-8.3,0.5-12.7,0c-4.4-0.5-8.3-1.5-12.2-2.9c-7.8-3.4-15.1-8.8-20-15.6
														c-0.5-1-1-1.9-1.9-2.4l-1.5-2.9l-0.5-1.5l-0.5-1.5c-0.5-1-1-1.9-1-2.9c-0.5-1-0.5-1.9-1-2.9c-0.5-1-0.5-1.9-1-2.9
														c-0.5-1.9-1-3.9-1-5.8v-2.9c0-1,0-1.9,0-2.9c0-1.9,0-3.9,0.5-5.4c0.5-3.9,1-7.3,1.9-10.7c0.5-1.9,1-3.4,1.5-4.9
														c0.5-1.5,1.5-3.4,1.9-4.9l2.4-4.4c1-1.5,1.9-2.9,2.9-4.4c-2.4,6.3-4.4,12.7-5.4,19.5c-1,6.8-0.5,13.6,0.5,20
														c0.5,1.5,1,3.4,1.5,4.9c0,1,0.5,1.5,1,2.4c0.5,1,0.5,1.5,1,2.4l1,2.4l0.5,1l0.5,1l1.5,1.9c0.5,0.5,1,1.5,1.5,1.9
														c4.4,5.4,9.7,9.2,16.5,11.2c6.3,1.9,13.1,2.4,20,1.5c6.8-1,13.1-3.4,19-6.3c11.7-6.3,21.9-16.1,29.2-27.3
														c7.3-11.2,12.2-24.3,13.1-37.5c0.5-6.8,0-13.6-2.4-20c-1.9-6.3-5.4-12.2-10.2-17c-4.9-4.9-11.2-7.8-17.5-9.2
														c-6.3-1.5-13.6-1-20,0.5C1447.8,104.5,1436.1,112.3,1426.8,121.5z"/>
												</g>
											</g>
											<g>
												<g>
													
														<ellipse transform="matrix(0.5746 -0.8184 0.8184 0.5746 291.067 1326.5005)" class="st7" cx="1421.6" cy="383.2" rx="49.6" ry="33.6"/>
												</g>
												<g>
													<path class="st7" d="M1466.7,341.5c2.9,2.4,5.8,5.4,7.8,8.8c1.9,3.4,3.4,7.3,4.4,11.2c1,3.9,1.5,7.8,1.5,12.2
														c0,3.9,0,8.3-1,12.2c-0.5,1.9-0.5,3.9-1,5.8c0,1-0.5,1.9-1,2.9c-0.5,1-0.5,1.9-1,2.9l-1,2.9c-0.5,1-1,1.9-1,2.9
														c-0.5,1-1,1.9-1.5,2.9l-1.5,2.9c-0.5,1-1,1.9-1.5,2.9l-1.5,2.4c-1,1.9-1.9,3.4-3.4,5.4c-2.4,3.4-4.9,6.3-7.8,9.2
														c-2.9,2.9-5.8,5.8-9.2,8.3c-3.4,2.4-6.8,4.9-10.7,6.8c-3.9,1.9-7.8,3.9-11.7,4.9c-1,0.5-1.9,0.5-2.9,1
														s-1.9,0.5-3.4,0.5c-1.9,0.5-4.4,0.5-6.3,1c-1,0-2.4,0-3.4,0c-1,0-2.4,0-3.4,0c-2.4,0-4.4-0.5-6.8-1
														c-4.4-1-8.8-2.9-12.2-5.4c-3.4-2.4-6.8-5.8-8.8-9.2c-2.4-3.4-3.4-7.3-3.9-11.2c1.5,3.4,3.9,6.3,6.3,8.8
														c2.4,2.4,5.8,4.4,8.8,5.8c6.8,2.9,14.1,3.4,20.9,1.9c6.8-1.5,13.6-3.9,20-7.8c6.3-3.9,11.7-8.3,16.5-13.6
														c2.4-2.4,4.9-5.4,6.8-8.3c1-1.5,1.9-2.9,2.9-4.4l1.5-2.4c0.5-1,1-1.5,1.5-2.4c3.4-6.3,6.3-12.7,8.3-19.5
														c0.5-1.5,1-3.4,1.5-5.4c0.5-1.9,0.5-3.4,1-5.4c0.5-3.4,0.5-7.3,0.5-10.7s-0.5-7.3-1.5-10.7
														C1470.1,347.8,1468.7,344.4,1466.7,341.5z"/>
												</g>
											</g>
											<g>
												<g>
													
														<ellipse transform="matrix(0.5746 -0.8184 0.8184 0.5746 167.3115 1143.8883)" class="st7" cx="1184.1" cy="411" rx="49.6" ry="33.6"/>
												</g>
												<g>
													<path class="st7" d="M1229.2,369.3c2.9,2.4,5.8,5.4,7.8,8.8c1.9,3.4,3.4,7.3,4.4,11.2c1,3.9,1.5,7.8,1.5,12.2
														c0,3.9,0,8.3-1,12.2c-0.5,1.9-0.5,3.9-1,5.8c0,1-0.5,1.9-1,2.9c-0.5,1-0.5,1.9-1,2.9l-1,2.9c-0.5,1-1,1.9-1,2.9
														c-0.5,1-1,1.9-1.5,2.9l-1.5,2.9c-0.5,1-1,1.9-1.5,2.9l-1.5,2.4c-1,1.9-1.9,3.4-3.4,5.4c-2.4,3.4-4.9,6.3-7.8,9.2
														c-2.9,2.9-5.8,5.8-9.2,8.3c-3.4,2.4-6.8,4.9-10.7,6.8c-3.9,1.9-7.8,3.9-11.7,4.9c-1,0.5-1.9,0.5-2.9,1
														c-1,0.5-1.9,0.5-3.4,0.5c-1.9,0.5-4.4,0.5-6.3,1c-1,0-2.4,0-3.4,0s-2.4,0-3.4,0c-2.4,0-4.4-0.5-6.8-1
														c-4.4-1-8.8-2.9-12.2-5.4c-3.4-2.4-6.8-5.8-8.8-9.2c-2.4-3.4-3.4-7.3-3.9-11.2c1.5,3.4,3.9,6.3,6.3,8.8
														c2.4,2.4,5.8,4.4,8.8,5.8c6.8,2.9,14.1,3.4,20.9,1.9c6.8-1.5,13.6-3.9,20-7.8c6.3-3.9,11.7-8.3,16.5-13.6
														c2.4-2.4,4.9-5.4,6.8-8.3c1-1.5,1.9-2.9,2.9-4.4l1.5-2.4c0.5-1,1-1.5,1.5-2.4c3.4-6.3,6.3-12.7,8.3-19.5
														c0.5-1.5,1-3.4,1.5-5.4c0.5-1.9,0.5-3.4,1-5.4c0.5-3.4,0.5-7.3,0.5-10.7s-0.5-7.3-1.5-10.7
														C1232.6,375.6,1231.2,372.2,1229.2,369.3z"/>
												</g>
											</g>
											<g>
												<g>
													
														<ellipse transform="matrix(0.5746 -0.8184 0.8184 0.5746 319.8911 1202.2681)" class="st7" cx="1316.5" cy="293.4" rx="49.6" ry="33.6"/>
												</g>
												<g>
													<path class="st7" d="M1334.8,232c1.9-0.5,4.4-1,6.3-1s4.4,0,6.8,0c4.4,0.5,8.8,1.9,13.1,4.4c3.9,2.4,7.8,5.4,11.2,9.2
														c1,1,1.5,1.9,2.4,2.9c0.5,1,1.5,1.9,1.9,2.9c0.5,1,1.5,1.9,1.9,3.4c0.5,1,1,2.4,1.5,3.4c1,2.4,1.5,4.4,2.4,6.8
														c0.5,1,0.5,2.4,1,3.4c0,1,0.5,2.4,0.5,3.4c0.5,4.9,1,9.7,0.5,14.1c-0.5,4.9-1,9.2-2.4,13.6c-1,4.4-2.9,8.8-4.9,13.1
														c-1.9,4.4-4.4,8.3-6.8,12.2c-0.5,1-1.5,1.9-1.9,2.9c-0.5,1-1.5,1.9-1.9,2.9l-1.9,2.4c-0.5,0.5-0.5,1-1,1.5l-1,1.5
														c-1.5,1.5-2.9,3.4-4.9,4.9c-1,1-1.5,1.5-2.4,2.4c-1,1-1.9,1.5-2.9,1.9l-2.9,1.9c-1,0.5-1.9,1.5-2.9,1.9
														s-1.9,1.5-2.9,1.9l-2.9,1.5c-3.9,1.9-8.3,3.9-12.7,5.4c-4.4,1-8.8,1.9-13.6,2.4c-2.4,0-4.4,0-6.8,0
														c-1,0-2.4-0.5-3.4-0.5c-1,0-1.9-0.5-3.4-0.5l-3.4-1c-1-0.5-1.9-1-2.9-1l-1.5-0.5c-0.5,0-1-0.5-1.5-1
														c-1-0.5-1.9-1-2.9-1.9c7.8,1.9,16.1,1.9,23.8,0c3.9-1,7.8-2.4,11.2-3.9c1.9-1,3.4-1.9,5.4-2.9c1.5-1,3.4-1.9,4.9-2.9
														c6.8-4.4,12.7-9.7,17.5-16.1c4.9-6.3,9.2-13.1,12.7-20.4s5.4-15.1,6.3-22.9c1-7.8,0.5-16.1-1.9-23.8
														c-1-3.9-2.9-7.3-4.9-10.7c-1.9-3.4-4.9-6.3-7.8-8.8c-2.9-2.4-6.3-4.4-10.2-5.8C1342.6,233,1338.7,232.5,1334.8,232z"/>
												</g>
											</g>
											<g>
												<path class="st7" d="M1148.4,485.1l-58.9,4.4c-2.9,0-4.9-1.5-5.8-2.4s-2.4-3.4-1.5-6.3l16.5-75.9
													c-1,4.9-10.2,65.2-5.4,73C1098.3,485.6,1145.5,485.6,1148.4,485.1z"/>
											</g>
											<g>
												<path class="st7" d="M1270.6,111.3c-2.9,0.5-93,23.4-102.7,42.3c-10.2,19-40.4,117.8-40.4,117.8l26.3-119.7
													c0-1,0.5-1.9,1-2.9c3.9-11.7,13.6-20.4,26.3-22.4L1270.6,111.3z"/>
											</g>
											<g>
												<polygon class="st7" points="1323.2,132.7 1275,172.1 1276.9,186.7 												"/>
											</g>
											<g>
												<path class="st7" d="M1196.6,255.9c0,0-22.9,19.5-31.1,26.3c-8.3,6.8,0.5,14.6,5.4,13.1l-38.9,37l-13.6,62.3
													c0,0,103.2-97.8,112.4-106.1c9.2-8.3,1-17.5-2.4-17.5l25.3-26.3l-35.5,13.1L1196.6,255.9z"/>
											</g>
											<g>
												<path class="st7" d="M1379.6,273.9l53.5-53.1c0,0-23.8-7.8-27.3-23.8l-42.8,42.8
													C1363.1,239.8,1376.7,253.9,1379.6,273.9z"/>
											</g>
											<g>
												<path class="st7" d="M1528.5,291.4c-6.8,51.1-13.6,102.2-20.9,153.8c0,1-0.5,1.9-0.5,2.9c-1.9,6.8-8.3,11.7-15.6,12.2
													l-170.8,12.7l86.1-15.1l-46.2-2.9l50.6-9.7c0,0,33.6-4.4,46.2-22.9c12.7-18.5,20.4-51.1,20.4-51.1s4.4,4.4,1.5,20
													c-2.9,15.6-12.2,38.9-12.2,38.9s26.3-18.5,23.4-66.7c5.4-9.7,11.2-19.5,16.5-29.7
													C1514.4,319.6,1521.2,305.5,1528.5,291.4z"/>
											</g>
											<g>
												<path class="st7" d="M1556.8,66.5c1,1,1.9,2.4,1.5,4.9l-21.9,163.5l-1-35.5l-59.9,69.1l-4.4-14.6l-79.3,73.5l97.3-111.5
													l3.9,11.2c0,0,29.2-30.7,25.3-73.5c0,0,2.4-38-21.9-51.6c-24.3-13.1-86.1,5.4-88.1,5.8l29.7-14.6l-83.7,4.4l197.6-32.6
													C1554.3,64.6,1555.8,65.6,1556.8,66.5z"/>
											</g>
											<g>
												<polygon class="st7" points="1222.4,479.7 1260.9,467.6 1358.2,369.7 1275,469.5 1298.8,474.4 												"/>
											</g>
										</g>
										<g>
											<g>
												<path class="st7" d="M1677,274.8c5.4,3.4,9.7,7.8,13.1,12.7c3.9,4.9,6.8,10.2,9.7,15.6c5.4,11.2,8.3,23.4,9.7,35.5
													s1,24.8-1.9,36.5c-1.5,5.8-3.4,11.7-6.3,17.5c-1.5,2.9-2.9,5.4-5.4,7.8c-1,1-1.9,2.4-3.4,3.4c-1,1-2.4,1.9-3.9,2.4
													c4.4-3.9,6.8-9.7,8.8-15.1c1.9-5.4,3.4-11.2,3.9-17c1.5-11.7,1.5-23.4,0.5-35c-1.5-11.7-3.9-23.4-7.8-34.1
													C1690.1,293.8,1684.8,283.6,1677,274.8z"/>
											</g>
										</g>
										<g>
											<path class="st7" d="M1707.7,476.3c1.5,1,3.4,1.9,4.9,2.9c1,0.5,1.5,1,2.4,1.9c0.5,0.5,1.5,1,1.9,1.9
												c0.5,0.5,1.5,1.5,1.9,1.9s1.5,1.5,1.9,1.9c1.5,1.5,2.4,2.9,3.9,4.4c4.4,6.3,8.3,13.1,11.2,20
												c6.3,14.1,9.7,29.2,10.7,44.3c0,3.9,0.5,7.8,0.5,11.7c0,3.9-0.5,7.8-1,11.7c-1,7.8-2.4,15.6-5.8,22.9
												c-1.5,3.9-3.4,7.3-5.8,10.7c-1.5,1.5-2.4,3.4-4.4,4.9c-1.5,1.5-3.4,2.9-5.4,3.9c-3.9,1.9-8.8,2.9-12.7,1.9
												c-1.9-0.5-3.9-1.5-5.4-2.4c-1.5-1-2.9-2.4-4.4-3.9c2.9,1.9,6.3,3.4,10.2,3.9c1,0,1.9,0,2.9,0c1,0,1.9-0.5,2.9-0.5
												c1.9-0.5,3.4-1.5,4.9-2.4c2.9-1.9,5.4-4.9,7.3-8.3c1.9-2.9,3.4-6.3,4.4-10.2c2.4-6.8,3.4-14.1,4.4-21.4
												c0.5-7.3,0.5-14.6,0-21.9c-1-14.6-3.9-29.2-8.8-42.8c-2.4-6.8-5.4-13.6-8.8-20C1717.9,487,1713.5,480.7,1707.7,476.3z"/>
										</g>
										<g>
											<path class="st7" d="M1750.5,611.1l-7.8,127c0,0.5,0,0.5,0,1c-0.5,1-1.9,1-1.9,1c-1,0-1.5-0.5-1.9-1l-66.2-113.9
												l61.3,84.2L1750.5,611.1z"/>
										</g>
										<g>
											<path class="st7" d="M1601.6,426.7c2.9,18.5,6.8,47.7,8.3,58.9c1.9,16.5,42.8,104.2,43.3,105.6l-46.7-80.3
												c-8.3-14.1-11.7-30.7-9.7-46.7L1601.6,426.7z"/>
										</g>
										<g>
											<path class="st7" d="M1643.9,170.2c12.2,24.3,26.8,52.6,41.4,81.8l-39.4-52.1l-26.3,103.7l16.5-131.4
												C1636.6,167.8,1642,166.8,1643.9,170.2z"/>
										</g>
										<g>
											<path class="st7" d="M1705.7,792.7c-10.7-13.1-20.4-26.8-29.7-40.9c-9.2-14.1-18-28.2-26.8-42.3
												c-8.3-14.6-16.5-29.2-24.3-43.8c-7.8-15.1-15.1-30.2-21.4-45.8c10.7,13.1,20.4,26.8,29.7,40.9
												c9.2,14.1,18,28.2,26.8,42.3c8.3,14.6,16.5,29.2,24.3,43.8S1699.4,776.6,1705.7,792.7z"/>
											<path class="st7" d="M1713.5,788.3c-10.7-13.1-20.4-26.8-29.7-40.9c-9.2-14.1-18-28.2-26.8-42.3
												c-8.3-14.6-16.5-29.2-24.3-43.8c-7.8-15.1-15.1-30.2-21.4-45.8c10.7,13.1,20.4,26.8,29.7,40.9
												c9.2,14.1,18,28.2,26.8,42.3c8.3,14.6,16.5,29.2,24.3,43.8C1699.9,757.6,1707.2,772.7,1713.5,788.3z"/>
											<path class="st7" d="M1721.3,784.4c-10.7-13.1-20.4-26.8-29.7-40.9c-9.2-14.1-18-28.2-26.8-42.3
												c-8.3-14.6-16.5-29.2-24.3-43.8c-7.8-15.1-15.1-30.2-21.4-45.8c10.7,13.1,20.4,26.8,29.7,40.9
												c9.2,14.1,18,28.2,26.8,42.3c8.3,14.6,16.5,29.2,24.3,43.8C1707.7,753.8,1715,768.8,1721.3,784.4z"/>
										</g>
										<g>
											<path class="st7" d="M1287.6,553.2c-54.5,8.3-109,16.1-163.5,24.3c-2.4,0.5-3.9,2.9-2.4,5.4c18.5,29.2,36.5,58.4,55,87.6
												c1,1,1.5,2.4,2.4,3.4c-24.3-31.1-49.2-62.3-73.5-93.4c-2.4-2.9-1.9-5.8-1.5-7.8c0.5-1.5,1.9-5.4,7.3-5.8
												C1169.8,562,1228.7,557.6,1287.6,553.2z"/>
										</g>
										<g>
											<path class="st7" d="M1532.9,560.5l150.4,250.2c1.5,3.4,1.5,5.4,1.5,6.3c-0.5,1-2.4,2.4-5.8,2.4
												c-64.7,1.5-129.5,2.9-194.2,4.4c25.8-3.9,51.1-7.8,76.9-12.2c-15.6-2.4-30.7-5.4-46.2-7.8c24.3-1.5,48.2-2.9,72.5-4.4
												c0,0,59.9-3.4,55.5-27.3c-4.4-23.8-23.4-49.6-23.4-49.6l-28.7-21.4l2.9-19c-29.7-54-49.2-85.7-62.8-104.2
												c-4.9-6.3-12.2-18.5-27.3-25.3c-5.4-2.4-11.7-3.4-23.8-4.9c-14.1-1.9-22.9-1.9-56.5-3.9c-5.4-0.5-9.7-0.5-12.2-0.5
												c24.8-1.9,49.6-3.9,74.5-5.8C1504.7,535.2,1522.7,544.5,1532.9,560.5z"/>
										</g>
										<g>
											<path class="st7" d="M1404,825.3l-46.7,1c-26.3,0.5-47.7-2.4-65.7-13.1c-6.8-3.9-12.7-9.2-24.8-22.9
												c-13.1-14.6-30.7-36-49.6-64.7c21.9,22.9,42.3,38.9,57.4,50.1c27.3,19.5,54,39.9,93.4,46.2
												C1378.6,823.4,1390.8,824.8,1404,825.3z"/>
										</g>
										<g>
											<polygon class="st7" points="1442.9,544 1428.8,602.9 1433.6,542.5 											"/>
										</g>
										<g>
											<path class="st7" d="M1285.7,650.1c-1.5,4.4-4.9,8.3-9.7,10.7c-12.2,5.8-32.6,4.4-53.1-3.9
												c-30.7-12.2-50.1-32.6-45.3-48.2l0,0c1.5-4.4,4.9-8.3,9.7-10.7c12.2-5.8,32.6-4.4,53.1,3.9l0,0
												C1271.1,613.6,1290.5,634.5,1285.7,650.1L1285.7,650.1z M1186.4,611.6L1186.4,611.6c-2.9,8.8,12.7,25.8,39.4,36.5
												c20.9,8.3,38,7.8,45.8,4.4c2.4-1.5,4.4-2.9,4.9-4.9l0,0c2.9-8.8-12.7-25.8-39.4-36.5l0,0c-20.9-8.3-38-7.8-45.8-4.4
												C1188.8,607.7,1186.9,609.2,1186.4,611.6z"/>
										</g>
										<g>
											<path class="st7" d="M1192.7,582.9c2.9-1,5.8-1.9,8.8-2.4c2.9-0.5,5.8-1,8.8-1.5c2.9-0.5,6.3-0.5,9.2,0
												c2.9,0,6.3,0.5,9.2,0.5c12.2,1.5,23.8,4.9,35.5,10.2c5.8,2.4,11.2,5.8,16.5,9.2c5.4,3.4,10.2,7.8,14.6,12.7
												c1,1.5,2.4,2.4,3.4,3.9l1.5,1.9c0.5,0.5,1,1.5,1.5,2.4c1.9,2.9,3.4,6.3,4.9,9.7c2.9,6.8,3.9,15.1,2.4,22.9
												c-1.5,7.8-5.4,15.6-11.2,20.9c-2.9,2.9-5.8,4.9-9.2,6.8c-1.5,1-3.4,1.5-4.9,2.4c-1.9,1-3.4,1-5.4,1.9
												c-6.8,1.9-13.6,2.4-20.4,1.9c-3.4,0-6.3-0.5-9.7-1c-1.5-0.5-2.9-0.5-4.9-1c-1.5-0.5-2.9-0.5-4.4-1
												c-1.5-0.5-2.9-1-4.4-1.5c-1.5-0.5-2.9-1-4.4-1.5c-2.9-1-5.8-1.9-8.8-3.4c-1.5-0.5-2.9-1.5-4.4-1.9
												c-1.5-0.5-2.9-1.5-3.9-1.9c-2.9-1.5-5.4-2.9-7.8-4.9c-2.4-1.5-4.9-3.4-7.3-5.4c-2.4-1.9-4.9-3.9-6.8-5.8
												c-2.4-1.9-4.4-4.4-6.3-6.3c-1.9-2.4-3.9-4.4-5.4-7.3c8.3,8.3,18,14.6,28.7,20c5.4,2.4,10.7,4.9,16.1,6.8
												c5.4,1.9,11.2,3.4,17,4.4c5.8,1,11.7,1.5,17.5,1.5c5.8,0,11.7-0.5,17-2.4c1.5-0.5,2.9-1,3.9-1.5c1.5-0.5,2.4-1,3.9-1.9
												c2.4-1.5,4.9-3.4,6.8-5.4c4.4-3.9,6.8-9.2,8.3-15.1c1-5.8,0.5-11.7-1.9-17c-1.9-5.4-5.4-10.2-9.2-14.6
												s-8.3-8.3-12.7-11.7c-4.9-3.4-9.7-6.8-14.6-9.2c-10.2-5.4-21.4-9.7-32.6-12.7C1216.1,581.9,1204.4,581,1192.7,582.9z"/>
										</g>
										<g>
											
												<ellipse transform="matrix(0.3798 -0.9251 0.9251 0.3798 238.3768 1723.3007)" class="st7" cx="1404.4" cy="683.9" rx="23.8" ry="53.1"/>
										</g>
										<g>
											<path class="st7" d="M1458.9,705.1c-1.5,4.4-4.9,8.3-9.7,10.7c-12.2,5.8-32.6,4.4-53.1-3.9
												c-30.7-12.2-50.1-32.6-45.3-48.2l0,0c1.5-4.4,4.9-8.3,9.7-10.7c12.2-5.8,32.6-4.4,53.1,3.9l0,0
												C1444.3,668.6,1463.8,689.5,1458.9,705.1L1458.9,705.1z M1359.7,666.6L1359.7,666.6c-2.9,8.8,12.7,25.8,39.4,36.5
												c20.9,8.3,38,7.8,45.8,4.4c2.4-1.5,4.4-2.9,4.9-4.9l0,0c2.9-8.8-12.7-25.8-39.4-36.5l0,0c-20.9-8.3-38-7.8-45.8-4.4
												C1362.1,662.7,1360.1,664.7,1359.7,666.6z"/>
										</g>
										<g>
											<path class="st7" d="M1366,637.9c2.9-1,5.8-1.9,8.8-2.4s5.8-1,8.8-1.5s6.3-0.5,9.2,0c2.9,0,6.3,0.5,9.2,0.5
												c12.2,1.5,23.8,4.9,35.5,10.2c5.8,2.4,11.2,5.8,16.5,9.2c5.4,3.4,10.2,7.8,14.6,12.7c1,1.5,2.4,2.4,3.4,3.9l1.5,1.9
												c0.5,0.5,1,1.5,1.5,2.4c1.9,2.9,3.4,6.3,4.9,9.7c2.9,6.8,3.9,15.1,2.4,22.9c-1.5,7.8-5.4,15.6-11.2,20.9
												c-2.9,2.9-5.8,4.9-9.2,6.8c-1.5,1-3.4,1.5-4.9,2.4c-1.9,1-3.4,1-5.4,1.9c-6.8,1.9-13.6,2.4-20.4,1.9
												c-3.4,0-6.3-0.5-9.7-1c-1.5-0.5-2.9-0.5-4.9-1c-1.5-0.5-2.9-0.5-4.4-1c-1.5-0.5-2.9-1-4.4-1.5c-1.5-0.5-2.9-1-4.4-1.5
												c-2.9-1-5.8-1.9-8.8-3.4c-1.5-0.5-2.9-1.5-4.4-1.9c-1.5-0.5-2.9-1.5-3.9-1.9c-2.9-1.5-5.4-2.9-7.8-4.9
												c-2.4-1.5-4.9-3.4-7.3-5.4c-2.4-1.9-4.9-3.9-6.8-5.8c-2.4-1.9-4.4-4.4-6.3-6.3c-1.9-2.4-3.9-4.4-5.4-7.3
												c8.3,8.3,18,14.6,28.7,20c5.4,2.4,10.7,4.9,16.1,6.8c5.4,1.9,11.2,3.4,17,4.4c5.8,1,11.7,1.5,17.5,1.5
												c5.8,0,11.7-0.5,17-2.4c1.5-0.5,2.9-1,3.9-1.5c1.5-0.5,2.4-1,3.9-1.9c2.4-1.5,4.9-3.4,6.8-5.4c4.4-3.9,6.8-9.2,8.3-15.1
												c1-5.8,0.5-11.7-1.9-17c-1.9-5.4-5.4-10.2-9.2-14.6c-3.9-4.4-8.3-8.3-12.7-11.7c-4.9-3.4-9.7-6.8-14.6-9.2
												c-10.2-5.4-21.4-9.7-32.6-12.7C1389.4,637.4,1377.7,636,1366,637.9z"/>
										</g>
										<g>
											
												<ellipse transform="matrix(0.3798 -0.9251 0.9251 0.3798 279.5669 1913.9473)" class="st7" cx="1567.2" cy="748.5" rx="23.8" ry="53.1"/>
										</g>
										<g>
											<path class="st7" d="M1621,769.3c-1.5,4.4-4.9,8.3-9.7,10.7c-12.2,5.8-32.6,4.4-53.1-3.9c-30.7-12.2-50.1-32.6-45.3-48.2
												l0,0c1.5-4.4,4.9-8.3,9.7-10.7c12.2-5.8,32.6-4.4,53.1,3.9l0,0C1606.9,732.8,1626.4,753.8,1621,769.3L1621,769.3z
												 M1522.2,730.4L1522.2,730.4c-2.9,8.8,12.7,25.8,39.4,36.5c20.9,8.3,38,7.8,45.8,4.4c2.4-1.5,4.4-2.9,4.9-4.9l0,0
												c2.9-8.8-12.7-25.8-39.4-36.5l0,0c-20.9-8.3-38-7.8-45.8-4.4C1524.7,727,1522.7,728.4,1522.2,730.4z"/>
										</g>
										<g>
											<path class="st7" d="M1528.5,702.2c2.9-1,5.8-1.9,8.8-2.4s5.8-1,8.8-1.5c2.9-0.5,6.3-0.5,9.2,0c2.9,0,6.3,0.5,9.2,0.5
												c12.2,1.5,23.8,4.9,35.5,10.2c5.8,2.4,11.2,5.8,16.5,9.2c5.4,3.4,10.2,7.8,14.6,12.7c1,1.5,2.4,2.4,3.4,3.9l1.5,1.9
												c0.5,0.5,1,1.5,1.5,2.4c1.9,2.9,3.4,6.3,4.9,9.7c2.9,6.8,3.9,15.1,2.4,22.9c-1.5,7.8-5.4,15.6-11.2,20.9
												c-2.9,2.9-5.8,4.9-9.2,6.8c-1.5,1-3.4,1.5-4.9,2.4c-1.9,1-3.4,1-5.4,1.9c-6.8,1.9-13.6,2.4-20.4,1.9
												c-3.4,0-6.3-0.5-9.7-1c-1.5-0.5-2.9-0.5-4.9-1c-1.5-0.5-2.9-0.5-4.4-1s-2.9-1-4.4-1.5c-1.5-0.5-2.9-1-4.4-1.5
												c-2.9-1-5.8-1.9-8.8-3.4c-1.5-0.5-2.9-1.5-4.4-1.9c-1.5-0.5-2.9-1.5-3.9-1.9c-2.9-1.5-5.4-2.9-7.8-4.9
												c-2.4-1.5-4.9-3.4-7.3-5.4c-2.4-1.9-4.9-3.9-6.8-5.8c-2.4-1.9-4.4-4.4-6.3-6.3c-1.9-2.4-3.9-4.4-5.4-7.3
												c8.3,8.3,18,14.6,28.7,20c5.4,2.4,10.7,4.9,16.1,6.8c5.4,1.9,11.2,3.4,17,4.4c5.8,1,11.7,1.5,17.5,1.5
												c5.8,0,11.7-0.5,17-2.4c1.5-0.5,2.9-1,3.9-1.5c1.5-0.5,2.4-1,3.9-1.9c2.4-1.5,4.9-3.4,6.8-5.4c4.4-3.9,6.8-9.2,8.3-15.1
												c1-5.8,0.5-11.7-1.9-17c-1.9-5.4-5.4-10.2-9.2-14.6c-3.9-4.4-8.3-8.3-12.7-11.7c-4.9-3.4-9.7-6.8-14.6-9.2
												c-10.2-5.4-21.4-9.7-32.6-12.7C1551.9,701.2,1539.7,699.7,1528.5,702.2z"/>
										</g>
										<g>
											<polygon class="st7" points="1323.6,817.5 1337.8,703.6 1338.2,818.5 											"/>
										</g>
										<g>
											<path class="st7" d="M1313.9,812.6l17.5-155.3c1-7.8-7.3-13.1-14.1-9.7l-13.1,2.9c0,0-3.4,25.3-19.5,28.2
												c-16.1,2.9-13.1,31.1-8.8,32.1c7.8,1,22.9-19,22.9-19s-1.9,8.3-10.7,21.4l-9.2,76.9L1313.9,812.6z"/>
										</g>
										<g>
											<path class="st7" d="M1282.8,601.9l6.3-34.1l31.1-3.4l-13.1,90C1303.2,636,1294.9,618.4,1282.8,601.9z"/>
										</g>
										<g>
											<path class="st7" d="M1454.1,544l-23.4,100.7c0,0,26.8,8.8,39.4,29.2s5.8,20.9,5.8,20.9s16.5,1.9-11.7-44.8
												c0,0,11.2,7.8,20,18.5l28.2-122.2L1454.1,544z"/>
										</g>
										<g>
											<polygon class="st7" points="1525.6,562 1503.7,665.2 1541.2,635 1549,592.2 											"/>
										</g>
										<g>
											<polygon class="st7" points="1463.3,731.4 1441.9,813.1 1416.6,814.6 1436.6,738.2 											"/>
										</g>
										<g class="st8">
											<g class="st9">
												<path class="st10" d="M1546.1,475.4c1-24.8,3.4-49.2,5.8-74c2.4-24.3,5.4-49.2,8.3-73.5c2.9-24.3,6.8-48.7,10.7-73.5
													c3.9-24.3,8.3-48.7,13.1-73c-1,24.8-3.4,49.2-5.8,74c-2.4,24.3-5.4,49.2-8.3,73.5c-3.4,24.3-6.8,48.7-10.7,73.5
													C1555.3,426.7,1550.9,451,1546.1,475.4z"/>
											</g>
											<g class="st9">
												<path class="st10" d="M1585.5,161.9c-0.5-7.3-0.5-14.6,0-21.9c0.5-7.3,1-14.6,1.9-21.4c1-7.3,1.9-14.1,3.4-21.4
													c1.5-7.3,2.9-14.1,5.4-21.4c0.5,7.3,0.5,14.6,0,21.9s-1,14.6-1.9,21.4c-1,7.3-1.9,14.1-3.4,21.4
													C1589.4,147.8,1587.9,155.1,1585.5,161.9z"/>
											</g>
											<g class="st9">
												<path class="st10" d="M1107.1,527.4c29.7-4.4,59.9-7.3,90-10.2s59.9-5.4,90-7.8c30.2-1.9,59.9-3.9,90-5.4
													c30.2-1.5,60.4-2.4,90.5-2.9c-29.7,4.4-59.9,7.3-90,10.2c-30.2,2.9-59.9,5.4-90,7.8c-30.2,2.4-59.9,3.9-90,5.4
													C1167.4,526.5,1137.2,527.4,1107.1,527.4z"/>
											</g>
										</g>
										<g class="st8">
											<polygon class="st11" points="1232.6,738.2 1236,679.8 1247.7,683.7 1242.9,753.3 											"/>
										</g>
									</g>
									<path class="st7" d="M1680.9,508.9c-1.9,11.7-1.5,26.8,1,42.3c4.9,29.2,17.5,59.4,31.1,56.9c4.9-1,8.8-5.4,10.7-12.7
										c3.9-12.7,3.9-32.6,1-51.1c-2.4-15.6-6.8-30.2-12.2-40.4c-5.8-11.7-12.7-17.5-19-16.1
										C1687.2,488.5,1682.8,495.8,1680.9,508.9z M1695,493.4c-0.5,0-0.5,0-1,0.5C1694,493.9,1694.5,493.9,1695,493.4L1695,493.4z
										"/>
									<path class="st7" d="M1647.3,281.2c-7.3,9.7-9.2,32.6-4.4,58.9c4.9,29.7,18.5,60.4,33.1,58.9c2.9-0.5,5.8-1.9,7.8-4.9
										c1.5-1.9,2.9-4.9,3.9-8.3c3.9-11.7,3.9-30.2,0.5-50.6c-4.9-29.7-18.5-60.4-33.1-58.9
										C1652.2,276.8,1649.3,278.2,1647.3,281.2z"/>
								</g>
							</g>
						</g>
					</g>
				</g>
			</g>
		</g>
	</g>
	<polygon class="st7" points="124.9,126.9 279.7,126.9 236.3,334.7 343.4,405.8 301.1,607.3 59.2,438.9 	"/>
	<polygon class="st7" points="627.2,126.9 781.9,126.9 738.6,334.7 845.7,405.8 803.4,607.3 562,438.9 	"/>
</g>
</svg>
