<?xml version="1.0" encoding="utf-8"?>
<!-- Generator: Adobe Illustrator 26.0.1, SVG Export Plug-In . SVG Version: 6.00 Build 0)  -->
<svg version="1.1" id="Слой_1" xmlns="http://www.w3.org/2000/svg" xmlns:xlink="http://www.w3.org/1999/xlink" x="0px" y="0px"
	 viewBox="0 0 40 40" style="enable-background:new 0 0 40 40;" xml:space="preserve">
<style type="text/css">
	.st0{fill:#DC2626;}
</style>
<rect x="-5.1" y="-4.3" class="st0" width="50.4" height="47.8"/>
<g>
	<path d="M-458.7,131.4c5.8,12.2,11.5,24.3,17.5,36.4c3.8,7.9,11.1,6.7,17.9,5.8c11.4-1.6,22.8-3.6,33.5-5.3
		c-7.3,8.4-14,17.6-22.1,25.1c-7.7,7.1-9.8,12.7-3.1,22c10,13.9,18.4,28.8,27.4,43.3c2.6,4.2,4.6,8.8,6.9,13.3c-1,0.8-2,1.6-3,2.4
		c-19.7-18-39.3-35.9-59.4-54.3c3.1-4.7,6.6-8.3,8.1-12.5c4.8-13.7-3.5-24.7-19.2-26.2c-14.1-1.3-14.9-2.6-13-16
		c1.6-11.3,2.6-22.7,3.9-34.1C-461.9,131.4-460.3,131.4-458.7,131.4z"/>
	<path d="M-515.5,188.8c15.8,0,31.7-0.2,47.5,0.2c2.1,0.1,5.1,2.6,6,4.7c7.9,18.7-1.4,50.6-20.6,66.9c2-13.1,3.2-24.6,5.7-35.8
		c2-9-1-14.1-9.2-17.8c-10.2-4.5-20-9.8-29.9-14.8C-515.8,191.1-515.6,190-515.5,188.8z"/>
</g>
<text transform="matrix(1 0 0 1 -373.9131 252.7078)" style="font-family:'AmazObitaemOstrovCrazy!'; font-size:174.0716px;">30</text>
<g>
	<path d="M-458.7,313.8c5.8,12.2,11.5,24.3,17.5,36.4c3.8,7.9,11.1,6.7,17.9,5.8c11.4-1.6,22.8-3.6,33.5-5.3
		c-7.3,8.4-14,17.6-22.1,25.1c-7.7,7.1-9.8,12.7-3.1,22c10,13.9,18.4,28.8,27.4,43.3c2.6,4.2,4.6,8.8,6.9,13.3c-1,0.8-2,1.6-3,2.4
		c-19.7-18-39.3-35.9-59.4-54.3c3.1-4.7,6.6-8.3,8.1-12.5c4.8-13.7-3.5-24.7-19.2-26.2c-14.1-1.3-14.9-2.6-13-16
		c1.6-11.3,2.6-22.7,3.9-34.1C-461.9,313.8-460.3,313.8-458.7,313.8z"/>
	<path d="M-515.5,371.3c15.8,0,31.7-0.2,47.5,0.2c2.1,0.1,5.1,2.6,6,4.7c7.9,18.7-1.4,50.6-20.6,66.9c2-13.1,3.2-24.6,5.7-35.8
		c2-9-1-14.1-9.2-17.8c-10.2-4.5-20-9.8-29.9-14.8C-515.8,373.6-515.6,372.4-515.5,371.3z"/>
</g>
<text transform="matrix(1 0 0 1 -373.9131 435.1811)" style="font-family:'AmazObitaemOstrovItalic'; font-size:174.0716px;">30</text>
<g>
	<path d="M-458.7,678.8c5.8,12.2,11.5,24.3,17.5,36.4c3.8,7.9,11.1,6.7,17.9,5.8c11.4-1.6,22.8-3.6,33.5-5.3
		c-7.3,8.4-14,17.6-22.1,25.1c-7.7,7.1-9.8,12.7-3.1,22c10,13.9,18.4,28.8,27.4,43.3c2.6,4.2,4.6,8.8,6.9,13.3c-1,0.8-2,1.6-3,2.4
		c-19.7-18-39.3-35.9-59.4-54.3c3.1-4.7,6.6-8.3,8.1-12.5c4.8-13.7-3.5-24.7-19.2-26.2c-14.1-1.3-14.9-2.6-13-16
		c1.6-11.3,2.6-22.7,3.9-34.1C-461.9,678.8-460.3,678.8-458.7,678.8z"/>
	<path d="M-515.5,736.2c15.8,0,31.7-0.2,47.5,0.2c2.1,0.1,5.1,2.6,6,4.7c7.9,18.7-1.4,50.6-20.6,66.9c2-13.1,3.2-24.6,5.7-35.8
		c2-9-1-14.1-9.2-17.8c-10.2-4.5-20-9.8-29.9-14.8C-515.8,738.5-515.6,737.4-515.5,736.2z"/>
</g>
<text transform="matrix(1 0 0 1 -373.9131 800.1277)" style="font-family:'AmazObitaemOstrovCrazy!'; font-size:174.0716px;">30</text>
<g>
	<path d="M-458.7,861.3c5.8,12.2,11.5,24.3,17.5,36.4c3.8,7.9,11.1,6.7,17.9,5.8c11.4-1.6,22.8-3.6,33.5-5.3
		c-7.3,8.4-14,17.6-22.1,25.1c-7.7,7.1-9.8,12.7-3.1,22c10,13.9,18.4,28.8,27.4,43.3c2.6,4.2,4.6,8.8,6.9,13.3c-1,0.8-2,1.6-3,2.4
		c-19.7-18-39.3-35.9-59.4-54.3c3.1-4.7,6.6-8.3,8.1-12.5c4.8-13.7-3.5-24.7-19.2-26.2c-14.1-1.3-14.9-2.6-13-16
		c1.6-11.3,2.6-22.7,3.9-34.1C-461.9,861.3-460.3,861.3-458.7,861.3z"/>
	<path d="M-515.5,918.7c15.8,0,31.7-0.2,47.5,0.2c2.1,0.1,5.1,2.6,6,4.7c7.9,18.7-1.4,50.6-20.6,66.9c2-13.1,3.2-24.6,5.7-35.8
		c2-9-1-14.1-9.2-17.8c-10.2-4.5-20-9.8-29.9-14.8C-515.8,921-515.6,919.9-515.5,918.7z"/>
</g>
<text transform="matrix(1 0 0 1 -373.9131 982.601)" style="font-family:'AmazObitaemOstrovCrazy!'; font-size:174.0716px;">30</text>
<g>
	<path d="M14.8-0.4c-0.7,1.9-1.3,3.7-2,5.6c-0.4,1.2,0.5,1.9,1.3,2.5c1.4,1,2.8,2,4,2.9c-1.6,0.1-3.3,0.4-4.9,0.3
		c-1.5-0.1-2.3,0.3-2.6,2c-0.4,2.5-1.1,4.9-1.7,7.4c-0.2,0.7-0.4,1.4-0.7,2.1c-0.2,0-0.4,0-0.6-0.1c-0.2-3.9-0.4-7.8-0.5-11.8
		C8,10.3,8.7,10.3,9.3,10c1.9-0.9,2.2-2.9,0.7-4.7c-1.3-1.6-1.3-1.8,0.3-3c1.3-1,2.6-2.1,4-3.2C14.5-0.7,14.6-0.5,14.8-0.4z"/>
	<path d="M2.9-0.3c1.7,1.7,3.3,3.3,4.9,5C8,4.9,8.1,5.5,8,5.8c-1.1,2.8-5.4,5.1-9.1,4.8c1.6-1.2,2.9-2.2,4.3-3.1
		c1.2-0.7,1.4-1.6,0.9-2.8C3.5,3.2,3,1.6,2.5,0C2.6-0.1,2.8-0.2,2.9-0.3z"/>
</g>
<g>
	<path d="M32.3,17.7c0.6,0.6,0.6,1.4-0.1,2.3c-0.6,0.6-2.8,0.7-6.8,0.4c-0.7-0.1-1.1-0.1-1.1,0l0.1,0.1l3.2,2.2
		c0.7,1.2,0.8,2.1,0.1,2.7c-0.9,0.8-3,1.8-6.2,3.2c-4.1,1-7.3,0.3-9.6-2c-2.1-2.1-2.3-4.5-0.7-7.3c0.9-0.6,1.7-0.6,2.3,0l0.1,0.1
		c0.6,0.6,0.6,1.6-0.2,3c-0.1,0.6,0.2,1.2,0.8,1.8l0.1,0.1c1.8,1.8,4.3,2,7.6,0.7l1.7-0.9l0.1-0.1l-0.1-0.1l0.1-0.1
		c-3.6-2.4-6.9-4.3-9.7-5.7l-0.1-0.1c-0.6-0.6-0.6-1.4,0.1-2.3c0.6-0.6,2.1-0.5,4.5,0.3c2.4,0.5,4.5,0.8,6.4,1l0.1-0.1l-0.1-0.1
		c-1.7-1.2-2.8-2.1-3.3-2.6c-2-2-2.8-3.5-2.3-4.5l0.4-0.5c1-0.8,1.8-0.8,2.4-0.2l0.1,0.1c0.2,0.2,0.4,0.7,0.6,1.5l1.3,1.5
		C25.1,13,27.8,14.9,32.3,17.7L32.3,17.7z"/>
	<path d="M41.2,23.8c2.1,2.1,2.4,4.9,1.1,8.4c-0.8,1.6-1.9,3.1-3.3,4.5l-0.3,0.3c-2.5,2.5-5.7,3.7-9.8,3.8c-2.1-0.3-3.6-0.9-4.6-1.9
		c-2.1-2.1-2.4-4.9-1.1-8.4c0.8-1.6,1.9-3.1,3.3-4.5l0.3-0.3l0.2-0.3c1.6-1.6,4.2-2.8,7.8-3.5C37.7,21.8,39.9,22.4,41.2,23.8z
		 M30,27.5L29.5,28c-3,3-4.1,5.6-3.3,7.6l0.7,0.9c0.9,0.9,2.7,1.1,5.3,0.3c1.4-0.3,2.8-1.2,4.1-2.6c2.6-2.6,3.6-4.9,3-6.9l-0.8-1.1
		c-0.8-0.8-2.2-1-4.3-0.6C32.5,26.1,31.1,26.7,30,27.5z"/>
</g>
</svg>
