<?xml version="1.0" encoding="utf-8"?>
<!-- Generator: Adobe Illustrator 26.0.1, SVG Export Plug-In . SVG Version: 6.00 Build 0)  -->
<svg version="1.1" id="Слой_1" xmlns="http://www.w3.org/2000/svg" xmlns:xlink="http://www.w3.org/1999/xlink" x="0px" y="0px"
	 viewBox="0 0 100 100" style="enable-background:new 0 0 100 100;" xml:space="preserve">
<style type="text/css">
	.st0{clip-path:url(#SVGID_00000047752581166304630010000006672255946374094519_);}
	.st1{fill:#FFF200;}
	.st2{fill:#FFF980;}
	.st3{fill:#80DBF5;}
	.st4{fill:#FF80C8;}
	.st5{fill:#FF0090;}
	.st6{fill:#00B7EB;}
	.st7{fill:#18181B;}
	.st8{display:none;}
	.st9{display:inline;}
	.st10{fill:#110E0E;}
	.st11{display:inline;fill:#110E0E;}
</style>
<g>
	<g>
		<g>
			<g>
				<defs>
					<path id="SVGID_1_" d="M91.2,89.2c-0.6,1.8-1.6,3.4-3,4.7c-2,2-4.8,3.1-7.6,3.2L41.5,98c-5,0.1-9.6-2-12.6-5.9L9,67.7
						c-2.6-3.2-3.6-7.3-2.7-11.3l8.7-41.2c0.6-2.9,2.9-5.1,5.8-5.6l43-7.5c2.4-0.4,4.8-0.1,7,1c2.2,1.1,3.9,2.8,5,5L92.3,41
						c1.4,2.6,1.9,5.6,1.8,8.5l-2.2,36.9C91.7,87.4,91.5,88.3,91.2,89.2z"/>
				</defs>
				<clipPath id="SVGID_00000070834146300144785150000012757234637246788273_">
					<use xlink:href="#SVGID_1_"  style="overflow:visible;"/>
				</clipPath>
				<g style="clip-path:url(#SVGID_00000070834146300144785150000012757234637246788273_);">
					<path class="st1" d="M99.9,115.6c-30.6,1.9-61.1,3.8-91.7,5.8l56.5-64C76.4,76.7,88.2,96.1,99.9,115.6z"/>
					<polygon class="st2" points="4.6,61 8.4,121.3 64.8,57.3 					"/>
					<path class="st3" d="M71.9-3.9c-2.4,20.4-4.7,40.7-7.1,61L0.7,0.6C24.4-0.9,48.1-2.4,71.9-3.9z"/>
					<path class="st4" d="M71.9-3.9c-2.4,20.3-4.9,40.6-7.4,60.9c23.5-14.4,47-28.8,70.5-43.2C113.9,7.9,92.9,2,71.9-3.9z"/>
					<path class="st5" d="M100.9,116.4c6.4-31.7,12.8-63.3,19.2-95C101.6,33.3,83,45.1,64.5,57C76.6,76.8,88.8,96.6,100.9,116.4z"/>
					<polygon class="st6" points="4.4,60.7 64.7,56.9 0.7,0.5 					"/>
				</g>
			</g>
		</g>
	</g>
	<g>
		<g>
			<g>
				<g>
					<g>
						<g>
							<g>
								<g>
									<g>
										<g>
											
												<ellipse transform="matrix(0.3798 -0.9251 0.9251 0.3798 -49.1764 69.946)" class="st7" cx="27.6" cy="71.6" rx="2.8" ry="6.2"/>
										</g>
										<g>
											<path class="st7" d="M91.2,89.2c-0.6,1.8-1.6,3.4-3,4.7c-2,2-4.8,3.1-7.6,3.2L41.5,98c-5,0.1-9.6-2-12.6-5.9L9,67.7
												c-2.6-3.2-3.6-7.3-2.7-11.3l8.7-41.2c0.6-2.9,2.9-5.1,5.8-5.6l43-7.5c2.4-0.4,4.8-0.1,7,1c2.2,1.1,3.9,2.8,5,5L92.3,41
												c1.4,2.6,1.9,5.6,1.8,8.5l-2.2,36.9C91.7,87.4,91.5,88.3,91.2,89.2z M7.1,56.6l0.9,0.2c-0.7,3.5,0.1,7.1,2.4,9.9
												l19.8,24.4c2.8,3.4,6.9,5.3,11.3,5.2l39.2-0.9c5-0.1,9.2-4.1,9.5-9.1l2.2-36.9c0.2-2.7-0.4-5.3-1.6-7.7L74,8.9
												c-1.9-3.8-6-5.8-10.1-5.1l-43,7.5c-2.2,0.4-4,2-4.5,4.3L7.8,56.8L7.1,56.6z"/>
										</g>
										<g>
											<path class="st7" d="M83.7,94.8c-0.1,0.2-0.2,0.4-0.3,0.6c-0.6,1.1-1.9,1.5-2.8,1.5l-38.4,0.9c-4.6,0.1-9.3-0.6-12.9-5.4
												l-19.2-25c-0.8-1.1-1-2.4-0.5-3.6c0.6-1.3,1.7-2,3-2.1L57.3,58c3.2-0.3,6.3,1.3,8,4.2l18,29.9l0,0
												C83.9,93.2,83.9,94.1,83.7,94.8z M10.6,64.4c-0.2,0.7-0.1,1.6,0.4,2.2l19.2,25c3.1,4.1,7.1,5,12,4.9l38.3-0.9
												c0.6,0,1.5-0.3,1.9-1c0.3-0.6,0.3-1.3-0.1-2.2L64.4,62.7c-1.5-2.4-4.2-3.8-7-3.6l-44.6,3.6c-0.9,0.1-1.7,0.6-2,1.5
												C10.7,64.2,10.7,64.3,10.6,64.4z"/>
										</g>
										<g>
											<path class="st7" d="M91.1,88.7c-0.3,1.1-1.2,1.9-2.3,2.1c-1.4,0.3-2.8-0.2-3.5-1.5L68,59.9c-1.3-2.2-1.8-4.8-1.5-7.4
												L71.9,9c0.1-0.7,0.7-1.3,1.5-1.4c0.8-0.2,1.5,0.2,1.8,0.7c4.2,8.1,16,31.5,17,33.6c1.1,2.3,1.3,5.3,1.4,5.4v0.1
												l-2.4,40.4C91.2,88.1,91.2,88.4,91.1,88.7z M73.1,9.1l-5.4,43.5c-0.3,2.3,0.2,4.6,1.4,6.6l17.2,29.4c0.6,1,1.5,1.1,2.3,1
												c0.7-0.2,1.5-0.7,1.6-1.9l2.4-40.4c0-0.3-0.3-3-1.2-5c-1-2.1-12.8-25.5-17-33.6c-0.1-0.2-0.3-0.2-0.6-0.2
												C73.4,8.7,73.1,9,73.1,9.1L73.1,9.1z"/>
										</g>
										<g>
											<g>
												<path class="st7" d="M62.7,51.4c-0.6,1.9-2.4,3.4-4.5,3.5l-47.1,3.4C10,58.5,8.8,57.9,8,57c-0.8-0.9-1.1-2.2-0.9-3.4
													l8.4-38.5c0.6-2.7,2.8-4.8,5.6-5.3l43.4-7.2c1.1-0.2,2.3,0.2,3.1,1c0.9,0.8,1.3,1.9,1.1,3.1l-5.9,43.8
													C62.9,50.8,62.8,51.1,62.7,51.4z M16.9,14.8c-0.1,0.2-0.1,0.3-0.1,0.5L8.4,53.9c-0.2,0.9,0.1,1.7,0.6,2.3
													c0.6,0.6,1.4,1,2.2,0.9l47.1-3.4c1.8-0.1,3.4-1.5,3.6-3.4l5.9-43.8c0.1-0.8-0.2-1.6-0.7-2.1c-0.6-0.6-1.4-0.8-2.2-0.7
													L21.4,11C19.2,11.3,17.5,12.8,16.9,14.8z"/>
											</g>
											<g>
												<g>
													
														<ellipse transform="matrix(0.5746 -0.8184 0.8184 0.5746 -5.8718 30.4699)" class="st7" cx="26.4" cy="20.9" rx="5.8" ry="3.9"/>
												</g>
												<g>
													<path class="st7" d="M31.7,16c0.3,0.3,0.7,0.6,0.9,1c0.2,0.4,0.4,0.9,0.5,1.3s0.2,0.9,0.2,1.4c0,0.5,0,1-0.1,1.4
														c-0.1,0.2-0.1,0.5-0.1,0.7c0,0.1-0.1,0.2-0.1,0.3c-0.1,0.1-0.1,0.2-0.1,0.3l-0.1,0.3c-0.1,0.1-0.1,0.2-0.1,0.3
														c-0.1,0.1-0.1,0.2-0.2,0.3l-0.2,0.3c-0.1,0.1-0.1,0.2-0.2,0.3l-0.2,0.3c-0.1,0.2-0.2,0.4-0.4,0.6
														c-0.3,0.4-0.6,0.7-0.9,1.1c-0.3,0.3-0.7,0.7-1.1,1c-0.4,0.3-0.8,0.6-1.3,0.8c-0.5,0.2-0.9,0.5-1.4,0.6
														c-0.1,0.1-0.2,0.1-0.3,0.1s-0.2,0.1-0.4,0.1c-0.2,0.1-0.5,0.1-0.7,0.1c-0.1,0-0.3,0-0.4,0s-0.3,0-0.4,0
														c-0.3,0-0.5-0.1-0.8-0.1c-0.5-0.1-1-0.3-1.4-0.6c-0.4-0.3-0.8-0.7-1-1.1c-0.3-0.4-0.4-0.9-0.5-1.3
														c0.2,0.4,0.5,0.7,0.7,1c0.3,0.3,0.7,0.5,1,0.7c0.8,0.3,1.7,0.4,2.4,0.2c0.8-0.2,1.6-0.5,2.3-0.9c0.7-0.5,1.4-1,1.9-1.6
														c0.3-0.3,0.6-0.6,0.8-1c0.1-0.2,0.2-0.3,0.3-0.5l0.2-0.3c0.1-0.1,0.1-0.2,0.2-0.3c0.4-0.7,0.7-1.5,1-2.3
														c0.1-0.2,0.1-0.4,0.2-0.6c0.1-0.2,0.1-0.4,0.1-0.6c0.1-0.4,0.1-0.9,0.1-1.3S32.1,17.4,32,17
														C32.1,16.7,31.9,16.3,31.7,16z"/>
												</g>
											</g>
											<g>
												<g>
													
														<ellipse transform="matrix(0.5746 -0.8184 0.8184 0.5746 9.4458 51.3227)" class="st7" cx="54.1" cy="16.6" rx="5.8" ry="3.9"/>
												</g>
												<g>
													<path class="st7" d="M50.5,12.2c0.9-1.4,2.2-2.5,3.8-3.1c0.9-0.3,1.8-0.5,2.7-0.3s1.9,0.5,2.7,1.2
														c0.4,0.3,0.7,0.7,1,1.1c0.3,0.4,0.5,0.9,0.7,1.3c0.3,0.9,0.5,1.9,0.5,2.8c0,0.5-0.1,0.9-0.2,1.4s-0.2,0.9-0.3,1.3
														c-0.3,0.9-0.7,1.7-1.2,2.4c-0.5,0.7-1.1,1.4-1.8,2c-0.7,0.6-1.4,1.1-2.3,1.5c-0.9,0.4-1.8,0.7-2.7,0.8
														c-0.5,0.1-1,0.1-1.5,0c-0.5-0.1-1-0.2-1.4-0.3c-0.9-0.4-1.8-1-2.3-1.8c-0.1-0.1-0.1-0.2-0.2-0.3L47.7,22l-0.1-0.2
														l-0.1-0.2c-0.1-0.1-0.1-0.2-0.1-0.3c-0.1-0.1-0.1-0.2-0.1-0.3c-0.1-0.1-0.1-0.2-0.1-0.3c-0.1-0.2-0.1-0.5-0.1-0.7v-0.3
														c0-0.1,0-0.2,0-0.3c0-0.2,0-0.5,0.1-0.6c0.1-0.5,0.1-0.9,0.2-1.3c0.1-0.2,0.1-0.4,0.2-0.6c0.1-0.2,0.2-0.4,0.2-0.6
														l0.3-0.5c0.1-0.2,0.2-0.3,0.3-0.5c-0.3,0.7-0.5,1.5-0.6,2.3s-0.1,1.6,0.1,2.3c0.1,0.2,0.1,0.4,0.2,0.6
														c0,0.1,0.1,0.2,0.1,0.3c0.1,0.1,0.1,0.2,0.1,0.3l0.1,0.3l0.1,0.1l0.1,0.1l0.2,0.2c0.1,0.1,0.1,0.2,0.2,0.2
														c0.5,0.6,1.1,1.1,1.9,1.3c0.7,0.2,1.5,0.3,2.3,0.2c0.8-0.1,1.5-0.4,2.2-0.7c1.4-0.7,2.6-1.9,3.4-3.2
														c0.9-1.3,1.4-2.8,1.5-4.4c0.1-0.8,0-1.6-0.3-2.3c-0.2-0.7-0.6-1.4-1.2-2c-0.6-0.6-1.3-0.9-2-1.1
														c-0.7-0.2-1.6-0.1-2.3,0.1C52.9,10.2,51.6,11.1,50.5,12.2z"/>
												</g>
											</g>
											<g>
												<g>
													
														<ellipse transform="matrix(0.5746 -0.8184 0.8184 0.5746 -13.8799 59.0467)" class="st7" cx="49.9" cy="42.9" rx="5.8" ry="3.9"/>
												</g>
												<g>
													<path class="st7" d="M55.2,38c0.3,0.3,0.7,0.6,0.9,1c0.2,0.4,0.4,0.9,0.5,1.3c0.1,0.5,0.2,0.9,0.2,1.4
														c0,0.5,0,1-0.1,1.4c-0.1,0.2-0.1,0.5-0.1,0.7c0,0.1-0.1,0.2-0.1,0.3c-0.1,0.1-0.1,0.2-0.1,0.3l-0.1,0.3
														c-0.1,0.1-0.1,0.2-0.1,0.3c-0.1,0.1-0.1,0.2-0.2,0.3l-0.2,0.3c-0.1,0.1-0.1,0.2-0.2,0.3l-0.2,0.3
														c-0.1,0.2-0.2,0.4-0.4,0.6c-0.3,0.4-0.6,0.7-0.9,1.1c-0.3,0.3-0.7,0.7-1.1,1c-0.4,0.3-0.8,0.6-1.3,0.8
														c-0.5,0.2-0.9,0.5-1.4,0.6c-0.1,0.1-0.2,0.1-0.3,0.1c-0.1,0.1-0.2,0.1-0.4,0.1c-0.2,0.1-0.5,0.1-0.7,0.1
														c-0.1,0-0.3,0-0.4,0s-0.3,0-0.4,0c-0.3,0-0.5-0.1-0.8-0.1c-0.5-0.1-1-0.3-1.4-0.6c-0.4-0.3-0.8-0.7-1-1.1
														c-0.3-0.4-0.4-0.9-0.5-1.3c0.2,0.4,0.5,0.7,0.7,1c0.3,0.3,0.7,0.5,1,0.7c0.8,0.3,1.7,0.4,2.4,0.2
														c0.8-0.2,1.6-0.5,2.3-0.9c0.7-0.5,1.4-1,1.9-1.6c0.3-0.3,0.6-0.6,0.8-1c0.1-0.2,0.2-0.3,0.3-0.5l0.2-0.3
														c0.1-0.1,0.1-0.2,0.2-0.3c0.4-0.7,0.7-1.5,1-2.3c0.1-0.2,0.1-0.4,0.2-0.6c0.1-0.2,0.1-0.4,0.1-0.6
														c0.1-0.4,0.1-0.9,0.1-1.3c0-0.4-0.1-0.9-0.2-1.3C55.6,38.7,55.4,38.3,55.2,38z"/>
												</g>
											</g>
											<g>
												<g>
													
														<ellipse transform="matrix(0.5746 -0.8184 0.8184 0.5746 -28.3686 37.6666)" class="st7" cx="22.1" cy="46.1" rx="5.8" ry="3.9"/>
												</g>
												<g>
													<path class="st7" d="M27.3,41.2c0.3,0.3,0.7,0.6,0.9,1c0.2,0.4,0.4,0.9,0.5,1.3c0.1,0.5,0.2,0.9,0.2,1.4
														c0,0.5,0,1-0.1,1.4c-0.1,0.2-0.1,0.5-0.1,0.7c0,0.1-0.1,0.2-0.1,0.3s-0.1,0.2-0.1,0.3l-0.1,0.3
														c-0.1,0.1-0.1,0.2-0.1,0.3c-0.1,0.1-0.1,0.2-0.2,0.3l-0.2,0.3c-0.1,0.1-0.1,0.2-0.2,0.3l-0.2,0.3
														c-0.1,0.2-0.2,0.4-0.4,0.6c-0.3,0.4-0.6,0.7-0.9,1.1c-0.3,0.3-0.7,0.7-1.1,1c-0.4,0.3-0.8,0.6-1.3,0.8
														c-0.5,0.2-0.9,0.5-1.4,0.6c-0.1,0.1-0.2,0.1-0.3,0.1C22.1,54,22,54,21.8,54c-0.2,0.1-0.5,0.1-0.7,0.1
														c-0.1,0-0.3,0-0.4,0s-0.3,0-0.4,0c-0.3,0-0.5-0.1-0.8-0.1c-0.5-0.1-1-0.3-1.4-0.6c-0.4-0.3-0.8-0.7-1-1.1
														c-0.3-0.4-0.4-0.9-0.5-1.3c0.2,0.4,0.5,0.7,0.7,1c0.3,0.3,0.7,0.5,1,0.7c0.8,0.3,1.7,0.4,2.4,0.2
														c0.8-0.2,1.6-0.5,2.3-0.9c0.7-0.5,1.4-1,1.9-1.6c0.3-0.3,0.6-0.6,0.8-1c0.1-0.2,0.2-0.3,0.3-0.5l0.2-0.3
														c0.1-0.1,0.1-0.2,0.2-0.3c0.4-0.7,0.7-1.5,1-2.3c0.1-0.2,0.1-0.4,0.2-0.6c0.1-0.2,0.1-0.4,0.1-0.6
														c0.1-0.4,0.1-0.9,0.1-1.3c0-0.4-0.1-0.9-0.2-1.3C27.7,42,27.6,41.6,27.3,41.2z"/>
												</g>
											</g>
											<g>
												<g>
													
														<ellipse transform="matrix(0.5746 -0.8184 0.8184 0.5746 -10.5048 44.5022)" class="st7" cx="37.6" cy="32.4" rx="5.8" ry="3.9"/>
												</g>
												<g>
													<path class="st7" d="M39.7,25.2c0.2-0.1,0.5-0.1,0.7-0.1c0.2,0,0.5,0,0.8,0c0.5,0.1,1,0.2,1.5,0.5
														c0.5,0.3,0.9,0.6,1.3,1.1c0.1,0.1,0.2,0.2,0.3,0.3c0.1,0.1,0.2,0.2,0.2,0.3c0.1,0.1,0.2,0.2,0.2,0.4
														c0.1,0.1,0.1,0.3,0.2,0.4c0.1,0.3,0.2,0.5,0.3,0.8c0.1,0.1,0.1,0.3,0.1,0.4c0,0.1,0.1,0.3,0.1,0.4
														c0.1,0.6,0.1,1.1,0.1,1.7c-0.1,0.6-0.1,1.1-0.3,1.6c-0.1,0.5-0.3,1-0.6,1.5c-0.2,0.5-0.5,1-0.8,1.4
														c-0.1,0.1-0.2,0.2-0.2,0.3c-0.1,0.1-0.2,0.2-0.2,0.3l-0.2,0.3c-0.1,0.1-0.1,0.1-0.1,0.2l-0.1,0.2
														c-0.2,0.2-0.3,0.4-0.6,0.6c-0.1,0.1-0.2,0.2-0.3,0.3c-0.1,0.1-0.2,0.2-0.3,0.2l-0.3,0.2c-0.1,0.1-0.2,0.2-0.3,0.2
														s-0.2,0.2-0.3,0.2l-0.3,0.2c-0.5,0.2-1,0.5-1.5,0.6c-0.5,0.1-1,0.2-1.6,0.3c-0.3,0-0.5,0-0.8,0c-0.1,0-0.3-0.1-0.4-0.1
														s-0.2-0.1-0.4-0.1l-0.4-0.1c-0.1-0.1-0.2-0.1-0.3-0.1l-0.2-0.1c-0.1,0-0.1-0.1-0.2-0.1c-0.1-0.1-0.2-0.1-0.3-0.2
														c0.9,0.2,1.9,0.2,2.8,0c0.5-0.1,0.9-0.3,1.3-0.5c0.2-0.1,0.4-0.2,0.6-0.3c0.2-0.1,0.4-0.2,0.6-0.3
														c0.8-0.5,1.5-1.1,2-1.9c0.6-0.7,1.1-1.5,1.5-2.4c0.4-0.9,0.6-1.8,0.7-2.7c0.1-0.9,0.1-1.9-0.2-2.8
														c-0.1-0.5-0.3-0.9-0.6-1.3c-0.2-0.4-0.6-0.7-0.9-1c-0.3-0.3-0.7-0.5-1.2-0.7C40.6,25.3,40.2,25.2,39.7,25.2z"/>
												</g>
											</g>
											<g>
												<path class="st7" d="M17.9,54.8L11,55.3c-0.3,0-0.6-0.2-0.7-0.3s-0.3-0.4-0.2-0.7l1.9-8.9C11.9,46,10.9,53,11.4,54
													C12,54.9,17.5,54.9,17.9,54.8z"/>
											</g>
											<g>
												<path class="st7" d="M32.2,11c-0.3,0.1-10.9,2.7-12,5c-1.2,2.2-4.7,13.8-4.7,13.8l3.1-14c0-0.1,0.1-0.2,0.1-0.3
													c0.5-1.4,1.6-2.4,3.1-2.6L32.2,11z"/>
											</g>
											<g>
												<polygon class="st7" points="38.3,13.5 32.7,18.1 32.9,19.9 												"/>
											</g>
											<g>
												<path class="st7" d="M23.5,28c0,0-2.7,2.3-3.6,3.1c-1,0.8,0.1,1.7,0.6,1.5L16,36.9l-1.6,7.3c0,0,12.1-11.5,13.2-12.4
													c1.1-1,0.1-2-0.3-2l3-3.1L26,28.2L23.5,28z"/>
											</g>
											<g>
												<path class="st7" d="M45,30.1l6.3-6.2c0,0-2.8-0.9-3.2-2.8l-5,5C43,26.1,44.6,27.7,45,30.1z"/>
											</g>
											<g>
												<path class="st7" d="M62.4,32.1c-0.8,6-1.6,12-2.4,18c0,0.1-0.1,0.2-0.1,0.3c-0.2,0.8-1,1.4-1.8,1.4l-20,1.5l10.1-1.8
													l-5.4-0.3l5.9-1.1c0,0,3.9-0.5,5.4-2.7c1.5-2.2,2.4-6,2.4-6s0.5,0.5,0.2,2.3c-0.3,1.8-1.4,4.6-1.4,4.6s3.1-2.2,2.7-7.8
													c0.6-1.1,1.3-2.3,1.9-3.5C60.7,35.4,61.5,33.8,62.4,32.1z"/>
											</g>
											<g>
												<path class="st7" d="M65.7,5.8c0.1,0.1,0.2,0.3,0.2,0.6l-2.6,19.1l-0.1-4.2l-7,8.1l-0.5-1.7l-9.3,8.6l11.4-13.1l0.5,1.3
													c0,0,3.4-3.6,3-8.6c0,0,0.3-4.5-2.6-6c-2.8-1.5-10.1,0.6-10.3,0.7l3.5-1.7L42,9.4l23.1-3.8C65.4,5.6,65.6,5.7,65.7,5.8z
													"/>
											</g>
											<g>
												<polygon class="st7" points="26.5,54.2 31,52.8 42.4,41.3 32.7,53 35.5,53.6 												"/>
											</g>
										</g>
										<g>
											<g>
												<path class="st7" d="M79.8,30.2c0.6,0.4,1.1,0.9,1.5,1.5c0.5,0.6,0.8,1.2,1.1,1.8c0.6,1.3,1,2.7,1.1,4.2
													s0.1,2.9-0.2,4.3c-0.2,0.7-0.4,1.4-0.7,2c-0.2,0.3-0.3,0.6-0.6,0.9c-0.1,0.1-0.2,0.3-0.4,0.4c-0.1,0.1-0.3,0.2-0.5,0.3
													c0.5-0.5,0.8-1.1,1-1.8c0.2-0.6,0.4-1.3,0.5-2c0.2-1.4,0.2-2.7,0.1-4.1c-0.2-1.4-0.5-2.7-0.9-4
													C81.3,32.4,80.7,31.2,79.8,30.2z"/>
											</g>
										</g>
										<g>
											<path class="st7" d="M83.4,53.8c0.2,0.1,0.4,0.2,0.6,0.3c0.1,0.1,0.2,0.1,0.3,0.2c0.1,0.1,0.2,0.1,0.2,0.2
												c0.1,0.1,0.2,0.2,0.2,0.2c0,0,0.2,0.2,0.2,0.2c0.2,0.2,0.3,0.3,0.5,0.5c0.5,0.7,1,1.5,1.3,2.3c0.7,1.7,1.1,3.4,1.3,5.2
												c0,0.5,0.1,0.9,0.1,1.4c0,0.5-0.1,0.9-0.1,1.4c-0.1,0.9-0.3,1.8-0.7,2.7c-0.2,0.5-0.4,0.9-0.7,1.3
												c-0.2,0.2-0.3,0.4-0.5,0.6c-0.2,0.2-0.4,0.3-0.6,0.5c-0.5,0.2-1,0.3-1.5,0.2c-0.2-0.1-0.5-0.2-0.6-0.3
												c-0.2-0.1-0.3-0.3-0.5-0.5c0.3,0.2,0.7,0.4,1.2,0.5c0.1,0,0.2,0,0.3,0c0.1,0,0.2-0.1,0.3-0.1c0.2-0.1,0.4-0.2,0.6-0.3
												c0.3-0.2,0.6-0.6,0.9-1c0.2-0.3,0.4-0.7,0.5-1.2c0.3-0.8,0.4-1.7,0.5-2.5c0.1-0.9,0.1-1.7,0-2.6c-0.1-1.7-0.5-3.4-1-5
												c-0.3-0.8-0.6-1.6-1-2.3C84.6,55,84.1,54.3,83.4,53.8z"/>
										</g>
										<g>
											<path class="st7" d="M88.4,69.6l-0.9,14.9c0,0.1,0,0.1,0,0.1c-0.1,0.1-0.2,0.1-0.2,0.1c-0.1,0-0.2-0.1-0.2-0.1l-7.8-13.3
												l7.2,9.9L88.4,69.6z"/>
										</g>
										<g>
											<path class="st7" d="M71,48c0.3,2.2,0.8,5.6,1,6.9c0.2,1.9,5,12.2,5.1,12.4l-5.5-9.4c-1-1.7-1.4-3.6-1.1-5.5L71,48z"/>
										</g>
										<g>
											<path class="st7" d="M75.9,17.9c1.4,2.8,3.1,6.2,4.8,9.6l-4.6-6.1l-3.1,12.1L75,18.2C75,17.6,75.7,17.5,75.9,17.9z"/>
										</g>
										<g>
											<path class="st7" d="M83.1,90.8c-1.3-1.5-2.4-3.1-3.5-4.8c-1.1-1.7-2.1-3.3-3.1-5c-1-1.7-1.9-3.4-2.8-5.1
												c-0.9-1.8-1.8-3.5-2.5-5.4c1.3,1.5,2.4,3.1,3.5,4.8c1.1,1.7,2.1,3.3,3.1,5c1,1.7,1.9,3.4,2.8,5.1
												C81.5,87.2,82.4,88.9,83.1,90.8z"/>
											<path class="st7" d="M84.1,90.3c-1.3-1.5-2.4-3.1-3.5-4.8c-1.1-1.7-2.1-3.3-3.1-5c-1-1.7-1.9-3.4-2.8-5.1
												c-0.9-1.8-1.8-3.5-2.5-5.4c1.3,1.5,2.4,3.1,3.5,4.8c1.1,1.7,2.1,3.3,3.1,5c1,1.7,1.9,3.4,2.8,5.1
												C82.5,86.7,83.3,88.5,84.1,90.3z"/>
											<path class="st7" d="M85,89.9c-1.3-1.5-2.4-3.1-3.5-4.8c-1.1-1.7-2.1-3.3-3.1-5c-1-1.7-1.9-3.4-2.8-5.1
												c-0.9-1.8-1.8-3.5-2.5-5.4c1.3,1.5,2.4,3.1,3.5,4.8c1.1,1.7,2.1,3.3,3.1,5c1,1.7,1.9,3.4,2.8,5.1
												C83.4,86.3,84.2,88,85,89.9z"/>
										</g>
										<g>
											<path class="st7" d="M34.2,62.8c-6.4,1-12.8,1.9-19.1,2.8c-0.3,0.1-0.5,0.3-0.3,0.6c2.2,3.4,4.3,6.8,6.4,10.3
												c0.1,0.1,0.2,0.3,0.3,0.4c-2.8-3.6-5.8-7.3-8.6-10.9c-0.3-0.3-0.2-0.7-0.2-0.9c0.1-0.2,0.2-0.6,0.9-0.7
												C20.4,63.8,27.3,63.3,34.2,62.8z"/>
										</g>
										<g>
											<path class="st7" d="M62.9,63.6l17.6,29.3c0.2,0.4,0.2,0.6,0.2,0.7C80.6,93.8,80.4,94,80,94c-7.6,0.2-15.2,0.3-22.7,0.5
												c3-0.5,6-0.9,9-1.4c-1.8-0.3-3.6-0.6-5.4-0.9c2.8-0.2,5.6-0.3,8.5-0.5c0,0,7-0.4,6.5-3.2c-0.5-2.8-2.7-5.8-2.7-5.8
												l-3.4-2.5l0.3-2.2c-3.5-6.3-5.8-10-7.4-12.2c-0.6-0.7-1.4-2.2-3.2-3c-0.6-0.3-1.4-0.4-2.8-0.6c-1.7-0.2-2.7-0.2-6.6-0.5
												c-0.6-0.1-1.1-0.1-1.4-0.1c2.9-0.2,5.8-0.5,8.7-0.7C59.6,60.7,61.7,61.8,62.9,63.6z"/>
										</g>
										<g>
											<path class="st7" d="M47.8,94.6l-5.5,0.1c-3.1,0.1-5.6-0.3-7.7-1.5c-0.8-0.5-1.5-1.1-2.9-2.7c-1.5-1.7-3.6-4.2-5.8-7.6
												c2.6,2.7,5,4.6,6.7,5.9c3.2,2.3,6.3,4.7,10.9,5.4C44.8,94.4,46.3,94.6,47.8,94.6z"/>
										</g>
										<g>
											<polygon class="st7" points="52.4,61.7 50.7,68.6 51.3,61.5 											"/>
										</g>
										<g>
											<path class="st7" d="M34,74.1c-0.2,0.5-0.6,1-1.1,1.3c-1.4,0.7-3.8,0.5-6.2-0.5c-3.6-1.4-5.9-3.8-5.3-5.6l0,0
												c0.2-0.5,0.6-1,1.1-1.3c1.4-0.7,3.8-0.5,6.2,0.5l0,0C32.2,69.9,34.5,72.3,34,74.1L34,74.1z M22.3,69.6L22.3,69.6
												c-0.3,1,1.5,3,4.6,4.3c2.4,1,4.5,0.9,5.4,0.5c0.3-0.2,0.5-0.3,0.6-0.6l0,0c0.3-1-1.5-3-4.6-4.3l0,0
												c-2.4-1-4.5-0.9-5.4-0.5C22.6,69.2,22.4,69.3,22.3,69.6z"/>
										</g>
										<g>
											<path class="st7" d="M23.1,66.3c0.3-0.1,0.7-0.2,1-0.3c0.3-0.1,0.7-0.1,1-0.2c0.3-0.1,0.7-0.1,1.1,0
												c0.3,0,0.7,0.1,1.1,0.1c1.4,0.2,2.8,0.6,4.2,1.2c0.7,0.3,1.3,0.7,1.9,1.1c0.6,0.4,1.2,0.9,1.7,1.5
												c0.1,0.2,0.3,0.3,0.4,0.5l0.2,0.2c0.1,0.1,0.1,0.2,0.2,0.3c0.2,0.3,0.4,0.7,0.6,1.1c0.3,0.8,0.5,1.8,0.3,2.7
												c-0.2,0.9-0.6,1.8-1.3,2.4c-0.3,0.3-0.7,0.6-1.1,0.8c-0.2,0.1-0.4,0.2-0.6,0.3c-0.2,0.1-0.4,0.1-0.6,0.2
												c-0.8,0.2-1.6,0.3-2.4,0.2c-0.4,0-0.7-0.1-1.1-0.1c-0.2-0.1-0.3-0.1-0.6-0.1c-0.2-0.1-0.3-0.1-0.5-0.1
												c-0.2-0.1-0.3-0.1-0.5-0.2c-0.2-0.1-0.3-0.1-0.5-0.2c-0.3-0.1-0.7-0.2-1-0.4c-0.2-0.1-0.3-0.2-0.5-0.2
												c-0.2-0.1-0.3-0.2-0.5-0.2c-0.3-0.2-0.6-0.3-0.9-0.6c-0.3-0.2-0.6-0.4-0.9-0.6c-0.3-0.2-0.6-0.5-0.8-0.7
												c-0.3-0.2-0.5-0.5-0.7-0.7c-0.2-0.3-0.5-0.5-0.6-0.9c1,1,2.1,1.7,3.4,2.3c0.6,0.3,1.3,0.6,1.9,0.8c0.6,0.2,1.3,0.4,2,0.5
												c0.7,0.1,1.4,0.2,2,0.2c0.7,0,1.4-0.1,2-0.3c0.2-0.1,0.3-0.1,0.5-0.2c0.2-0.1,0.3-0.1,0.5-0.2c0.3-0.2,0.6-0.4,0.8-0.6
												c0.5-0.5,0.8-1.1,1-1.8c0.1-0.7,0.1-1.4-0.2-2c-0.2-0.6-0.6-1.2-1.1-1.7s-1-1-1.5-1.4c-0.6-0.4-1.1-0.8-1.7-1.1
												c-1.2-0.6-2.5-1.1-3.8-1.5C25.8,66.1,24.4,66,23.1,66.3z"/>
										</g>
										<g>
											
												<ellipse transform="matrix(0.3798 -0.9251 0.9251 0.3798 -42.5447 92.7001)" class="st7" cx="47.9" cy="78.1" rx="2.8" ry="6.2"/>
										</g>
										<g>
											<path class="st7" d="M54.2,80.6c-0.2,0.5-0.6,1-1.1,1.3c-1.4,0.7-3.8,0.5-6.2-0.5c-3.6-1.4-5.9-3.8-5.3-5.6l0,0
												c0.2-0.5,0.6-1,1.1-1.3c1.4-0.7,3.8-0.5,6.2,0.5l0,0C52.5,76.3,54.8,78.7,54.2,80.6L54.2,80.6z M42.6,76.1L42.6,76.1
												c-0.3,1,1.5,3,4.6,4.3c2.4,1,4.5,0.9,5.4,0.5c0.3-0.2,0.5-0.3,0.6-0.6l0,0c0.3-1-1.5-3-4.6-4.3l0,0
												c-2.4-1-4.5-0.9-5.4-0.5C42.9,75.6,42.7,75.8,42.6,76.1z"/>
										</g>
										<g>
											<path class="st7" d="M43.4,72.7c0.3-0.1,0.7-0.2,1-0.3c0.4-0.1,0.7-0.1,1-0.2c0.4-0.1,0.7-0.1,1.1,0
												c0.3,0,0.7,0.1,1.1,0.1c1.4,0.2,2.8,0.6,4.2,1.2c0.7,0.3,1.3,0.7,1.9,1.1c0.6,0.4,1.2,0.9,1.7,1.5
												c0.1,0.2,0.3,0.3,0.4,0.5l0.2,0.2c0.1,0.1,0.1,0.2,0.2,0.3c0.2,0.3,0.4,0.7,0.6,1.1c0.3,0.8,0.5,1.8,0.3,2.7
												c-0.2,0.9-0.6,1.8-1.3,2.4c-0.3,0.3-0.7,0.6-1.1,0.8c-0.2,0.1-0.4,0.2-0.6,0.3c-0.2,0.1-0.4,0.1-0.6,0.2
												c-0.8,0.2-1.6,0.3-2.4,0.2c-0.4,0-0.7-0.1-1.1-0.1c-0.2-0.1-0.3-0.1-0.6-0.1c-0.2-0.1-0.3-0.1-0.5-0.1s-0.3-0.1-0.5-0.2
												c-0.2-0.1-0.3-0.1-0.5-0.2c-0.3-0.1-0.7-0.2-1-0.4c-0.2-0.1-0.3-0.2-0.5-0.2c-0.2-0.1-0.3-0.2-0.5-0.2
												c-0.3-0.2-0.6-0.3-0.9-0.6c-0.3-0.2-0.6-0.4-0.9-0.6c-0.3-0.2-0.6-0.5-0.8-0.7c-0.3-0.2-0.5-0.5-0.7-0.7
												c-0.2-0.3-0.5-0.5-0.6-0.9c1,1,2.1,1.7,3.4,2.3c0.6,0.3,1.3,0.6,1.9,0.8c0.6,0.2,1.3,0.4,2,0.5c0.7,0.1,1.4,0.2,2,0.2
												c0.7,0,1.4-0.1,2-0.3c0.2-0.1,0.3-0.1,0.5-0.2c0.2-0.1,0.3-0.1,0.5-0.2c0.3-0.2,0.6-0.4,0.8-0.6c0.5-0.5,0.8-1.1,1-1.8
												c0.1-0.7,0.1-1.4-0.2-2c-0.2-0.6-0.6-1.2-1.1-1.7c-0.5-0.5-1-1-1.5-1.4c-0.6-0.4-1.1-0.8-1.7-1.1
												c-1.2-0.6-2.5-1.1-3.8-1.5C46.1,72.6,44.7,72.5,43.4,72.7z"/>
										</g>
										<g>
											
												<ellipse transform="matrix(0.3798 -0.9251 0.9251 0.3798 -37.7169 115.0266)" class="st7" cx="66.9" cy="85.6" rx="2.8" ry="6.2"/>
										</g>
										<g>
											<path class="st7" d="M73.2,88.1c-0.2,0.5-0.6,1-1.1,1.3c-1.4,0.7-3.8,0.5-6.2-0.5c-3.6-1.4-5.9-3.8-5.3-5.6l0,0
												c0.2-0.5,0.6-1,1.1-1.3c1.4-0.7,3.8-0.5,6.2,0.5l0,0C71.6,83.8,73.9,86.3,73.2,88.1L73.2,88.1z M61.7,83.5L61.7,83.5
												c-0.3,1,1.5,3,4.6,4.3c2.4,1,4.5,0.9,5.4,0.5c0.3-0.2,0.5-0.3,0.6-0.6l0,0c0.3-1-1.5-3-4.6-4.3l0,0
												c-2.4-1-4.5-0.9-5.4-0.5C61.9,83.1,61.7,83.3,61.7,83.5z"/>
										</g>
										<g>
											<path class="st7" d="M62.4,80.2c0.3-0.1,0.7-0.2,1-0.3c0.4-0.1,0.7-0.1,1-0.2c0.3-0.1,0.7-0.1,1.1,0
												c0.3,0,0.7,0.1,1.1,0.1c1.4,0.2,2.8,0.6,4.2,1.2c0.7,0.3,1.3,0.7,1.9,1.1c0.6,0.4,1.2,0.9,1.7,1.5
												c0.1,0.2,0.3,0.3,0.4,0.5l0.2,0.2c0.1,0.1,0.1,0.2,0.2,0.3c0.2,0.3,0.4,0.7,0.6,1.1c0.3,0.8,0.5,1.8,0.3,2.7
												c-0.2,0.9-0.6,1.8-1.3,2.4c-0.3,0.3-0.7,0.6-1.1,0.8c-0.2,0.1-0.4,0.2-0.6,0.3c-0.2,0.1-0.4,0.1-0.6,0.2
												c-0.8,0.2-1.6,0.3-2.4,0.2c-0.4,0-0.7-0.1-1.1-0.1c-0.2-0.1-0.3-0.1-0.6-0.1C68.1,92,68,92,67.8,92s-0.3-0.1-0.5-0.2
												c-0.2-0.1-0.3-0.1-0.5-0.2c-0.3-0.1-0.7-0.2-1-0.4c-0.2-0.1-0.3-0.2-0.5-0.2c-0.2-0.1-0.3-0.2-0.5-0.2
												c-0.3-0.2-0.6-0.3-0.9-0.6c-0.3-0.2-0.6-0.4-0.9-0.6c-0.3-0.2-0.6-0.5-0.8-0.7c-0.3-0.2-0.5-0.5-0.7-0.7
												c-0.2-0.3-0.5-0.5-0.6-0.9c1,1,2.1,1.7,3.4,2.3c0.6,0.3,1.3,0.6,1.9,0.8c0.6,0.2,1.3,0.4,2,0.5c0.7,0.1,1.4,0.2,2,0.2
												s1.4-0.1,2-0.3c0.2-0.1,0.3-0.1,0.5-0.2c0.2-0.1,0.3-0.1,0.5-0.2c0.3-0.2,0.6-0.4,0.8-0.6c0.5-0.5,0.8-1.1,1-1.8
												c0.1-0.7,0.1-1.4-0.2-2c-0.2-0.6-0.6-1.2-1.1-1.7c-0.5-0.5-1-1-1.5-1.4c-0.6-0.4-1.1-0.8-1.7-1.1
												c-1.2-0.6-2.5-1.1-3.8-1.5C65.1,80.1,63.7,79.9,62.4,80.2z"/>
										</g>
										<g>
											<polygon class="st7" points="38.4,93.7 40.1,80.4 40.1,93.9 											"/>
										</g>
										<g>
											<path class="st7" d="M37.3,93.2l2-18.2c0.1-0.9-0.9-1.5-1.7-1.1l-1.5,0.3c0,0-0.4,3-2.3,3.3c-1.9,0.3-1.5,3.6-1,3.8
												c0.9,0.1,2.7-2.2,2.7-2.2s-0.2,1-1.3,2.5l-1.1,9L37.3,93.2z"/>
										</g>
										<g>
											<path class="st7" d="M33.6,68.5l0.7-4l3.6-0.4l-1.5,10.5C36,72.5,35,70.4,33.6,68.5z"/>
										</g>
										<g>
											<path class="st7" d="M53.7,61.7l-2.7,11.8c0,0,3.1,1,4.6,3.4c1.5,2.4,0.7,2.4,0.7,2.4s1.9,0.2-1.4-5.2
												c0,0,1.3,0.9,2.3,2.2L60.5,62L53.7,61.7z"/>
										</g>
										<g>
											<polygon class="st7" points="62.1,63.8 59.5,75.9 63.9,72.4 64.8,67.3 											"/>
										</g>
										<g>
											<polygon class="st7" points="54.8,83.6 52.2,93.2 49.3,93.4 51.6,84.4 											"/>
										</g>
										<g class="st8">
											<g class="st9">
												<path class="st10" d="M64.5,53.7c0.1-2.9,0.4-5.8,0.7-8.7c0.3-2.8,0.6-5.8,1-8.6s0.8-5.7,1.3-8.6c0.5-2.8,1-5.7,1.5-8.5
													c-0.1,2.9-0.4,5.8-0.7,8.7c-0.3,2.8-0.6,5.8-1,8.6c-0.4,2.8-0.8,5.7-1.3,8.6C65.5,48,65,50.8,64.5,53.7z"/>
											</g>
											<g class="st9">
												<path class="st10" d="M69.1,17c-0.1-0.9-0.1-1.7,0-2.6c0.1-0.9,0.1-1.7,0.2-2.5c0.1-0.9,0.2-1.7,0.4-2.5
													c0.2-0.9,0.3-1.7,0.6-2.5c0.1,0.9,0.1,1.7,0,2.6c-0.1,0.9-0.1,1.7-0.2,2.5c-0.1,0.9-0.2,1.7-0.4,2.5S69.3,16.2,69.1,17z
													"/>
											</g>
											<g class="st9">
												<path class="st10" d="M13,59.8c3.5-0.5,7-0.9,10.5-1.2s7-0.6,10.5-0.9c3.5-0.2,7-0.5,10.5-0.6c3.5-0.2,7.1-0.3,10.6-0.3
													c-3.5,0.5-7,0.9-10.5,1.2c-3.5,0.3-7,0.6-10.5,0.9c-3.5,0.3-7,0.5-10.5,0.6C20.1,59.7,16.6,59.8,13,59.8z"/>
											</g>
										</g>
										<g class="st8">
											<polygon class="st11" points="27.7,84.4 28.1,77.6 29.5,78.1 28.9,86.2 											"/>
										</g>
									</g>
									<path class="st7" d="M80.2,57.6c-0.2,1.4-0.2,3.1,0.1,5c0.6,3.4,2,7,3.6,6.7c0.6-0.1,1-0.6,1.3-1.5c0.5-1.5,0.5-3.8,0.1-6
										c-0.3-1.8-0.8-3.5-1.4-4.7c-0.7-1.4-1.5-2-2.2-1.9C81,55.2,80.5,56.1,80.2,57.6z M81.9,55.8c-0.1,0-0.1,0-0.1,0.1
										C81.8,55.8,81.8,55.8,81.9,55.8L81.9,55.8z"/>
									<path class="st7" d="M76.3,30.9c-0.9,1.1-1.1,3.8-0.5,6.9c0.6,3.5,2.2,7.1,3.9,6.9c0.3-0.1,0.7-0.2,0.9-0.6
										c0.2-0.2,0.3-0.6,0.5-1c0.5-1.4,0.5-3.5,0.1-5.9c-0.6-3.5-2.2-7.1-3.9-6.9C76.9,30.4,76.5,30.6,76.3,30.9z"/>
								</g>
							</g>
						</g>
					</g>
				</g>
			</g>
		</g>
	</g>
</g>
</svg>
