<svg id="Слой_1" data-name="Слой 1" xmlns="http://www.w3.org/2000/svg" xmlns:xlink="http://www.w3.org/1999/xlink" viewBox="0 0 333.34 62.38"><defs><style>.cls-1{fill:none;}.cls-2{fill:#47babb;}.cls-3{fill:#fff;}.cls-4{clip-path:url(#clip-path);}</style><clipPath id="clip-path"><path class="cls-1" d="M357.6,140.13c-1.07-1.25-9.06-10.49-21-14.65-7.24-2.52-12.94-2.07-24.34-1.17-8.66.68-16.79,1.32-26.77,5-8.75,3.24-23.29,8.6-31.25,22.73a52.53,52.53,0,0,0-5.87,19,61.64,61.64,0,0,0,.13,16.7c1.76,13.3,8.87,42.57,20.46,80.49-9.66,2.92-13.82,11.48-11.72,16.65,1.4,3.42,5.62,5.57,10.22,6.05a7.28,7.28,0,0,0,.12,4.73c1.5,3.81,6.84,6.15,13.15,5.19.93,2.3,2.41,6,4.19,10.59,6.37,16.32,7.11,19.45,10.21,25.31,5,9.42,7.47,14.13,11.54,16.24,9.17,4.77,23.24,1.15,28.85,5.26a14.26,14.26,0,0,0,4.68,2.38,14.54,14.54,0,0,0,5,.53,51.24,51.24,0,0,0,17.49-7c3.54-2.26,8.29-5.3,11.93-10.6,7-10.25,2.63-18.42,8.43-37.91a96.87,96.87,0,0,1,3.39-9.51c-4.12-22.95-6.54-41.55-8-54.28-2.22-19.55-3.15-30.13-3.15-30.13-2.23-25.19-1.88-32.85-5.86-46.66C364.73,148.82,359.26,142.09,357.6,140.13Z"/></clipPath></defs><path class="cls-2" d="M73.91,0A31.21,31.21,0,0,0,43.76,23.17q-.18.69-.33,1.38a30.91,30.91,0,0,0-.71,6.64,31.39,31.39,0,0,0,.59,6.1c.07.31.13.62.2.93A31.2,31.2,0,1,0,73.91,0Zm0,53.91A22.72,22.72,0,1,1,96.63,31.19,22.72,22.72,0,0,1,73.91,53.91Z"/><path class="cls-3" d="M25.5,44.18h8.57L46.93,31.34,34.09,18.48H8.38L0,9.9l38.37,0L59.78,31.35,38.35,52.76H25.5Zm-4.29,8.57,0-30H10.52l0,30Z"/><path class="cls-3" d="M107,18.52,98.78,10l31.76,0,12.85,12.85L137,29.25H124.11l6.43-6.42-4.28-4.29ZM119.81,52.8H109.1l0-30h10.71Zm4.3-19.28v8.57h8.57l10.7,10.71h12.86L137,33.53Z"/><path class="cls-3" d="M145.52,52.81l0-42.84h10.71l0,42.84Zm19.29-25.69L182,10h12.86L173.37,31.41l21.41,21.43H181.93L164.8,35.69h-4.28V27.12Z"/><path class="cls-2" d="M72.64,18.5H59.79L51.47,9.92l25.46,0L119.75,52.8H106.9ZM61.93,22.78l0,30H72.62V42.07H91.91L83.35,33.5H72.63V22.79Z"/><path class="cls-2" d="M213.64,44.18h8.57l12.86-12.85L222.22,18.48h-25.7L188.14,9.9l38.37,0,21.41,21.43L226.49,52.76H213.64Zm-4.29,8.57,0-30H198.66l0,30Z"/><path class="cls-2" d="M247.93,18.5l-8.26-8.58,59.67,0-8.57,8.56Zm2.12,34.27,38.56,0L280,44.22H260.77V35.64h10.71l8.57-8.57H260.78V22.79H250.07Z"/><path class="cls-2" d="M301.48,10V29.24L320.76,10h12.86L290.75,52.79l0-42.84Z"/><polygon class="cls-2" points="333.35 27.69 333.35 53.14 307.89 53.14 315.61 45.41 325.62 45.41 325.62 35.41 333.35 27.69"/></svg>