<?xml version="1.0" encoding="utf-8"?>
<!-- Generator: Adobe Illustrator 26.0.1, SVG Export Plug-In . SVG Version: 6.00 Build 0)  -->
<svg version="1.1" id="Слой_1" xmlns="http://www.w3.org/2000/svg" xmlns:xlink="http://www.w3.org/1999/xlink" x="0px" y="0px"
	 viewBox="0 0 128 128" style="enable-background:new 0 0 128 128;" xml:space="preserve">
<style type="text/css">
	.st0{clip-path:url(#SVGID_00000062900189665138707630000013925326887156053122_);}
	.st1{fill:#FFF200;}
	.st2{fill:#FFF980;}
	.st3{fill:#80DBF5;}
	.st4{fill:#FF80C8;}
	.st5{fill:#FF0090;}
	.st6{fill:#00B7EB;}
	.st7{fill:#18181B;}
	.st8{display:none;}
	.st9{display:inline;}
	.st10{fill:#110E0E;}
	.st11{display:inline;fill:#110E0E;}
</style>
<g>
	<g>
		<g>
			<g>
				<g>
					<defs>
						<path id="SVGID_1_" d="M117.2,114.7c-0.8,2.3-2.1,4.4-3.9,6.1c-2.6,2.6-6.2,4-9.8,4.1L53,126.1c-6.5,0.1-12.4-2.6-16.3-7.6
							L11,86.9c-3.4-4.1-4.7-9.4-3.5-14.6l11.2-53.3c0.8-3.7,3.7-6.6,7.5-7.2l55.6-9.7c3.1-0.5,6.2-0.1,9,1.3c2.8,1.4,5,3.6,6.5,6.5
							l21.3,42.5c1.8,3.4,2.5,7.2,2.3,11l-2.8,47.7C117.8,112.4,117.6,113.5,117.2,114.7z"/>
					</defs>
					<clipPath id="SVGID_00000026138523320124677730000001069177427968486569_">
						<use xlink:href="#SVGID_1_"  style="overflow:visible;"/>
					</clipPath>
					<g style="clip-path:url(#SVGID_00000026138523320124677730000001069177427968486569_);">
						<path class="st1" d="M128.4,148.8c-39.6,2.5-79,4.9-118.5,7.5l73-82.7C98.1,98.6,113.3,123.6,128.4,148.8z"/>
						<polygon class="st2" points="5.3,78.3 10.2,156.2 83.1,73.5 						"/>
						<path class="st3" d="M92.2-5.6c-3.1,26.4-6.1,52.6-9.2,78.8L0.2,0.2C30.9-1.7,61.5-3.7,92.2-5.6z"/>
						<path class="st4" d="M92.2-5.6c-3.1,26.2-6.3,52.5-9.6,78.7c30.4-18.6,60.7-37.2,91.1-55.8C146.5,9.6,119.4,2,92.2-5.6z"/>
						<path class="st5" d="M129.7,149.9c8.3-41,16.5-81.8,24.8-122.8c-23.9,15.4-48,30.6-71.9,46C98.3,98.7,114.1,124.3,129.7,149.9
							z"/>
						<polygon class="st6" points="5,77.9 82.9,73 0.2,0.1 						"/>
					</g>
				</g>
			</g>
		</g>
	</g>
	<g>
		<g>
			<g>
				<g>
					<g>
						<g>
							<g>
								<g>
									<g>
										<g>
											
												<ellipse transform="matrix(0.3798 -0.9251 0.9251 0.3798 -63.4222 89.3417)" class="st7" cx="34.9" cy="92" rx="3.6" ry="8"/>
										</g>
										<g>
											<path class="st7" d="M117.2,114.7c-0.8,2.3-2.1,4.4-3.9,6.1c-2.6,2.6-6.2,4-9.8,4.1L53,126.1c-6.5,0.1-12.4-2.6-16.3-7.6
												L11,86.9c-3.4-4.1-4.7-9.4-3.5-14.6l11.2-53.3c0.8-3.7,3.7-6.6,7.5-7.2l55.6-9.7c3.1-0.5,6.2-0.1,9,1.3
												c2.8,1.4,5,3.6,6.5,6.5l21.3,42.5c1.8,3.4,2.5,7.2,2.3,11l-2.8,47.7C117.8,112.4,117.6,113.5,117.2,114.7z M8.5,72.6
												l1.2,0.3c-0.9,4.5,0.1,9.2,3.1,12.8l25.6,31.5c3.6,4.4,8.9,6.9,14.6,6.7l50.7-1.2c6.5-0.1,11.9-5.3,12.3-11.8l2.8-47.7
												c0.3-3.5-0.5-6.9-2.1-10L95,10.9C92.5,6,87.2,3.4,81.9,4.3L26.3,14c-2.8,0.5-5.2,2.6-5.8,5.6L9.4,72.8L8.5,72.6z"/>
										</g>
										<g>
											<path class="st7" d="M107.5,121.9c-0.1,0.3-0.3,0.5-0.4,0.8c-0.8,1.4-2.5,1.9-3.6,1.9l-49.6,1.2c-5.9,0.1-12-0.8-16.7-7
												L12.4,86.5c-1-1.4-1.3-3.1-0.6-4.7c0.8-1.7,2.2-2.6,3.9-2.7l57.8-4.8c4.1-0.4,8.1,1.7,10.3,5.4l23.3,38.6l0,0
												C107.8,119.9,107.8,121,107.5,121.9z M13,82.7c-0.3,0.9-0.1,2.1,0.5,2.8l24.8,32.3c4,5.3,9.2,6.5,15.5,6.3l49.5-1.2
												c0.8,0,1.9-0.4,2.5-1.3c0.4-0.8,0.4-1.7-0.1-2.8L82.6,80.5c-1.9-3.1-5.4-4.9-9-4.7l-57.6,4.7c-1.2,0.1-2.2,0.8-2.6,1.9
												C13.1,82.4,13.1,82.5,13,82.7z"/>
										</g>
										<g>
											<path class="st7" d="M117.1,114.1c-0.4,1.4-1.6,2.5-3,2.7c-1.8,0.4-3.6-0.3-4.5-1.9l-22.4-38c-1.7-2.8-2.3-6.2-1.9-9.6
												l7-56.2c0.1-0.9,0.9-1.7,1.9-1.8c1-0.3,1.9,0.3,2.3,0.9c5.4,10.5,20.7,40.7,22,43.4c1.4,3,1.7,6.9,1.8,7v0.1l-3.1,52.2
												C117.2,113.3,117.2,113.7,117.1,114.1z M93.8,11.2l-7,56.2c-0.4,3,0.3,5.9,1.8,8.5l22.2,38c0.8,1.3,1.9,1.4,3,1.3
												c0.9-0.3,1.9-0.9,2.1-2.5l3.1-52.2c0-0.4-0.4-3.9-1.6-6.5c-1.3-2.7-16.5-33-22-43.4c-0.1-0.3-0.4-0.3-0.8-0.3
												C94.2,10.7,93.8,11.1,93.8,11.2L93.8,11.2z"/>
										</g>
										<g>
											<g>
												<path class="st7" d="M80.4,65.9c-0.8,2.5-3.1,4.4-5.8,4.5l-60.9,4.4c-1.4,0.3-3-0.5-4-1.7c-1-1.2-1.4-2.8-1.2-4.4
													l10.9-49.8c0.8-3.5,3.6-6.2,7.2-6.9l56.1-9.3c1.4-0.3,3,0.3,4,1.3c1.2,1,1.7,2.5,1.4,4l-7.6,56.6
													C80.6,65.1,80.5,65.5,80.4,65.9z M21.2,18.5C21,18.8,21,18.9,21,19.2L10.2,69.1c-0.3,1.2,0.1,2.2,0.8,3
													c0.8,0.8,1.8,1.3,2.8,1.2l60.9-4.4c2.3-0.1,4.4-1.9,4.7-4.4l7.6-56.6c0.1-1-0.3-2.1-0.9-2.7c-0.8-0.8-1.8-1-2.8-0.9
													L27,13.6C24.1,14,21.9,16,21.2,18.5z"/>
											</g>
											<g>
												<g>
													
														<ellipse transform="matrix(0.5746 -0.8184 0.8184 0.5746 -7.3773 38.5988)" class="st7" cx="33.4" cy="26.4" rx="7.5" ry="5"/>
												</g>
												<g>
													<path class="st7" d="M40.3,20.1c0.4,0.4,0.9,0.8,1.2,1.3s0.5,1.2,0.6,1.7c0.1,0.5,0.3,1.2,0.3,1.8s0,1.3-0.1,1.8
														c-0.1,0.3-0.1,0.6-0.1,0.9c0,0.1-0.1,0.3-0.1,0.4c-0.1,0.1-0.1,0.3-0.1,0.4l-0.1,0.4c-0.1,0.1-0.1,0.3-0.1,0.4
														c-0.1,0.1-0.1,0.3-0.3,0.4l-0.3,0.4c-0.1,0.1-0.1,0.3-0.3,0.4l-0.3,0.4c-0.1,0.3-0.3,0.5-0.5,0.8
														c-0.4,0.5-0.8,0.9-1.2,1.4c-0.4,0.4-0.9,0.9-1.4,1.3s-1,0.8-1.7,1c-0.6,0.3-1.2,0.6-1.8,0.8c-0.1,0.1-0.3,0.1-0.4,0.1
														c-0.1,0-0.3,0.1-0.5,0.1c-0.3,0.1-0.6,0.1-0.9,0.1c-0.1,0-0.4,0-0.5,0s-0.4,0-0.5,0c-0.4,0-0.6-0.1-1-0.1
														c-0.6-0.1-1.3-0.4-1.8-0.8s-1-0.9-1.3-1.4c-0.4-0.5-0.5-1.2-0.6-1.7c0.3,0.5,0.6,0.9,0.9,1.3c0.4,0.4,0.9,0.6,1.3,0.9
														c1,0.4,2.2,0.5,3.1,0.3c1-0.3,2.1-0.6,3-1.2c0.9-0.6,1.8-1.3,2.5-2.1c0.4-0.4,0.8-0.8,1-1.3c0.1-0.3,0.3-0.4,0.4-0.6
														l0.3-0.4c0.1-0.1,0.1-0.3,0.3-0.4c0.5-0.9,0.9-1.9,1.3-3c0.1-0.3,0.1-0.5,0.3-0.8c0.1-0.3,0.1-0.5,0.1-0.8
														c0.1-0.5,0.1-1.2,0.1-1.7s0-0.8-0.1-1.3C40.8,21,40.5,20.5,40.3,20.1z"/>
												</g>
											</g>
											<g>
												<g>
													
														<ellipse transform="matrix(0.5746 -0.8184 0.8184 0.5746 12.3961 65.5585)" class="st7" cx="69.3" cy="20.9" rx="7.5" ry="5"/>
												</g>
												<g>
													<path class="st7" d="M64.6,15.2c1.2-1.8,2.8-3.2,4.9-4c1.2-0.4,2.3-0.6,3.5-0.4c1.2,0.3,2.5,0.6,3.5,1.6
														c0.5,0.4,0.9,0.9,1.3,1.4c0.4,0.5,0.6,1.2,0.9,1.7c0.4,1.2,0.6,2.5,0.6,3.6c0,0.6-0.1,1.2-0.3,1.8
														c-0.1,0.6-0.3,1.2-0.4,1.7c-0.4,1.2-0.9,2.2-1.6,3.1c-0.6,0.9-1.4,1.8-2.3,2.6s-1.8,1.4-3,1.9c-1.2,0.5-2.3,0.9-3.5,1
														c-0.6,0.1-1.3,0.1-1.9,0c-0.6-0.1-1.3-0.3-1.8-0.4c-1.2-0.5-2.3-1.3-3-2.3c-0.1-0.1-0.1-0.3-0.3-0.4L61,27.9l-0.1-0.3
														l-0.1-0.3c-0.1-0.1-0.1-0.3-0.1-0.4c-0.1-0.1-0.1-0.3-0.1-0.4c-0.1-0.1-0.1-0.3-0.1-0.4c-0.1-0.3-0.1-0.6-0.1-0.9v-0.4
														c0-0.1,0-0.3,0-0.4c0-0.3,0-0.6,0.1-0.8c0.1-0.6,0.1-1.2,0.3-1.7c0.1-0.3,0.1-0.5,0.3-0.8s0.3-0.5,0.3-0.8l0.4-0.6
														c0.1-0.3,0.3-0.4,0.4-0.6c-0.4,0.9-0.6,1.9-0.8,3c-0.1,1-0.1,2.1,0.1,3c0.1,0.3,0.1,0.5,0.3,0.8c0,0.1,0.1,0.3,0.1,0.4
														c0.1,0.1,0.1,0.3,0.1,0.4l0.1,0.4l0.1,0.1l0.1,0.1l0.3,0.3c0.1,0.1,0.1,0.3,0.3,0.3c0.6,0.8,1.4,1.4,2.5,1.7
														c0.9,0.3,1.9,0.4,3,0.3c1-0.1,1.9-0.5,2.8-0.9c1.8-0.9,3.4-2.5,4.4-4.1c1.2-1.7,1.8-3.6,1.9-5.7c0.1-1,0-2.1-0.4-3
														c-0.3-0.9-0.8-1.8-1.6-2.6c-0.8-0.8-1.7-1.2-2.6-1.4c-0.9-0.3-2.1-0.1-3,0.1C67.7,12.6,66,13.8,64.6,15.2z"/>
												</g>
											</g>
											<g>
												<g>
													
														<ellipse transform="matrix(0.5746 -0.8184 0.8184 0.5746 -17.7135 75.545)" class="st7" cx="63.8" cy="54.8" rx="7.5" ry="5"/>
												</g>
												<g>
													<path class="st7" d="M70.7,48.5c0.4,0.4,0.9,0.8,1.2,1.3c0.3,0.5,0.5,1.2,0.6,1.7c0.1,0.6,0.3,1.2,0.3,1.8
														c0,0.6,0,1.3-0.1,1.8c-0.1,0.3-0.1,0.6-0.1,0.9c0,0.1-0.1,0.3-0.1,0.4c-0.1,0.1-0.1,0.3-0.1,0.4l-0.1,0.4
														C72,57.3,72,57.5,72,57.6c-0.1,0.1-0.1,0.3-0.3,0.4l-0.3,0.4c-0.1,0.1-0.1,0.3-0.3,0.4l-0.3,0.4
														c-0.1,0.3-0.3,0.5-0.5,0.8c-0.4,0.5-0.8,0.9-1.2,1.4c-0.4,0.4-0.9,0.9-1.4,1.3c-0.5,0.4-1,0.8-1.7,1
														c-0.6,0.3-1.2,0.6-1.8,0.8c-0.1,0.1-0.3,0.1-0.4,0.1c-0.1,0.1-0.3,0.1-0.5,0.1c-0.3,0.1-0.6,0.1-0.9,0.1
														c-0.1,0-0.4,0-0.5,0s-0.4,0-0.5,0c-0.4,0-0.6-0.1-1-0.1c-0.6-0.1-1.3-0.4-1.8-0.8c-0.5-0.4-1-0.9-1.3-1.4
														c-0.4-0.5-0.5-1.2-0.6-1.7c0.3,0.5,0.6,0.9,0.9,1.3c0.4,0.4,0.9,0.6,1.3,0.9c1,0.4,2.2,0.5,3.1,0.3
														c1-0.3,2.1-0.6,3-1.2c0.9-0.6,1.8-1.3,2.5-2.1c0.4-0.4,0.8-0.8,1-1.3c0.1-0.3,0.3-0.4,0.4-0.6l0.3-0.4
														c0.1-0.1,0.1-0.3,0.3-0.4c0.5-0.9,0.9-1.9,1.3-3c0.1-0.3,0.1-0.5,0.3-0.8c0.1-0.3,0.1-0.5,0.1-0.8
														c0.1-0.5,0.1-1.2,0.1-1.7c0-0.5-0.1-1.2-0.3-1.7C71.2,49.4,70.9,48.9,70.7,48.5z"/>
												</g>
											</g>
											<g>
												<g>
													
														<ellipse transform="matrix(0.5746 -0.8184 0.8184 0.5746 -36.4179 47.8566)" class="st7" cx="27.8" cy="59" rx="7.5" ry="5"/>
												</g>
												<g>
													<path class="st7" d="M34.6,52.7c0.4,0.4,0.9,0.8,1.2,1.3c0.3,0.5,0.5,1.2,0.6,1.7c0.1,0.6,0.3,1.2,0.3,1.8
														c0,0.6,0,1.3-0.1,1.8c-0.1,0.3-0.1,0.6-0.1,0.9c0,0.1-0.1,0.3-0.1,0.4c0,0.1-0.1,0.3-0.1,0.4L36,61.3
														c-0.1,0.1-0.1,0.3-0.1,0.4c-0.1,0.1-0.1,0.3-0.3,0.4l-0.3,0.4c-0.1,0.1-0.1,0.3-0.3,0.4l-0.3,0.4
														c-0.1,0.3-0.3,0.5-0.5,0.8c-0.4,0.5-0.8,0.9-1.2,1.4c-0.4,0.4-0.9,0.9-1.4,1.3c-0.5,0.4-1,0.8-1.7,1
														c-0.6,0.3-1.2,0.6-1.8,0.8c-0.1,0.1-0.3,0.1-0.4,0.1c0,0.5-0.1,0.5-0.4,0.5c-0.3,0.1-0.6,0.1-0.9,0.1
														c-0.1,0-0.4,0-0.5,0c-0.1,0-0.4,0-0.5,0c-0.4,0-0.6-0.1-1-0.1c-0.6-0.1-1.3-0.4-1.8-0.8s-1-0.9-1.3-1.4
														c-0.4-0.5-0.5-1.2-0.6-1.7c0.3,0.5,0.6,0.9,0.9,1.3c0.4,0.4,0.9,0.6,1.3,0.9c1,0.4,2.2,0.5,3.1,0.3
														c1-0.3,2.1-0.6,3-1.2c0.9-0.6,1.8-1.3,2.5-2.1c0.4-0.4,0.8-0.8,1-1.3c0.1-0.3,0.3-0.4,0.4-0.6l0.3-0.4
														c0.1-0.1,0.1-0.3,0.3-0.4c0.5-0.9,0.9-1.9,1.3-3c0.1-0.3,0.1-0.5,0.3-0.8c0.1-0.3,0.1-0.5,0.1-0.8
														c0.1-0.5,0.1-1.2,0.1-1.7c0-0.5-0.1-1.2-0.3-1.7C35.1,53.7,35,53.2,34.6,52.7z"/>
												</g>
											</g>
											<g>
												<g>
													
														<ellipse transform="matrix(0.5746 -0.8184 0.8184 0.5746 -13.3492 56.7698)" class="st7" cx="47.9" cy="41.2" rx="7.5" ry="5"/>
												</g>
												<g>
													<path class="st7" d="M50.6,32c0.3-0.1,0.6-0.1,0.9-0.1c0.3,0,0.6,0,1,0c0.6,0.1,1.3,0.3,1.9,0.6
														c0.6,0.4,1.2,0.8,1.7,1.4c0.1,0.1,0.3,0.3,0.4,0.4c0.1,0.1,0.3,0.3,0.3,0.4c0.1,0.1,0.3,0.3,0.3,0.5
														c0.1,0.1,0.1,0.4,0.3,0.5c0.1,0.4,0.3,0.6,0.4,1c0.1,0.1,0.1,0.4,0.1,0.5c0,0.1,0.1,0.4,0.1,0.5
														c0.1,0.8,0.1,1.4,0.1,2.2c-0.1,0.8-0.1,1.4-0.4,2.1c-0.1,0.6-0.4,1.3-0.8,1.9c-0.3,0.6-0.6,1.3-1,1.8
														c-0.1,0.1-0.3,0.3-0.3,0.4c-0.1,0.1-0.3,0.3-0.3,0.4L55.2,47C55,47.1,55,47.1,55,47.2l-0.1,0.3
														c-0.3,0.3-0.4,0.5-0.8,0.8c-0.1,0.1-0.3,0.3-0.4,0.4c-0.1,0.1-0.3,0.3-0.4,0.3L53,49.2c-0.1,0.1-0.3,0.3-0.4,0.3
														c-0.1,0-0.3,0.3-0.4,0.3L51.8,50c-0.6,0.3-1.3,0.6-1.9,0.8c-0.6,0.1-1.3,0.3-2.1,0.4c-0.4,0-0.6,0-1,0
														c-0.1,0-0.4-0.1-0.5-0.1c-0.1,0-0.3-0.1-0.5-0.1l-0.5-0.1c-0.1-0.1-0.3-0.1-0.4-0.1l-0.3-0.1c-0.1,0-0.1-0.1-0.3-0.1
														c-0.1-0.1-0.3-0.1-0.4-0.3c1.2,0.3,2.5,0.3,3.6,0c0.6-0.1,1.2-0.4,1.7-0.6c0.3-0.1,0.5-0.3,0.8-0.4
														c0.3-0.1,0.5-0.3,0.8-0.4c1-0.6,1.9-1.4,2.6-2.5c0.8-0.9,1.4-1.9,1.9-3.1c0.5-1.2,0.8-2.3,0.9-3.5
														c0.1-1.2,0.1-2.5-0.3-3.6c-0.1-0.6-0.4-1.2-0.8-1.7c-0.3-0.5-0.8-0.9-1.2-1.3c-0.4-0.4-0.9-0.6-1.6-0.9
														C51.8,32.1,51.3,32,50.6,32z"/>
												</g>
											</g>
											<g>
												<path class="st7" d="M22.5,70.2l-8.9,0.6c-0.4,0-0.8-0.3-0.9-0.4c-0.1-0.1-0.4-0.5-0.3-0.9l2.5-11.5
													c-0.1,0.8-1.4,9.8-0.8,11.1C14.8,70.4,21.9,70.4,22.5,70.2z"/>
											</g>
											<g>
												<path class="st7" d="M40.9,13.6c-0.4,0.1-14.1,3.5-15.5,6.5c-1.6,2.8-6.1,17.8-6.1,17.8l4-18.1c0-0.1,0.1-0.3,0.1-0.4
													c0.6-1.8,2.1-3.1,4-3.4L40.9,13.6z"/>
											</g>
											<g>
												<polygon class="st7" points="48.8,16.9 41.6,22.8 41.8,25.1 												"/>
											</g>
											<g>
												<path class="st7" d="M29.7,35.6c0,0-3.5,3-4.7,4c-1.3,1,0.1,2.2,0.8,1.9L20,47.1l-2.1,9.4c0,0,15.6-14.9,17.1-16
													c1.4-1.3,0.1-2.6-0.4-2.6l3.9-4l-5.6,1.9L29.7,35.6z"/>
											</g>
											<g>
												<path class="st7" d="M57.5,38.3l8.1-8c0,0-3.6-1.2-4.1-3.6L55,33.2C54.9,33.2,57,35.2,57.5,38.3z"/>
											</g>
											<g>
												<path class="st7" d="M80,40.9c-1,7.8-2.1,15.5-3.1,23.3c0,0.1-0.1,0.3-0.1,0.4c-0.3,1-1.3,1.8-2.3,1.8l-25.8,1.9
													L61.6,66l-7-0.4l7.6-1.4c0,0,5-0.6,7-3.5c1.9-2.8,3.1-7.8,3.1-7.8s0.6,0.6,0.3,3c-0.4,2.3-1.8,5.9-1.8,5.9
													s4-2.8,3.5-10.1c0.8-1.4,1.7-3,2.5-4.5C77.8,45.2,78.8,43.1,80,40.9z"/>
											</g>
											<g>
												<path class="st7" d="M84.2,6.9c0.1,0.1,0.3,0.4,0.3,0.8l-3.4,24.7L81,26.9l-9,10.5l-0.6-2.2l-12,11.1L74,29.4l0.6,1.7
													c0,0,4.4-4.7,3.9-11.1c0,0,0.4-5.8-3.4-7.8c-3.6-1.9-13.1,0.8-13.3,0.9l4.5-2.2l-12.8,0.6l29.9-4.9
													C83.8,6.7,84.1,6.8,84.2,6.9z"/>
											</g>
											<g>
												<polygon class="st7" points="33.6,69.5 39.4,67.7 54.1,52.8 41.6,67.9 45.2,68.7 												"/>
											</g>
										</g>
										<g>
											<g>
												<path class="st7" d="M102.5,38.5c0.8,0.5,1.4,1.2,1.9,1.9c0.6,0.8,1,1.6,1.4,2.3c0.8,1.7,1.3,3.5,1.4,5.4
													c0.1,1.9,0.1,3.7-0.3,5.6c-0.3,0.9-0.5,1.8-0.9,2.6c-0.3,0.4-0.4,0.8-0.8,1.2c-0.1,0.1-0.3,0.4-0.5,0.5
													c-0.1,0.1-0.4,0.3-0.6,0.4c0.6-0.6,1-1.4,1.3-2.3c0.3-0.8,0.5-1.7,0.6-2.6c0.3-1.8,0.3-3.5,0.1-5.3
													c-0.3-1.8-0.6-3.5-1.2-5.2C104.4,41.3,103.6,39.7,102.5,38.5z"/>
											</g>
										</g>
										<g>
											<path class="st7" d="M107.1,69c0.3,0.1,0.5,0.3,0.8,0.4c0.1,0.1,0.3,0.1,0.4,0.3c0.1,0.1,0.3,0.1,0.3,0.3
												c0.1,0.1,0.3,0.3,0.3,0.3l0.3,0.3c0.3,0.3,0.4,0.4,0.6,0.6c0.6,0.9,1.3,1.9,1.7,3c0.9,2.2,1.4,4.4,1.7,6.7
												c0,0.6,0.1,1.2,0.1,1.8s-0.1,1.2-0.1,1.8c-0.1,1.2-0.4,2.3-0.9,3.5c-0.3,0.6-0.5,1.2-0.9,1.7c-0.3,0.3-0.4,0.5-0.6,0.8
												c-0.3,0.3-0.5,0.4-0.8,0.6c-0.6,0.3-1.3,0.4-1.9,0.3c-0.3-0.1-0.6-0.3-0.8-0.4c-0.3-0.1-0.4-0.4-0.6-0.6
												c0.4,0.3,0.9,0.5,1.6,0.6c0.1,0,0.3,0,0.4,0c0.1,0,0.3-0.1,0.4-0.1c0.3-0.1,0.5-0.3,0.8-0.4c0.4-0.3,0.8-0.8,1.2-1.3
												c0.3-0.4,0.5-0.9,0.6-1.6c0.4-1,0.5-2.2,0.6-3.2c0.1-1.2,0.1-2.2,0-3.4c-0.1-2.2-0.6-4.4-1.3-6.5c-0.4-1-0.8-2.1-1.3-3
												C108.7,70.5,108,69.6,107.1,69z"/>
										</g>
										<g>
											<path class="st7" d="M113.6,89.4l-1.2,19.3c0,0.1,0,0.1,0,0.1c-0.1,0.1-0.3,0.1-0.3,0.1c-0.1,0-0.3-0.1-0.3-0.1
												l-10.1-17.2l9.3,12.8L113.6,89.4z"/>
										</g>
										<g>
											<path class="st7" d="M91.1,61.5c0.4,2.8,1,7.2,1.3,8.9c0.3,2.5,6.5,15.8,6.6,16l-7.1-12.1c-1.3-2.2-1.8-4.7-1.4-7.1
												L91.1,61.5z"/>
										</g>
										<g>
											<path class="st7" d="M97.4,22.6c1.8,3.6,4,8,6.2,12.4l-5.9-7.9l-4,15.6l2.6-19.8C96.3,22.2,97.2,22,97.4,22.6z"/>
										</g>
										<g>
											<path class="st7" d="M106.7,116.8c-1.7-1.9-3.1-4-4.5-6.2c-1.4-2.2-2.7-4.3-4-6.5c-1.3-2.2-2.5-4.4-3.6-6.6
												c-1.2-2.3-2.3-4.5-3.2-7c1.7,1.9,3.1,4,4.5,6.2c1.4,2.2,2.7,4.3,4,6.5c1.3,2.2,2.5,4.4,3.6,6.6
												C104.7,112.1,105.8,114.3,106.7,116.8z"/>
											<path class="st7" d="M108,116.1c-1.7-1.9-3.1-4-4.5-6.2c-1.4-2.2-2.7-4.3-4-6.5s-2.5-4.4-3.6-6.6c-1.2-2.3-2.3-4.5-3.2-7
												c1.7,1.9,3.1,4,4.5,6.2c1.4,2.2,2.7,4.3,4,6.5c1.3,2.2,2.5,4.4,3.6,6.6C105.9,111.5,107,113.8,108,116.1z"/>
											<path class="st7" d="M109.2,115.6c-1.7-1.9-3.1-4-4.5-6.2c-1.4-2.2-2.7-4.3-4-6.5c-1.3-2.2-2.5-4.4-3.6-6.6
												c-1.2-2.3-2.3-4.5-3.2-7c1.7,1.9,3.1,4,4.5,6.2c1.4,2.2,2.7,4.3,4,6.5s2.5,4.4,3.6,6.6
												C107.1,111,108.1,113.2,109.2,115.6z"/>
										</g>
										<g>
											<path class="st7" d="M43.5,80.6C35.2,81.9,27,83,18.8,84.2c-0.4,0.1-0.6,0.4-0.4,0.8c2.8,4.4,5.6,8.8,8.3,13.3
												c0.1,0.1,0.3,0.4,0.4,0.5c-3.6-4.7-7.5-9.4-11.1-14.1c-0.4-0.4-0.3-0.9-0.3-1.2c0.1-0.3,0.3-0.8,1.2-0.9
												C25.7,81.9,34.6,81.2,43.5,80.6z"/>
										</g>
										<g>
											<path class="st7" d="M80.6,81.6l22.7,37.9c0.3,0.5,0.3,0.8,0.3,0.9c-0.1,0.3-0.4,0.5-0.9,0.5c-9.8,0.3-19.6,0.4-29.3,0.6
												c3.9-0.6,7.8-1.2,11.6-1.8c-2.3-0.4-4.7-0.8-7-1.2c3.6-0.3,7.2-0.4,11-0.6c0,0,9-0.5,8.4-4.1c-0.6-3.6-3.5-7.5-3.5-7.5
												l-4.4-3.2l0.4-2.8c-4.5-8.1-7.5-12.9-9.6-15.8c-0.8-0.9-1.8-2.8-4.1-3.9c-0.8-0.4-1.8-0.5-3.6-0.8
												c-2.2-0.3-3.5-0.3-8.5-0.6C63.3,79,62.7,79,62.3,79c3.7-0.3,7.5-0.6,11.2-0.9C76.4,77.9,79.1,79.3,80.6,81.6z"/>
										</g>
										<g>
											<path class="st7" d="M61.1,121.7l-7.1,0.1c-4,0.1-7.2-0.4-10-1.9c-1-0.6-1.9-1.4-3.7-3.5c-1.9-2.2-4.7-5.4-7.5-9.8
												c3.4,3.5,6.5,5.9,8.7,7.6c4.1,3,8.1,6.1,14.1,7C57.2,121.4,59.2,121.7,61.1,121.7z"/>
										</g>
										<g>
											<polygon class="st7" points="67,79.2 64.8,88.1 65.6,78.9 											"/>
										</g>
										<g>
											<path class="st7" d="M43.3,95.2c-0.3,0.6-0.8,1.3-1.4,1.7c-1.8,0.9-4.9,0.6-8-0.6c-4.7-1.8-7.6-4.9-6.9-7.2l0,0
												c0.3-0.6,0.8-1.3,1.4-1.7c1.8-0.9,4.9-0.6,8,0.6l0,0C40.9,89.8,43.9,92.9,43.3,95.2L43.3,95.2z M28.1,89.4L28.1,89.4
												c-0.4,1.3,1.9,3.9,5.9,5.6c3.1,1.3,5.8,1.2,7,0.6c0.4-0.3,0.6-0.4,0.8-0.8l0,0c0.4-1.3-1.9-3.9-5.9-5.6l0,0
												c-3.1-1.3-5.8-1.2-7-0.6C28.5,88.9,28.3,89,28.1,89.4z"/>
										</g>
										<g>
											<path class="st7" d="M29.2,85.1c0.4-0.1,0.9-0.3,1.3-0.4c0.4-0.1,0.9-0.1,1.3-0.3c0.4-0.1,0.9-0.1,1.4,0
												c0.4,0,0.9,0.1,1.4,0.1c1.8,0.3,3.6,0.8,5.4,1.6c0.9,0.4,1.7,0.9,2.5,1.4c0.8,0.5,1.6,1.2,2.2,1.9
												c0.1,0.3,0.4,0.4,0.5,0.6l0.3,0.3c0.1,0.1,0.1,0.3,0.3,0.4c0.3,0.4,0.5,0.9,0.8,1.4c0.4,1,0.6,2.3,0.4,3.5
												c-0.3,1.2-0.8,2.3-1.7,3.1c-0.4,0.4-0.9,0.8-1.4,1c-0.3,0.1-0.5,0.3-0.8,0.4c-0.3,0.1-0.5,0.1-0.8,0.3
												c-1,0.3-2.1,0.4-3.1,0.3c-0.5,0-0.9-0.1-1.4-0.1c-0.3-0.1-0.4-0.1-0.8-0.1c-0.3-0.1-0.4-0.1-0.6-0.1
												c-0.3-0.1-0.4-0.1-0.6-0.3c-0.3-0.1-0.4-0.1-0.6-0.3c-0.4-0.1-0.9-0.3-1.3-0.5c-0.3-0.1-0.4-0.3-0.6-0.3
												c-0.3-0.1-0.4-0.3-0.6-0.3c-0.4-0.3-0.8-0.4-1.2-0.8c-0.4-0.3-0.8-0.5-1.2-0.8c-0.4-0.3-0.8-0.6-1-0.9
												c-0.4-0.3-0.6-0.6-0.9-0.9c-0.3-0.4-0.6-0.6-0.8-1.2c1.3,1.3,2.7,2.2,4.4,3c0.8,0.4,1.7,0.8,2.5,1
												c0.8,0.3,1.7,0.5,2.6,0.6c0.9,0.1,1.8,0.3,2.6,0.3c0.9,0,1.8-0.1,2.6-0.4c0.3-0.1,0.4-0.1,0.6-0.3
												c0.3-0.1,0.4-0.1,0.6-0.3c0.4-0.3,0.8-0.5,1-0.8c0.6-0.6,1-1.4,1.3-2.3c0.1-0.9,0.1-1.8-0.3-2.6
												c-0.3-0.8-0.8-1.6-1.4-2.2c-0.6-0.6-1.3-1.3-1.9-1.8c-0.8-0.5-1.4-1-2.2-1.4c-1.6-0.8-3.2-1.4-4.9-1.9
												C32.7,84.9,30.9,84.7,29.2,85.1z"/>
										</g>
										<g>
											
												<ellipse transform="matrix(0.3798 -0.9251 0.9251 0.3798 -54.8093 118.844)" class="st7" cx="61.2" cy="100.3" rx="3.6" ry="8"/>
										</g>
										<g>
											<path class="st7" d="M69.4,103.6c-0.3,0.6-0.8,1.3-1.4,1.7c-1.8,0.9-4.9,0.6-8-0.6c-4.7-1.8-7.6-4.9-6.9-7.2l0,0
												c0.3-0.6,0.8-1.3,1.4-1.7c1.8-0.9,4.9-0.6,8,0.6l0,0C67.2,98,70.1,101.1,69.4,103.6L69.4,103.6z M54.4,97.8L54.4,97.8
												c-0.4,1.3,1.9,3.9,5.9,5.6c3.1,1.3,5.8,1.2,7,0.6c0.4-0.3,0.6-0.4,0.8-0.8l0,0c0.4-1.3-1.9-3.9-5.9-5.6l0,0
												c-3.1-1.3-5.8-1.2-7-0.6C54.8,97.1,54.5,97.4,54.4,97.8z"/>
										</g>
										<g>
											<path class="st7" d="M55.4,93.4c0.4-0.1,0.9-0.3,1.3-0.4c0.5-0.1,0.9-0.1,1.3-0.3c0.5-0.1,0.9-0.1,1.4,0
												c0.4,0,0.9,0.1,1.4,0.1c1.8,0.3,3.6,0.8,5.4,1.6c0.9,0.4,1.7,0.9,2.5,1.4c0.8,0.5,1.6,1.2,2.2,1.9
												c0.1,0.3,0.4,0.4,0.5,0.6l0.3,0.3c0.1,0.1,0.1,0.3,0.3,0.4c0.3,0.4,0.5,0.9,0.8,1.4c0.4,1,0.6,2.3,0.4,3.5
												s-0.8,2.3-1.7,3.1c-0.4,0.4-0.9,0.8-1.4,1c-0.3,0.1-0.5,0.3-0.8,0.4c-0.3,0.1-0.5,0.1-0.8,0.3c-1,0.3-2.1,0.4-3.1,0.3
												c-0.5,0-0.9-0.1-1.4-0.1c-0.3-0.1-0.4-0.1-0.8-0.1c-0.3-0.1-0.4-0.1-0.6-0.1s-0.4-0.1-0.6-0.3c-0.3-0.1-0.4-0.1-0.6-0.3
												c-0.4-0.1-0.9-0.3-1.3-0.5c-0.3-0.1-0.4-0.3-0.6-0.3c-0.3-0.1-0.4-0.3-0.6-0.3c-0.4-0.3-0.8-0.4-1.2-0.8
												c-0.4-0.3-0.8-0.5-1.2-0.8c-0.4-0.3-0.8-0.6-1-0.9c-0.4-0.3-0.6-0.6-0.9-0.9c-0.3-0.4-0.6-0.6-0.8-1.2
												c1.3,1.3,2.7,2.2,4.4,3c0.8,0.4,1.7,0.8,2.5,1c0.8,0.3,1.7,0.5,2.6,0.6c0.9,0.1,1.8,0.3,2.6,0.3c0.9,0,1.8-0.1,2.6-0.4
												c0.3-0.1,0.4-0.1,0.6-0.3c0.3-0.1,0.4-0.1,0.6-0.3c0.4-0.3,0.8-0.5,1-0.8c0.6-0.6,1-1.4,1.3-2.3c0.1-0.9,0.1-1.8-0.3-2.6
												c-0.3-0.8-0.8-1.6-1.4-2.2s-1.3-1.3-1.9-1.8c-0.8-0.5-1.4-1-2.2-1.4c-1.6-0.8-3.2-1.4-4.9-1.9
												C58.9,93.3,57.1,93.1,55.4,93.4z"/>
										</g>
										<g>
											
												<ellipse transform="matrix(0.3798 -0.9251 0.9251 0.3798 -48.6774 147.6311)" class="st7" cx="85.8" cy="110.1" rx="3.6" ry="8"/>
										</g>
										<g>
											<path class="st7" d="M93.9,113.3c-0.3,0.6-0.8,1.3-1.4,1.7c-1.8,0.9-4.9,0.6-8-0.6c-4.7-1.8-7.6-4.9-6.9-7.2l0,0
												c0.3-0.6,0.8-1.3,1.4-1.7c1.8-0.9,4.9-0.6,8,0.6l0,0C91.9,107.7,94.8,111,93.9,113.3L93.9,113.3z M79.1,107.3L79.1,107.3
												c-0.4,1.3,1.9,3.9,5.9,5.6c3.1,1.3,5.8,1.2,7,0.6c0.4-0.3,0.6-0.4,0.8-0.8l0,0c0.4-1.3-1.9-3.9-5.9-5.6l0,0
												c-3.1-1.3-5.8-1.2-7-0.6C79.3,106.8,79.1,107.1,79.1,107.3z"/>
										</g>
										<g>
											<path class="st7" d="M80,103.1c0.4-0.1,0.9-0.3,1.3-0.4c0.5-0.1,0.9-0.1,1.3-0.3c0.4-0.1,0.9-0.1,1.4,0
												c0.4,0,0.9,0.1,1.4,0.1c1.8,0.3,3.6,0.8,5.4,1.6c0.9,0.4,1.7,0.9,2.5,1.4c0.8,0.5,1.6,1.2,2.2,1.9
												c0.1,0.3,0.4,0.4,0.5,0.6l0.3,0.3c0.1,0.1,0.1,0.3,0.3,0.4c0.3,0.4,0.5,0.9,0.8,1.4c0.4,1,0.6,2.3,0.4,3.5
												c-0.3,1.2-0.8,2.3-1.7,3.1c-0.4,0.4-0.9,0.8-1.4,1c-0.3,0.1-0.5,0.3-0.8,0.4c-0.3,0.1-0.5,0.1-0.8,0.3
												c-1,0.3-2.1,0.4-3.1,0.3c-0.5,0-0.9-0.1-1.4-0.1c-0.3-0.1-0.4-0.1-0.8-0.1c-0.4-0.1-0.5-0.1-0.8-0.1
												c-0.3,0-0.4-0.1-0.6-0.3c-0.3-0.1-0.4-0.1-0.6-0.3c-0.4-0.1-0.9-0.3-1.3-0.5c-0.3-0.1-0.4-0.3-0.6-0.3
												c-0.3-0.1-0.4-0.3-0.6-0.3c-0.4-0.3-0.8-0.4-1.2-0.8c-0.4-0.3-0.8-0.5-1.2-0.8c-0.4-0.3-0.8-0.6-1-0.9
												c-0.4-0.3-0.6-0.6-0.9-0.9c-0.3-0.4-0.6-0.6-0.8-1.2c1.3,1.3,2.7,2.2,4.4,3c0.8,0.4,1.7,0.8,2.5,1
												c0.8,0.3,1.7,0.5,2.6,0.6c0.9,0.1,1.8,0.3,2.6,0.3s1.8-0.1,2.6-0.4c0.3-0.1,0.4-0.1,0.6-0.3c0.3-0.1,0.4-0.1,0.6-0.3
												c0.4-0.3,0.8-0.5,1-0.8c0.6-0.6,1-1.4,1.3-2.3c0.1-0.9,0.1-1.8-0.3-2.6c-0.3-0.8-0.8-1.6-1.4-2.2s-1.3-1.3-1.9-1.8
												c-0.8-0.5-1.4-1-2.2-1.4c-1.6-0.8-3.2-1.4-4.9-1.9C83.5,102.9,81.7,102.7,80,103.1z"/>
										</g>
										<g>
											<polygon class="st7" points="48.9,120.5 51.1,103.3 51.1,120.8 											"/>
										</g>
										<g>
											<path class="st7" d="M47.5,119.9l2.6-23.5c0.1-1.2-1.2-1.9-2.2-1.4L46,95.3c0,0-0.5,3.9-3,4.3c-2.5,0.4-1.9,4.7-1.3,4.9
												c1.2,0.1,3.5-2.8,3.5-2.8s-0.3,1.3-1.7,3.2l-1.4,11.6L47.5,119.9z"/>
										</g>
										<g>
											<path class="st7" d="M42.7,88l0.9-5.2l4.7-0.5l-1.9,13.6C45.8,93.1,44.6,90.4,42.7,88z"/>
										</g>
										<g>
											<path class="st7" d="M68.7,79.2l-3.5,15.3c0,0,4,1.3,5.9,4.4s0.9,3.1,0.9,3.1s2.5,0.3-1.8-6.7c0,0,1.7,1.2,3,2.8
												l4.3-18.5L68.7,79.2z"/>
										</g>
										<g>
											<polygon class="st7" points="79.6,81.9 76.2,97.5 81.9,93 83.1,86.4 											"/>
										</g>
										<g>
											<polygon class="st7" points="70.1,107.5 66.8,119.9 63,120.1 66,108.5 											"/>
										</g>
										<g class="st8">
											<g class="st9">
												<path class="st10" d="M82.7,68.8c0.1-3.7,0.5-7.5,0.9-11.2c0.4-3.6,0.8-7.5,1.3-11.1c0.5-3.6,1-7.4,1.7-11.1
													c0.6-3.6,1.3-7.4,1.9-11c-0.1,3.7-0.5,7.5-0.9,11.2c-0.4,3.6-0.8,7.5-1.3,11.1c-0.5,3.6-1,7.4-1.7,11.1
													C84,61.5,83.3,65.1,82.7,68.8z"/>
											</g>
											<g class="st9">
												<path class="st10" d="M88.6,21.4c-0.1-1.2-0.1-2.2,0-3.4c0.1-1.2,0.1-2.2,0.3-3.2c0.1-1.2,0.3-2.2,0.5-3.2
													c0.3-1.2,0.4-2.2,0.8-3.2c0.1,1.2,0.1,2.2,0,3.4c-0.1,1.2-0.1,2.2-0.3,3.2c-0.1,1.2-0.3,2.2-0.5,3.2
													C89.1,19.2,88.9,20.4,88.6,21.4z"/>
											</g>
											<g class="st9">
												<path class="st10" d="M16.1,76.7c4.5-0.6,9-1.2,13.6-1.6s9-0.8,13.6-1.2c4.5-0.3,9-0.6,13.6-0.8
													c4.5-0.3,9.2-0.4,13.7-0.4c-4.5,0.6-9,1.2-13.6,1.6s-9,0.8-13.6,1.2s-9,0.6-13.6,0.8C25.3,76.6,20.8,76.7,16.1,76.7z"/>
											</g>
										</g>
										<g class="st8">
											<polygon class="st11" points="35.1,108.5 35.6,99.7 37.4,100.4 36.7,110.8 											"/>
										</g>
									</g>
									<path class="st7" d="M103,73.9c-0.3,1.8-0.3,4,0.1,6.5c0.8,4.4,2.6,9,4.7,8.7c0.8-0.1,1.3-0.8,1.7-1.9
										c0.6-1.9,0.6-4.9,0.1-7.8c-0.4-2.3-1-4.5-1.8-6.1c-0.9-1.8-1.9-2.6-2.8-2.5C104,70.8,103.4,71.9,103,73.9z M105.2,71.5
										c-0.1,0-0.1,0-0.1,0.1C105,71.5,105,71.5,105.2,71.5L105.2,71.5z"/>
									<path class="st7" d="M97.9,39.4c-1.2,1.4-1.4,4.9-0.6,8.9c0.8,4.5,2.8,9.2,5,8.9c0.4-0.1,0.9-0.3,1.2-0.8
										c0.3-0.3,0.4-0.8,0.6-1.3c0.6-1.8,0.6-4.5,0.1-7.6c-0.8-4.5-2.8-9.2-5-8.9C98.7,38.7,98.2,39,97.9,39.4z"/>
								</g>
							</g>
						</g>
					</g>
				</g>
			</g>
		</g>
	</g>
</g>
</svg>
