<?xml version="1.0" encoding="utf-8"?>
<!-- Generator: Adobe Illustrator 26.0.1, SVG Export Plug-In . SVG Version: 6.00 Build 0)  -->
<svg version="1.1" id="Слой_1" xmlns="http://www.w3.org/2000/svg" xmlns:xlink="http://www.w3.org/1999/xlink" x="0px" y="0px"
	 viewBox="0 0 128 128" style="enable-background:new 0 0 128 128;" xml:space="preserve">
<style type="text/css">
	.st0{fill:#010202;}
	.st1{fill:#FFFFFF;}
</style>
<circle class="st0" cx="64" cy="64" r="62.81"/>
<path class="st1" d="M37.68,104.24c-1.03-0.05-2.07-0.02-3.09-0.16c-1.03-0.14-2.08-0.34-3.03-0.73c-0.67-0.27-1.21-0.87-1.79-1.34
	c-1.61-1.33-2.02-3.13-1.93-5.11c0.05-1,0-2.02,0.19-3c0.21-1.1,0.64-2.17,0.97-3.25c0.02-0.07,0.08-0.13,0.1-0.21
	c0.28-1.07,0.53-2.14,0.86-3.19c0.29-0.91,0.67-1.79,1.01-2.68c0.01-0.02,0.02-0.05,0.03-0.07c0.27-0.93,0.51-1.87,0.81-2.79
	c0.31-0.95,0.67-1.88,1.02-2.82c0.04-0.12,0.11-0.23,0.14-0.36c0.29-1.1,0.52-2.21,0.86-3.29c0.28-0.89,0.68-1.74,1.03-2.6
	c0.02-0.05,0.04-0.09,0.05-0.14c0.27-1.04,0.51-2.09,0.83-3.12c0.27-0.9,0.63-1.78,0.95-2.66c0.06-0.17,0.13-0.34,0.18-0.51
	c0.29-1.12,0.53-2.25,0.88-3.35c0.28-0.91,0.68-1.78,1.02-2.67c0.01-0.02,0.01-0.05,0.02-0.08c0.28-1.05,0.52-2.12,0.85-3.16
	c0.28-0.88,0.66-1.72,0.98-2.59c0.29-0.81,0.57-1.63,0.81-2.45c0.28-0.96,0.34-2.03,0.82-2.87c0.44-0.77,0.38-1.56,0.63-2.31
	c0.29-0.87,0.73-1.69,1.06-2.55c0.23-0.61,0.4-1.26,0.59-1.89c0.3-0.99,0.56-1.98,0.89-2.96c0.32-0.96,0.71-1.89,1.06-2.84
	c0.04-0.12,0.07-0.25,0.09-0.37c0.27-1.52,1.1-2.8,1.81-4.13c0.29-0.54,0.5-1.12,0.81-1.65c0.48-0.83,0.99-1.64,1.78-2.25
	c0.51-0.39,0.9-0.95,1.38-1.4c0.32-0.3,0.66-0.65,1.05-0.8c0.75-0.29,1.3-0.9,2.18-1.02c0.98-0.13,1.91-0.65,2.87-0.97
	c0.26-0.09,0.55-0.11,0.84-0.13c1.34-0.09,2.68-0.15,4.01-0.26c0.53-0.04,1.05-0.3,1.56-0.27c0.96,0.07,1.92,0.25,2.87,0.43
	c1.26,0.23,2.58,0.33,3.75,0.8c1.34,0.54,2.73,1.13,3.78,2.22c0.73,0.76,1.47,1.52,2.14,2.33c0.31,0.38,0.5,0.88,0.7,1.34
	c0.49,1.15,0.93,2.31,1.43,3.45c0.35,0.78,0.77,1.53,1.15,2.29c0.01,0.02,0.02,0.05,0.02,0.07c0.23,0.93,0.42,1.88,0.71,2.8
	c0.31,0.97,0.73,1.91,1.09,2.86c0.05,0.12,0.08,0.24,0.11,0.37c0.28,0.97,0.51,1.96,0.86,2.9c0.26,0.7,0.67,1.35,1.02,2.02
	c0.02,0.04,0.03,0.1,0.05,0.15c0.26,0.93,0.48,1.88,0.79,2.8c0.29,0.87,0.69,1.71,1.01,2.58c0.23,0.62,0.39,1.26,0.59,1.89
	c0.3,0.96,0.6,1.93,0.93,2.88c0.37,1.07,0.76,2.13,1.14,3.2c0.03,0.07,0.03,0.15,0.04,0.23c0.28,1.14,0.52,2.29,0.84,3.41
	c0.39,1.39,0.81,2.77,1.28,4.12c0.3,0.87,0.74,1.69,1.12,2.53c0.01,0.02,0.01,0.05,0.02,0.07c0.24,0.99,0.44,1.98,0.75,2.95
	c0.29,0.93,0.69,1.83,1.03,2.75c0.04,0.1,0.06,0.2,0.09,0.3c0.26,1,0.47,2.01,0.81,2.99c0.3,0.88,0.73,1.71,1.1,2.56
	c0.04,0.09,0.06,0.19,0.08,0.29c0.25,1.02,0.43,2.06,0.75,3.06c0.27,0.82,0.74,1.58,1.08,2.39c0.25,0.61,0.45,1.24,0.64,1.87
	c0.31,1.06,0.54,2.14,0.89,3.18c0.59,1.71,0.74,3.46,0.55,5.24c-0.16,1.43-0.81,2.66-1.85,3.66c-1.25,1.2-2.76,1.72-4.46,2.1
	c-1.74,0.39-3.45,0.56-5.18,0.28c-2.16-0.36-4.42-0.62-6.27-1.88c-1.25-0.85-2.53-1.71-3.59-2.88c-1.3-1.43-2.84-2.66-4.36-3.85
	c-0.84-0.66-1.72-1.32-2.82-1.62c-0.68-0.18-1.28-0.66-1.91-1c-0.04-0.02-0.1-0.03-0.15-0.04c-2.64-0.61-5.3-0.98-8.01-0.64
	c-0.98,0.13-1.99,0.3-2.91,0.65c-1.42,0.53-2.85,1.1-4.13,1.88c-1.02,0.61-1.83,1.56-2.73,2.36c-1.02,0.9-2.04,1.81-3.06,2.71
	c-0.71,0.62-1.4,1.25-2.15,1.82c-0.39,0.29-0.85,0.51-1.31,0.68c-0.82,0.31-1.65,0.65-2.5,0.82c-1.65,0.33-3.32,0.54-4.98,0.8
	C37.71,104.36,37.7,104.3,37.68,104.24z"/>
</svg>
