<?xml version="1.0" encoding="utf-8"?>
<!-- Generator: Adobe Illustrator 26.0.1, SVG Export Plug-In . SVG Version: 6.00 Build 0)  -->
<svg version="1.1" id="Слой_1" xmlns="http://www.w3.org/2000/svg" xmlns:xlink="http://www.w3.org/1999/xlink" x="0px" y="0px"
	 viewBox="0 0 335.3 488" style="enable-background:new 0 0 335.3 488;" xml:space="preserve">
<style type="text/css">
	.st0{fill:#3A6AB2;}
	.st1{fill:#3482F6;}
</style>
<path class="st0" d="M144.1,432l-0.4-0.2l0,0C143.9,431.8,144,431.9,144.1,432z"/>
<path class="st0" d="M153.9,438.6c-0.7,0.1-1.5,0.2-2.4,0.3s-1.8,0.1-2.8,0.1c-0.5,0-1,0-1.6,0s-1.1-0.1-1.7-0.1
	c-1.3-0.1-2.6,0.2-3.7,0.7c-1.5,0.7-2.9,1.4-4.2,2.3c-1.5,1-3,2.1-4.5,3.4s-3.1,2.5-4.6,3.8s-2.9,2.5-4.3,3.7s-2.6,2.2-3.6,3.2
	c-2.1,1.8-3.4,3-3.4,3s1.1-0.2,2.8-0.5c0.9-0.1,1.9-0.3,3.1-0.6s2.5-0.5,3.8-0.7c1.4-0.2,2.8-0.4,4.3-0.6s3-0.4,4.5-0.6l2.2-0.2
	c0.7-0.1,1.5-0.1,2.2-0.1c1.4-0.1,2.7,0,4.1,0.1c2.5,0.2,5-0.7,6.9-2.5c2-1.8,3.6-4.1,4.7-6.5c1.1-2.2,1.9-4.5,2.6-6.9l-2.9-1.6
	C155,438.4,154.4,438.5,153.9,438.6z M150.2,448.1c-0.1,0.2-0.2,0.4-0.4,0.7c-0.6,0.8-1.3,1.5-2.2,2.1c-1.2,0.8-2.5,1.4-3.9,1.8
	c-1.6,0.4-3.2,0.6-4.8,0.7c-1.6,0-3.2,0-4.7,0.1c-1.3,0-2.7,0.2-4,0.4c-0.9,0.2-1.9,0.4-2.8,0.7c-0.3,0.1-0.7,0.3-1,0.4
	c0.3-0.3,0.6-0.5,0.9-0.7c0.8-0.6,1.7-1,2.7-1.4c1.3-0.5,2.7-0.8,4.1-1c1.5-0.2,3.2-0.2,4.7-0.4c1.5,0,3.1-0.2,4.6-0.4
	c1.3-0.2,2.6-0.6,3.8-1.1c0.9-0.4,1.7-0.9,2.4-1.5c0.3-0.2,0.6-0.5,0.8-0.7L150.2,448.1z M150.9,443.7c-0.4,0.5-0.9,1-1.4,1.5
	c-0.7,0.7-1.4,1.3-2.2,1.8c-0.9,0.6-1.9,1.1-2.9,1.6c-1,0.4-2.1,0.8-3.1,1.1c-0.9,0.2-1.9,0.4-2.8,0.5c-0.7,0.1-1.3,0.1-2,0.1
	l-0.8-0.1l0.7-0.3c0.4-0.1,1.1-0.4,1.9-0.7s1.6-0.7,2.6-1s1.9-0.8,2.9-1.2s1.9-0.9,2.8-1.4s1.7-0.9,2.4-1.3s1.3-0.7,1.7-1l0.7-0.4
	L150.9,443.7z"/>
<path class="st0" d="M107,416.2c-0.2,1,0,2.1,0.4,3.1c0.4,1,1,2,1.8,2.8c0.8,0.9,1.7,1.8,2.8,2.5c1.1,0.7,2.2,1.4,3.3,2
	c1.1,0.6,2.2,1.1,3.4,1.5c1.1,0.4,2.1,0.7,3,1c0.7,0.2,1.4,0.4,2.1,0.5l0.8,0.1c-0.5-1-0.9-2.1-1.2-3.2c-0.6-2.2-0.9-4.5-1-6.7
	l-8.2-4.6c-0.1,0.6-0.2,1.2-0.4,1.8c-0.2,0.4-0.3,0.9-0.6,1.3c-0.2,0.3-0.3,0.5-0.3,0.5s0-0.2-0.1-0.5s-0.1-0.8-0.1-1.4
	s-0.1-1.2-0.1-1.9c0-0.2,0-0.4-0.1-0.6l-1.8-1c-0.1,0.6-0.2,1.2-0.3,1.8c-0.1,0.6-0.3,1.3-0.5,1.9c-0.2,0.5-0.3,0.7-0.3,0.7
	l-0.1-0.8c0-0.5-0.1-1.1-0.2-1.9s-0.1-1.6-0.2-2.5l-2.4-1.3C107.2,412.9,107.2,414.5,107,416.2z"/>
<path class="st0" d="M153.6,437.3c-0.7-0.1-1.7-0.3-3-0.5l-2.2-0.4c-0.8-0.1-1.7-0.3-2.6-0.5c-1.9-0.4-4-0.7-6.4-1.3l-3.8-0.9
	l-4.1-1.1c-0.7-0.2-1.4-0.4-2.2-0.6l-2.2-0.7c-1.5-0.5-3.1-0.9-4.7-1.5c-7.2-2.3-14.3-5.3-21-8.8c-8-4.2-15.5-9.1-22.4-14.8
	l-2.8-2.3l-2.7-2.4c-1.9-1.6-3.6-3.4-5.4-5.1c-0.9-0.9-1.7-1.8-2.6-2.8s-1.8-1.8-2.6-2.8c-1.6-2-3.4-3.9-4.9-6
	c-0.5-0.6-0.9-1.2-1.4-1.8l-7.2-4.1v-6.6l-0.4-0.6c-1.3-2.4-2.7-4.6-3.9-7.1c-0.6-1.2-1.3-2.4-1.8-3.7l-1.7-3.8
	c-0.6-1.2-1.1-2.5-1.6-3.8s-1-2.6-1.5-3.9c-0.9-2.6-1.8-5.2-2.5-7.9c-1.5-5.4-2.7-10.8-3.6-16.4c-0.3-2.8-0.8-5.5-0.9-8.3
	c-0.1-1.4-0.2-2.8-0.3-4.2l-0.1-4.2c0-0.7,0-1.4,0-2.1v-2.1c0-1.4,0-2.8,0.1-4.2s0.2-2.8,0.3-4.1s0.3-2.8,0.4-4.1
	c0.6-5.4,1.6-10.8,2.9-16.1c1.3-5.2,2.9-10.2,4.8-15.2c3.6-9.4,8.3-18.4,14-26.7c0.7-1,1.4-2,2-2.9l2.1-2.8c0.7-0.9,1.4-1.8,2.1-2.7
	s1.4-1.8,2.2-2.6c1.5-1.7,2.9-3.4,4.4-5c0.8-0.8,1.5-1.6,2.2-2.3s1.5-1.5,2.3-2.2c5.5-5.3,11.5-10.1,17.8-14.4
	c4.9-3.3,9.9-6.4,15.2-9.1c4.4-2.3,7.9-3.9,10.3-5c1.2-0.5,2.2-0.9,2.8-1.2l1-0.4l-1,0.3c-0.7,0.2-1.6,0.5-2.9,0.9
	c-2.5,0.8-6.2,2.1-10.8,4.1c-2,0.9-4.1,1.9-6.3,3.1l0.1-0.1c1.7-1.1,3.4-2.1,5.2-3c1.1-0.6,2.1-1.3,2.9-2.1c1-1,1.9-2,2.8-3.1
	c0.9-1.1,1.7-2.3,2.6-3.6s1.6-2.5,2.4-3.7l2.1-3.5l1.7-2.9c1-1.7,1.6-2.8,1.6-2.8l-2.1,1.4l-2.3,1.5c-0.9,0.6-1.8,1.2-2.9,1.9
	s-2.2,1.4-3.3,2.1s-2.3,1.5-3.4,2.2s-2.3,1.5-3.5,2.1c-0.6,0.3-1.2,0.6-1.7,0.9s-1.1,0.6-1.7,0.9c-1,0.5-2,1.2-2.8,2
	c-0.8,0.7-1.4,1.6-1.9,2.5c-0.9,1.7-1.5,3.6-1.6,5.5c-0.2,1.7-0.1,3.3,0.1,5c-1.1,0.7-2.3,1.4-3.4,2.1c-6.4,4.1-12.3,8.8-17.8,14
	c0.4-0.5,0.9-0.9,1.4-1.4c0.9-0.9,1.6-1.9,2.2-2.9c0.7-1.2,1.2-2.5,1.7-3.8c0.5-1.4,0.9-2.8,1.3-4.3s0.7-3,1.1-4.4
	c0.7-2.9,1.2-5.6,1.6-7.6s0.6-3.2,0.6-3.2s-0.6,0.8-1.6,2s-2.4,3-4,4.9l-2.5,3.1l-1.3,1.6l-1.3,1.6c-0.9,1.1-1.8,2.1-2.8,3.1
	c-0.9,1-1.8,1.9-2.7,2.7c-1.7,1.5-2.8,3.5-3.2,5.8c-0.3,2-0.3,4,0.2,6c0.3,1.6,0.9,3.1,1.6,4.6c0,0.1,0.1,0.2,0.1,0.2l-2.1,2.4
	c-3.1,3.6-6,7.4-8.7,11.3c-1.7,2.5-3.4,5.2-5,7.9c0.3-0.6,0.6-1.1,1-1.7c0.6-1.1,1-2.3,1.2-3.5c0.2-1.4,0.4-2.8,0.4-4.2
	c0-1.6,0-3.1-0.1-4.6c-0.1-1.6-0.2-3.1-0.3-4.7s-0.3-3-0.5-4.4s-0.3-2.6-0.4-3.7c-0.3-2.1-0.5-3.4-0.5-3.4l-0.3,0.6l-0.7,1.8
	l-1.1,2.6c-0.4,1-0.8,2.1-1.3,3.3l-1.5,3.7c-0.5,1.3-1,2.6-1.6,3.9s-1.1,2.6-1.7,3.8s-1.2,2.4-1.9,3.5c-0.6,1-1,2.1-1.3,3.3
	c-0.2,1.1-0.2,2.2-0.1,3.3c0.3,2.1,1,4.1,2.1,5.9c0.9,1.6,2.1,3.1,3.3,4.4c-1.5,3.1-2.9,6.3-4.2,9.7c-1.9,5.1-3.5,10.3-4.8,15.6
	c-0.2,0.7-0.3,1.4-0.5,2.1c0.2-1.4,0.4-2.7,0.8-4.1c0.3-1.2,0.3-2.5,0.1-3.7c-0.2-1.4-0.5-2.8-0.9-4.2c-0.5-1.5-1-3-1.6-4.5
	s-1.3-3.1-1.9-4.5s-1.3-2.9-1.9-4.2l-1.6-3.5c-0.9-2-1.5-3.3-1.5-3.3s-0.1,1-0.2,2.6s-0.2,3.9-0.5,6.5c-0.1,1.3-0.2,2.7-0.3,4
	l-0.4,4.2c-0.1,1.4-0.3,2.8-0.6,4.1c-0.2,1.3-0.4,2.6-0.8,3.9c-0.3,1.1-0.4,2.3-0.2,3.5c0.1,1.1,0.4,2.2,0.9,3.2c1,2,2.3,3.7,4,5.1
	c1.4,1.2,2.9,2.2,4.4,3.1l0.5,0.3c-0.3,1.9-0.6,3.8-0.8,5.7l-0.4,4.2c-0.1,1.4-0.2,2.8-0.3,4.2s-0.1,2.8-0.1,4.2v2.1
	c0,0.8,0,1.4,0,2.2l0.1,4.3c0,0.9,0.1,1.8,0.2,2.7c-0.1-0.5-0.2-1.1-0.3-1.7c-0.1-1-0.2-2.1-0.2-3.2c-0.1-1.2-0.4-2.5-1-3.6
	c-0.6-1.3-1.3-2.6-2.2-3.8c-0.5-0.6-0.9-1.3-1.5-1.9s-1-1.3-1.5-1.9c-1.1-1.3-2.2-2.6-3.3-3.8c-2.2-2.5-4.3-4.8-5.9-6.4
	s-2.6-2.7-2.6-2.7s0.2,1,0.6,2.6c0.2,0.8,0.4,1.8,0.7,2.9l0.8,3.5c0.3,1.3,0.6,2.6,0.9,4l0.9,4.2c0.3,1.4,0.4,2.8,0.7,4.2
	c0.2,1.3,0.3,2.6,0.4,4c0.1,2.4,1,4.6,2.7,6.3c1.6,1.6,3.5,2.9,5.5,3.8c2,0.8,4,1.4,6.1,1.8c0.1,0.7,0.2,1.4,0.2,2
	c0.8,5.7,1.9,11.3,3.4,16.8c0.7,2.8,1.6,5.5,2.5,8.2c0.1,0.3,0.2,0.6,0.3,0.9c-0.5-1.1-1-2.3-1.4-3.6c-0.2-0.6-0.5-1.1-0.8-1.6
	c-0.3-0.6-0.7-1.1-1.2-1.6c-1-1.1-2.1-2.1-3.3-3c-1.3-1-2.6-1.9-4.1-2.9s-3-1.8-4.5-2.7l-4.2-2.5l-3.6-2l-3.5-1.9
	c0,0,0.1,0.2,0.4,0.6l1.1,1.7l1.5,2.6c0.6,1,1.1,2.1,1.9,3.2s1.4,2.4,2.1,3.6l2.1,3.8c0.7,1.3,1.3,2.5,1.9,3.8s1.1,2.5,1.5,3.7
	c0.7,2.3,2.3,4.2,4.5,5.4c2.1,1.1,4.4,1.8,6.7,2c2,0.2,4,0.2,6,0l0.5,0c0.3,0.8,0.7,1.6,1,2.4c0.6,1.3,1.2,2.5,1.8,3.8
	c1.2,2.5,2.6,4.9,3.9,7.4c1.6,2.8,3.4,5.5,5.1,8.2l0,0c-0.8-1-1.7-1.8-2.8-2.4c-1.3-0.8-2.7-1.4-4.2-1.8c-1.5-0.6-3.2-1-4.9-1.5
	s-3.5-0.8-5.3-1.2c-3.4-0.8-6.8-1.4-9.2-1.9l-4-0.8l0.5,0.5c0.4,0.3,0.9,0.8,1.5,1.4c1.3,1.1,3.1,2.7,5,4.5c1,0.9,2.1,1.8,3.1,2.8
	s2.1,2,3.1,3s2,2.1,3,3.1s1.7,2.1,2.5,3.2c1.4,2,3.6,3.3,6,3.7c2.4,0.4,4.9,0.3,7.2-0.2c2.1-0.4,4.1-1.1,6-1.9l0.2-0.1
	c5.1,6.1,10.6,11.7,16.7,16.7c-0.7-0.4-1.5-0.7-2.3-0.9c-1.5-0.3-3.1-0.5-4.6-0.5c-1.8-0.1-3.5,0-5.3,0.1c-1.8,0.1-3.7,0.3-5.5,0.4
	c-3.6,0.3-7.1,0.7-9.7,1s-4.2,0.5-4.2,0.5l2.5,1.2c1.6,0.7,3.8,1.7,6.2,2.9c1.2,0.6,2.5,1.2,3.8,1.8s2.6,1.3,3.9,2s2.6,1.4,3.8,2.1
	s2.3,1.6,3.3,2.3c2,1.5,4.4,2.2,6.9,1.8c2.5-0.4,4.9-1.2,7.1-2.5c1.9-1.1,3.7-2.3,5.4-3.8l0.1-0.1l1,0.7c1.9,1.3,3.9,2.4,5.8,3.6
	l5.8,3.2l5.7,2.8l3.2,1.4c-1-0.3-2.1-0.4-3.2-0.3c-1.6,0.2-3.1,0.5-4.6,0.9c-1.6,0.5-3.4,1.1-5.2,1.7c-0.9,0.3-1.8,0.7-2.7,1.1
	l-2.6,1.1c-1.7,0.7-3.4,1.5-5,2.2l-4.2,1.9c-2.4,1.1-4,1.8-4,1.8s1.1,0.1,2.8,0.4l3.1,0.4c1.2,0.1,2.5,0.3,3.8,0.5s2.8,0.4,4.2,0.6
	s2.9,0.5,4.4,0.8s2.9,0.6,4.3,1c1.3,0.4,2.6,0.8,3.9,1.3c2.3,0.9,4.9,0.8,7.2-0.3c2.4-1.2,4.5-2.7,6.2-4.7c1.6-1.7,3-3.5,4.2-5.4
	l0.3-0.4h0.1c5.8,1.7,11.7,2.8,17.7,3.5c2.5,0.3,4.7,0.4,6.7,0.5c1,0,1.9,0.1,2.7,0.1h2.2c1.3,0,2.4-0.1,3-0.1h0.5L153.6,437.3
	L153.6,437.3z M93.3,188.9c0-0.2,0.1-0.4,0.2-0.7c0.3-0.9,0.7-1.7,1.2-2.5c0.7-1.1,1.6-2.1,2.6-2.9c1.1-1,2.3-1.9,3.6-2.7l3.8-2.1
	c1.2-0.7,2.3-1.2,3.3-1.8s1.7-1,2.2-1.4s0.9-0.6,0.9-0.6s-0.2,0.3-0.6,0.8c-0.6,0.7-1.2,1.4-1.9,2c-1,0.8-2,1.6-3.1,2.3l-3.7,2.3
	c-1.2,0.7-2.4,1.5-3.5,2.3c-1,0.7-1.9,1.5-2.8,2.4c-0.6,0.6-1.2,1.3-1.7,2c-0.4,0.5-0.6,0.8-0.6,0.8L93.3,188.9z M63.7,208.2
	c0.2-1.3,0.5-2.5,1.1-3.6c0.7-1.2,1.5-2.4,2.5-3.4c1-1,2-2,2.9-2.9c0.8-0.8,1.6-1.7,2.3-2.6c0.5-0.6,1-1.3,1.4-2
	c0.2-0.3,0.3-0.6,0.5-0.9c0,0,0,0.4-0.1,1c-0.2,0.9-0.5,1.7-0.9,2.4c-0.6,1.1-1.2,2.1-2,3.1l-2.7,3.1c-0.9,0.9-1.8,1.9-2.5,3
	c-0.6,0.9-1.1,1.9-1.5,3c-0.3,0.8-0.4,1.6-0.5,2.4c0,0.3,0,0.7,0,1C63.7,210.7,63.5,209.5,63.7,208.2L63.7,208.2z M45.4,230.7
	c0-0.8,0-1.7,0-2.6s0.1-1.8,0.1-2.6s0.1-1.6,0.1-2.3s0.1-1.2,0.2-1.6s0.1-0.6,0.1-0.6l0.2,0.6c0.2,0.5,0.4,1,0.5,1.6
	c0.2,0.8,0.3,1.5,0.4,2.3c0.1,0.9,0.1,1.8,0.1,2.7s-0.2,1.8-0.3,2.7c-0.1,0.8-0.3,1.5-0.5,2.3c-0.2,0.5-0.4,1.1-0.6,1.6l-0.3,0.6
	c0,0,0-0.2-0.1-0.6s-0.1-1-0.1-1.6S45.4,231.5,45.4,230.7z M40.5,242.6l-0.4,0.5c0,0,0-0.2,0.1-0.6s0.1-1,0.2-1.6s0.2-1.5,0.3-2.3
	s0.3-1.7,0.3-2.6s0.3-1.8,0.4-2.6s0.2-1.6,0.3-2.3s0.2-1.2,0.2-1.6s0.1-0.6,0.1-0.6l0.2,0.6c0.2,0.5,0.3,1.1,0.4,1.6
	c0.2,0.8,0.2,1.6,0.3,2.4c0,0.9,0,1.8-0.1,2.8s-0.4,1.8-0.6,2.7c-0.2,0.8-0.5,1.5-0.9,2.2C41.1,241.6,40.8,242.1,40.5,242.6z
	 M27.7,274.2c0,0.5-0.1,1.1-0.3,1.6l-0.2,0.6c0,0-0.1-0.2-0.2-0.6s-0.3-0.9-0.4-1.5s-0.4-1.4-0.5-2.1s-0.3-1.6-0.5-2.4
	s-0.3-1.7-0.5-2.4s-0.3-1.5-0.4-2.1s-0.2-1.2-0.3-1.6s-0.1-0.6-0.1-0.6l0.4,0.5c0.3,0.4,0.6,0.9,0.9,1.4c0.4,0.7,0.7,1.3,1,2.1
	c0.3,0.8,0.5,1.6,0.8,2.5s0.2,1.8,0.3,2.6C27.9,272.7,27.8,273.4,27.7,274.2z M28.7,267.7l-0.3-0.6c-0.2-0.4-0.5-0.9-0.7-1.6
	s-0.6-1.5-0.9-2.3s-0.5-1.8-0.8-2.7l-0.6-2.8c-0.2-0.9-0.2-1.7-0.3-2.4s-0.1-1.3-0.1-1.8s0-0.7,0-0.7l0.3,0.6
	c0.2,0.4,0.5,0.9,0.7,1.6s0.6,1.5,0.9,2.3l0.8,2.7c0.2,0.9,0.4,1.9,0.5,2.8s0.2,1.7,0.3,2.5s0.1,1.3,0.1,1.8S28.7,267.7,28.7,267.7
	L28.7,267.7z M22.2,314.9c-0.1,0.4-0.1,0.6-0.1,0.6l-0.2-0.5c-0.1-0.3-0.4-0.8-0.6-1.4s-0.5-1.2-0.7-1.9s-0.5-1.5-0.9-2.2
	s-0.5-1.5-0.8-2.2s-0.5-1.4-0.8-1.9s-0.4-1.1-0.5-1.4l-0.2-0.6l0.5,0.4c0.4,0.3,0.8,0.7,1.1,1.1c0.5,0.5,0.9,1.1,1.3,1.8
	c0.4,0.7,0.8,1.5,1.1,2.2s0.5,1.6,0.7,2.4c0.1,0.7,0.2,1.4,0.2,2.2C22.3,313.8,22.2,314.4,22.2,314.9z M24.2,307.9
	c-0.2-0.3-0.7-0.7-1.1-1.3s-1-1.1-1.4-1.8s-1-1.4-1.6-2.1s-1-1.5-1.5-2.1s-0.9-1.4-1.3-1.9s-0.7-1.1-0.9-1.4l-0.3-0.6l0.6,0.3
	c0.5,0.3,1,0.6,1.4,1c0.6,0.5,1.2,1,1.8,1.6c0.6,0.6,1.2,1.4,1.8,2.1s1,1.6,1.5,2.3c0.4,0.7,0.7,1.4,1,2.2c0.2,0.5,0.4,1.1,0.5,1.6
	c0.1,0.4,0.1,0.6,0.1,0.6L24.2,307.9z M18.9,338.7c-0.7-0.4-1.2-0.8-1.6-1l-0.6-0.4l0.7,0.1c0.6,0.1,1.3,0.3,1.9,0.5
	c0.9,0.3,1.7,0.6,2.5,1c0.9,0.5,1.8,1,2.7,1.7c0.8,0.7,1.6,1.4,2.3,2.1c0.6,0.7,1.2,1.4,1.7,2.2c0.4,0.5,0.7,1.1,1,1.7l0.3,0.7
	l-0.6-0.5c-0.3-0.3-0.9-0.7-1.4-1.2s-1.3-1-2-1.7c-0.7-0.6-1.5-1.2-2.3-1.8c-0.8-0.6-1.6-1.2-2.4-1.8
	C20.2,339.7,19.5,339.1,18.9,338.7L18.9,338.7z M29.5,354.5c-0.2-0.3-0.6-0.7-1-1.2s-0.9-1.1-1.4-1.7s-1-1.3-1.6-2s-1.1-1.4-1.6-2
	s-1-1.2-1.4-1.7s-0.8-1-1-1.3S21,344,21,344l0.6,0.2c0.5,0.2,1,0.5,1.5,0.8c0.7,0.4,1.3,0.9,1.9,1.5c0.6,0.6,1.3,1.2,1.9,1.9
	s1.1,1.5,1.5,2.2c0.4,0.7,0.7,1.4,1,2.1c0.2,0.5,0.3,1.1,0.5,1.6L30,355L29.5,354.5z M30.2,376.1H31c0.7,0,1.3,0.1,2,0.2
	c0.9,0.1,1.8,0.3,2.7,0.6c1,0.3,2,0.7,3,1s1.9,1,2.8,1.5c0.8,0.5,1.6,1,2.3,1.6c0.5,0.4,1,0.8,1.5,1.3l0.5,0.5l-0.7-0.2
	c-0.4-0.2-1.1-0.4-1.8-0.7s-1.6-0.6-2.5-1s-1.8-0.8-2.8-1.2s-1.9-0.9-2.8-1.2s-1.7-0.8-2.5-1.1s-1.3-0.6-1.8-0.8L30.2,376.1z
	 M49.2,391.4c-0.9,0.2-1.7,0.2-2.6,0.1c-1.2-0.2-2.4-0.6-3.5-1.3c-1.2-0.8-2.3-1.6-3.3-2.6c-1-1-1.8-2.1-2.7-3s-1.6-1.9-2.3-2.5
	c-0.6-0.6-1.2-1.1-1.9-1.6c-0.2-0.2-0.5-0.4-0.8-0.5c0,0,0.3,0.1,0.9,0.2c0.8,0.3,1.6,0.6,2.3,1.1c1,0.7,2,1.4,2.8,2.2
	c0.9,0.9,1.9,1.9,2.8,2.9c0.9,1,1.8,1.8,2.9,2.6c0.9,0.7,1.8,1.2,2.9,1.6c0.7,0.3,1.5,0.5,2.3,0.5c0.3,0,0.6,0,0.9,0
	C49.8,391.2,49.5,391.4,49.2,391.4z M77.1,417.9c-0.2,0.2-0.4,0.4-0.7,0.5c-0.8,0.6-1.8,1-2.8,1.1c-1.4,0.2-2.9,0.1-4.3-0.3
	c-1.6-0.5-3.1-1.2-4.5-2c-1.4-0.9-2.7-1.8-4-2.5c-1.1-0.7-2.3-1.4-3.5-1.9c-0.9-0.4-1.8-0.6-2.7-0.8c-0.4-0.1-0.7-0.1-1.1-0.1
	c0.4-0.1,0.7-0.2,1.1-0.2c1-0.1,2,0,3,0.2c1.4,0.3,2.7,0.8,4,1.5c1.4,0.7,2.7,1.6,4.1,2.4c1.3,0.8,2.6,1.5,4,2
	c1.2,0.5,2.5,0.7,3.8,0.7c0.9,0,1.9-0.1,2.8-0.4c0.3-0.1,0.5-0.2,0.8-0.3l0.3-0.1L77.1,417.9z M78.8,414.5c-0.4,0.3-0.8,0.6-1.2,0.8
	c-0.6,0.3-1.2,0.5-1.9,0.6c-0.8,0.1-1.5,0.2-2.3,0.2c-0.8-0.1-1.5-0.3-2.2-0.5c-0.6-0.2-1.2-0.5-1.8-0.9c-0.4-0.3-0.8-0.6-1.1-0.9
	l-0.3-0.4l0.5,0.1c0.3,0.1,0.8,0.1,1.3,0.3s1.1,0.2,1.8,0.3c0.7,0.1,1.3,0.2,2,0.2c0.7,0.1,1.3,0.1,2,0.1c0.6,0,1.3,0,1.8,0
	s1,0,1.3-0.1h0.5L78.8,414.5z M100.8,437.2c0.4-0.1,0.8-0.1,1.2-0.1c0.5,0,1.1,0,1.6,0l1.8,0.2l1.8,0.4c0.5,0.1,1,0.3,1.5,0.5
	c0.3,0.2,0.7,0.3,1,0.5l0.4,0.2l-0.4,0.1c-0.4,0.1-0.8,0.1-1.2,0.1c-0.5,0-1.1,0-1.6,0l-1.8-0.2l-1.8-0.4c-0.5-0.1-1-0.3-1.5-0.5
	c-0.3-0.2-0.7-0.3-1-0.5l-0.4-0.2L100.8,437.2z M113.6,440.1c-0.2,0.1-0.4,0.3-0.7,0.6c-0.9,0.6-1.8,1.1-2.9,1.4
	c-1.5,0.4-3,0.5-4.5,0.4c-1.7-0.2-3.4-0.6-5-1.1c-1.6-0.5-3.2-1.2-4.6-1.6c-1.3-0.5-2.7-0.8-4.1-1.1c-1-0.2-2-0.3-3-0.3
	c-0.4,0-0.8,0-1.2,0c0,0,0.4-0.2,1.1-0.4c1-0.3,2.1-0.4,3.1-0.3c1.5,0,2.9,0.3,4.4,0.6c1.6,0.4,3.2,0.9,4.8,1.4c1.5,0.5,3,1,4.6,1.2
	c1.4,0.2,2.7,0.3,4.1,0.2c1-0.1,1.9-0.3,2.9-0.6c0.3-0.1,0.5-0.2,0.8-0.3l0.3-0.1L113.6,440.1z"/>
<path class="st0" d="M78.6,403.1c0.5,1.1,1.2,2.2,2,3.1c0.8,1,1.7,1.9,2.7,2.8c0.9,0.8,1.9,1.6,2.9,2.4c0.9,0.7,1.8,1.3,2.6,1.8
	c1.6,1,2.6,1.5,2.6,1.5c-0.2-1.1-0.3-2.2-0.3-3.3c0-2.8,0.5-5.7,1.3-8.4l-5.9-3.3c-0.1,0.2-0.1,0.4-0.2,0.6
	c-0.1,0.4-0.3,0.8-0.5,1.1l-0.3,0.4l-0.1-0.5c0-0.3-0.1-0.7-0.1-1.2s-0.1-0.8-0.1-1.2l-2.8-1.6c-0.2,0.8-0.5,1.4-0.7,1.8l-0.3,0.7
	c0,0,0-0.3,0-0.8s0-1.2,0.1-2v-0.3l-2.7-1.5c-0.2,0.6-0.4,1.1-0.6,1.7C77.2,398.9,77.6,401,78.6,403.1z"/>
<path class="st0" d="M61.5,388.6c1.2,1.3,2.1,2.2,2.1,2.2c0-1.1,0.2-2.1,0.5-3.2c0-0.1,0.1-0.2,0.1-0.4l-6.5-3.6
	c0.6,0.9,1.2,1.8,1.8,2.5S61,388,61.5,388.6z"/>
<path class="st0" d="M48.1,345c-0.5,0.4-1,0.7-1.6,0.9c-0.4,0.2-0.8,0.3-1.2,0.4l-0.5,0.1l0.3-0.4c0.2-0.2,0.5-0.6,0.8-0.9
	s0.7-0.8,1.1-1.2c0.4-0.4,0.8-0.9,1.2-1.4c0.4-0.4,0.8-0.9,1.1-1.4l0.1-0.1v-5.6c-0.1,0.4-0.2,0.8-0.4,1.1c-0.4,0.8-0.8,1.6-1.3,2.4
	c-0.5,0.7-1.1,1.4-1.7,2c-0.6,0.5-1.2,1-1.8,1.4c-0.4,0.3-0.8,0.6-1.1,1c-0.1,0.2-0.2,0.3-0.3,0.5c0-0.2,0-0.4,0-0.6
	c0.1-0.6,0.3-1.1,0.7-1.6c0.4-0.6,0.9-1.2,1.4-1.8c0.5-0.6,1-1.3,1.4-2c0.5-0.7,1-1.4,1.3-2.1c0.4-0.7,0.8-1.3,1.1-1.9
	s0.5-1,0.7-1.3v-3.9c-0.5,0.8-1.1,1.7-1.7,2.5s-1.2,1.8-1.9,2.7c-1.2,1.7-2.7,3.2-4.3,4.5c-1.5,1.1-2.2,3-2.4,5.4
	c-0.1,1.2,0,2.4,0.2,3.6c0.2,1.3,0.4,2.5,0.7,3.8c0.4,1.2,0.8,2.4,1.2,3.5c0.4,1,0.8,2,1.2,2.9c0.8,1.6,1.4,2.7,1.4,2.7
	c0.3-1,0.7-2,1.3-2.9c1.2-2.1,2.6-3.9,4.3-5.6v-8C49,344.2,48.6,344.6,48.1,345z"/>
<path class="st0" d="M46.9,296.1l-2.3,2.1c-0.8,0.7-1.6,1.4-2.4,2.1c-1.5,1.3-3.3,2.3-5.1,3.1c-0.9,0.3-1.6,0.9-2.1,1.6
	c-0.6,0.8-1.1,1.8-1.5,2.8c-0.4,1.2-0.7,2.4-0.8,3.6c-0.1,0.6-0.2,1.3-0.2,1.9c0,0.6,0,1.3-0.1,1.9c0,1.3,0,2.5,0.1,3.7
	c0.1,1.1,0.2,2.1,0.4,3.1c0.3,1.8,0.5,3,0.5,3c0.5-0.9,1.2-1.7,1.9-2.4c2-2,4.3-3.6,6.8-4.8c0.9-0.5,1.7-1.3,2.2-2.1
	c0.3-0.5,0.6-1.1,0.9-1.6c0.3-0.6,0.5-1.2,0.8-1.9c0.6-1.4,1.1-2.9,1.5-4.4c0.2-0.8,0.4-1.6,0.7-2.4s0.4-1.6,0.6-2.4
	s0.4-1.7,0.7-2.5v-7C48.7,294.3,47.8,295.2,46.9,296.1z M44.5,306.9c0,0.3-0.1,0.6-0.2,0.9c-0.1,0.4-0.3,0.8-0.6,1.2
	c-0.3,0.4-0.6,0.8-1,1.2c-0.4,0.3-0.8,0.6-1.2,0.9c-0.4,0.2-0.8,0.4-1.2,0.5c-0.3,0.1-0.6,0.1-1,0.1h-0.4l0.2-0.3
	c0.2-0.2,0.3-0.5,0.6-0.7s0.5-0.6,0.8-0.9s0.7-0.6,1-0.9s0.7-0.6,1-0.9s0.7-0.5,1-0.8s0.6-0.4,0.8-0.5l0.3-0.2
	C44.5,306.5,44.5,306.7,44.5,306.9z M47.6,299.9c0,0.2,0,0.4-0.1,0.5c-0.1,0.7-0.4,1.3-0.8,1.9c-0.6,0.8-1.2,1.5-2,2.1
	c-0.9,0.6-1.7,1.2-2.7,1.8c-0.9,0.5-1.9,0.9-2.7,1.4c-0.7,0.4-1.4,0.9-2.1,1.4c-0.5,0.4-0.9,0.8-1.3,1.3c-0.2,0.2-0.3,0.4-0.5,0.6
	c0-0.2,0.1-0.5,0.2-0.7c0.2-0.7,0.5-1.3,0.9-1.8c0.6-0.8,1.2-1.4,2-2c0.8-0.6,1.8-1.2,2.7-1.7c0.9-0.4,1.8-0.9,2.6-1.5
	c0.7-0.4,1.4-0.9,2.1-1.5c0.5-0.4,0.9-0.8,1.3-1.3c0.2-0.2,0.3-0.4,0.4-0.6L47.6,299.9z"/>
<path class="st0" d="M46.8,272c-0.9,0.2-1.8,0.5-2.6,0.7c-0.7,0.2-1.5,0.5-2.2,0.8c-0.5,0.2-1,0.5-1.5,0.8c-0.2,0.1-0.4,0.2-0.5,0.4
	c0.1-0.2,0.2-0.4,0.3-0.6c0.3-0.5,0.7-1,1.2-1.4c0.7-0.6,1.4-1,2.2-1.4c0.9-0.4,1.8-0.7,2.7-1c0.9-0.2,1.7-0.5,2.6-0.8l0.6-0.2v-3
	c-0.5,0.2-0.9,0.4-1.3,0.6c-1.7,0.8-3.6,1.4-5.5,1.7c-0.9,0.1-1.7,0.5-2.4,1c-0.8,0.7-1.5,1.4-2.1,2.3c-0.7,1-1.2,2.1-1.7,3.2
	c-0.5,1.2-1,2.4-1.3,3.6c-0.4,1.2-0.7,2.4-0.9,3.6c-0.2,1.1-0.4,2.2-0.5,3.1s-0.2,1.7-0.2,2.2s-0.1,0.8-0.1,0.8
	c0.7-0.7,1.5-1.3,2.3-1.8c2.3-1.4,4.8-2.3,7.4-2.8c1-0.3,1.8-0.8,2.5-1.5c1-0.9,1.8-1.9,2.5-3c0.4-0.6,0.8-1.2,1.3-1.8v-6.7
	C48.5,271.3,47.7,271.7,46.8,272z"/>
<path class="st0" d="M56.6,242.5h-0.2c-0.7,0.2-1.5,0.4-2.2,0.8c-0.5,0.2-1,0.5-1.5,0.8c-0.3,0.2-0.5,0.4-0.5,0.4
	c0.1-0.2,0.2-0.4,0.3-0.6c0.3-0.5,0.7-1,1.2-1.4c0.7-0.6,1.4-1,2.2-1.4c0.9-0.4,1.9-0.7,2.8-0.9l2.6-0.3l9.5-5.3l-1.7,0.5
	c-1.9,0.6-3.8,1-5.8,1.3c-1.8,0.4-3.6,0.5-5.5,0.2c-0.9-0.1-1.7,0-2.5,0.4c-0.9,0.4-1.8,1-2.6,1.7c-0.4,0.4-0.9,0.8-1.3,1.2
	s-0.8,0.9-1.2,1.4c-0.8,1-1.6,2-2.3,3.1c-0.7,1.1-1.3,2.2-1.9,3.2s-1,2-1.4,2.9s-0.7,1.5-0.9,2l-0.3,0.8c0.8-0.5,1.7-0.8,2.7-1.1
	c1.1-0.3,2.2-0.5,3.3-0.7v-4.9L56.6,242.5z"/>
<path class="st0" d="M92.4,211.3c-0.9,0-1.9,0-2.9,0s-2,0-2.9-0.1c-0.9-0.1-1.9-0.2-2.8-0.4c-0.8-0.1-1.6-0.4-2.4-0.7
	c-0.8-0.3-1.6-0.4-2.4-0.2c-1,0.2-2,0.5-2.9,0.9c-1.1,0.5-2.1,1.1-3.1,1.8c-1,0.7-2,1.5-3,2.4c-0.9,0.8-1.9,1.7-2.7,2.6
	c-0.8,0.8-1.6,1.6-2.2,2.3c-1.2,1.4-1.9,2.4-1.9,2.4c0.9-0.2,1.8-0.4,2.8-0.4c2.4-0.1,4.9,0.2,7.2,1c0.9,0.2,1.9,0.2,2.8-0.1
	c1.3-0.3,2.5-0.8,3.6-1.3c1.3-0.6,2.8-1.3,4.2-2.1c0.7-0.4,1.4-0.8,2.2-1.2s1.5-0.8,2.2-1.2l2.1-1.2l2-1.2c1.3-0.7,2.5-1.4,3.5-1.9
	c0.5-0.3,1-0.5,1.4-0.8l1.1-0.6l0.9-0.5c0,0-0.7,0.1-1.9,0.1c-0.6,0-1.3,0.1-2.1,0.1S93.3,211.3,92.4,211.3z M90.3,214.6
	c-0.6,0.3-1.2,0.5-1.8,0.5c-0.9,0.1-1.8,0.1-2.6-0.1c-0.9-0.2-1.9-0.4-2.8-0.6c-0.9-0.3-1.7-0.5-2.6-0.6c-0.8-0.1-1.5-0.2-2.3-0.2
	c-0.6,0-1.1,0-1.7,0.1c-0.2,0-0.4,0-0.7,0.1c0.2-0.1,0.4-0.3,0.6-0.4c0.5-0.3,1.1-0.6,1.7-0.7c0.8-0.2,1.7-0.3,2.6-0.3
	c1,0.1,2,0.2,2.9,0.4c0.9,0.3,1.8,0.6,2.7,0.9c0.7,0.3,1.5,0.5,2.3,0.6c0.6,0.1,1.1,0.1,1.7,0.1c0.2,0,0.4,0,0.7,0
	C90.7,214.4,90.5,214.5,90.3,214.6L90.3,214.6z"/>
<path class="st0" d="M111.7,191.3c-0.6-0.5-1.4-0.7-2.2-0.8c-1-0.1-2,0-3,0.2c-1.2,0.2-2.4,0.5-3.5,0.9c-1.2,0.4-2.4,0.9-3.6,1.4
	c-1.2,0.6-2.3,1.1-3.3,1.7s-1.9,1.2-2.7,1.7s-1.4,0.9-1.8,1.2l-0.7,0.5c0.9,0,1.8,0.1,2.7,0.3c2.3,0.5,4.4,1.4,6.4,2.6
	c0.8,0.4,1.7,0.6,2.6,0.6c0.6,0,1.2,0,1.8-0.1c0.6-0.1,1.3-0.1,2-0.3s1.5-0.3,2.2-0.4s1.5-0.3,2.3-0.5s1.6-0.4,2.4-0.6
	s1.6-0.4,2.4-0.6l2.4-0.6c0.8-0.2,1.6-0.4,2.3-0.5l2.1-0.5c0.7-0.2,1.3-0.3,1.9-0.4l3.8-0.9l-1.9-0.4c-1.2-0.2-2.8-0.5-4.5-0.9
	c-1.8-0.4-3.7-0.9-5.5-1.5C114.6,193,113.1,192.3,111.7,191.3z M118.5,196.9c0.5,0.1,0.7,0.1,0.7,0.1s-0.2,0.1-0.7,0.3
	c-0.6,0.2-1.3,0.3-2,0.4c-0.9,0-1.9,0-2.8-0.2c-1-0.2-2-0.5-3.1-0.7c-1-0.3-1.9-0.6-2.9-0.8c-0.8-0.2-1.7-0.3-2.6-0.4
	c-0.6-0.1-1.2-0.1-1.9,0c-0.2,0-0.5,0-0.7,0.1c0.2-0.1,0.4-0.3,0.6-0.4c0.6-0.3,1.2-0.6,1.9-0.7c0.9-0.2,1.9-0.2,2.9-0.1
	c1.1,0.1,2.1,0.3,3.2,0.6c1,0.3,2,0.7,3,0.9s1.8,0.6,2.5,0.7C117.2,196.8,117.8,196.9,118.5,196.9L118.5,196.9z"/>
<path class="st0" d="M191.6,431.7l-0.5,0.3C191.2,431.9,191.4,431.8,191.6,431.7L191.6,431.7z"/>
<path class="st0" d="M179.5,446.8c1.1,2.5,2.7,4.7,4.7,6.5c1.8,1.8,4.3,2.7,6.9,2.5c1.4-0.2,2.7-0.2,4.1-0.1c0.7,0,1.4,0.1,2.2,0.1
	l2.2,0.2c1.5,0.1,3,0.3,4.5,0.6s2.9,0.4,4.3,0.6s2.7,0.5,3.9,0.7s2.2,0.4,3.1,0.6c1.8,0.3,2.9,0.5,2.9,0.5s-1.3-1.2-3.4-3
	c-1.1-0.9-2.3-2-3.6-3.2s-2.8-2.5-4.3-3.7s-3-2.5-4.6-3.8s-3.1-2.4-4.5-3.4c-1.3-0.9-2.7-1.7-4.2-2.3c-1.2-0.5-2.4-0.8-3.7-0.7
	c-0.6,0.1-1.1,0.1-1.7,0.1s-1.1,0-1.6,0c-1,0-1.9,0-2.8-0.1s-1.6-0.2-2.4-0.3s-1.1-0.2-1.6-0.4l-2.9,1.6
	C177.6,442.3,178.4,444.6,179.5,446.8z M205.4,452.9c0.9,0.3,1.8,0.8,2.7,1.4c0.3,0.2,0.6,0.5,0.9,0.7c-0.3-0.2-0.7-0.3-1-0.4
	c-0.9-0.3-1.8-0.6-2.8-0.7c-1.3-0.2-2.7-0.3-4-0.4c-1.5-0.1-3.1-0.1-4.7-0.1c-1.6-0.1-3.2-0.3-4.8-0.7c-1.4-0.4-2.7-1-3.9-1.8
	c-0.8-0.6-1.6-1.3-2.2-2.1c-0.2-0.2-0.3-0.5-0.4-0.7l-0.1-0.3c0.3,0.3,0.5,0.5,0.8,0.7c0.7,0.6,1.6,1.1,2.4,1.5
	c1.2,0.5,2.5,0.9,3.8,1.1c1.5,0.3,3,0.4,4.6,0.4c1.6,0.1,3.2,0.2,4.8,0.4C202.7,452.1,204.1,452.4,205.4,452.9z M184.6,443.4
	c0.4,0.3,1,0.5,1.7,1s1.6,0.8,2.4,1.3s1.8,0.9,2.8,1.4s1.9,0.9,2.9,1.2s1.8,0.8,2.6,1s1.4,0.5,1.9,0.7l0.7,0.3l-0.8,0.1
	c-0.7,0-1.3,0-2-0.1c-1-0.1-1.9-0.3-2.8-0.5c-1.1-0.3-2.1-0.7-3.1-1.1c-1-0.5-2-1.1-2.9-1.6c-0.8-0.5-1.5-1.2-2.2-1.8
	c-0.5-0.5-0.9-1-1.4-1.5l-0.4-0.6L184.6,443.4z"/>
<path class="st0" d="M210.7,429.7l0.8-0.1c0.7-0.1,1.4-0.3,2.1-0.5c0.9-0.3,1.9-0.6,3-1c1.2-0.4,2.3-0.9,3.4-1.5
	c1.1-0.6,2.3-1.3,3.3-2c1-0.7,2-1.5,2.8-2.5c0.8-0.8,1.4-1.8,1.8-2.8c0.4-1,0.5-2.1,0.4-3.1c-0.2-1.7-0.2-3.3-0.1-5l-2.4,1.3
	c0,0.9-0.1,1.8-0.2,2.5s-0.1,1.5-0.1,1.9l-0.1,0.8l-0.3-0.7c-0.2-0.6-0.4-1.3-0.5-1.9c-0.1-0.5-0.2-1.1-0.3-1.8l-1.8,1
	c0,0.2,0,0.4,0,0.6c0,0.7-0.1,1.3-0.1,1.9s-0.1,1-0.1,1.4s-0.1,0.5-0.1,0.5l-0.3-0.5c-0.2-0.4-0.4-0.8-0.6-1.3
	c-0.2-0.6-0.3-1.2-0.4-1.8l-8.2,4.6c-0.1,2.3-0.4,4.5-1,6.7C211.7,427.6,211.3,428.7,210.7,429.7z"/>
<path class="st0" d="M243.9,414.6c0,0,1.1-0.5,2.6-1.5c0.8-0.5,1.6-1.1,2.6-1.8c1-0.7,1.9-1.5,2.8-2.3c0.9-0.9,1.8-1.8,2.6-2.8
	c0.8-0.9,1.5-2,2-3.1c1-2.1,1.4-4.2,0.6-6.1c-0.2-0.6-0.4-1.1-0.6-1.7l-2.7,1.5c0,0.1,0,0.2,0,0.3c0.1,0.8,0.1,1.5,0.1,2
	s0,0.8,0,0.8l-0.3-0.7c-0.2-0.5-0.5-1.1-0.7-1.8l-2.8,1.6c0,0.4-0.1,0.8-0.1,1.2s-0.1,0.9-0.1,1.2l-0.1,0.5l-0.3-0.4
	c-0.2-0.4-0.4-0.7-0.5-1.1l-0.2-0.6l-5.9,3.3c0.8,2.7,1.3,5.5,1.3,8.4C244.3,412.4,244.2,413.5,243.9,414.6z"/>
<path class="st0" d="M271.6,390.8c0,0,0.9-0.8,2.1-2.2c0.6-0.7,1.3-1.5,2-2.5s1.2-1.6,1.8-2.5l-6.5,3.6c0,0.1,0.1,0.3,0.1,0.4
	C271.4,388.7,271.6,389.7,271.6,390.8z"/>
<path class="st0" d="M286.6,333.8c0.3,0.6,0.7,1.2,1.1,1.9c0.4,0.7,0.8,1.4,1.3,2.1c0.4,0.7,0.9,1.4,1.4,2c0.5,0.6,1,1.2,1.4,1.8
	c0.3,0.5,0.6,1,0.6,1.6c0,0.2,0,0.4,0,0.6c-0.1-0.2-0.2-0.4-0.3-0.5c-0.3-0.4-0.7-0.8-1.1-1c-0.6-0.4-1.2-0.9-1.8-1.4
	c-0.6-0.6-1.2-1.3-1.8-2.1c-0.5-0.8-0.9-1.6-1.3-2.4c-0.2-0.4-0.3-0.8-0.4-1.1v5.6l0.1,0.1c0.3,0.5,0.7,1,1.1,1.5
	c0.4,0.5,0.7,1,1.2,1.4c0.4,0.4,0.7,0.9,1.1,1.2s0.6,0.7,0.8,0.9l0.3,0.4l-0.5-0.1c-0.4-0.1-0.8-0.2-1.2-0.4
	c-0.6-0.2-1.1-0.6-1.6-0.9c-0.5-0.4-0.9-0.8-1.3-1.2v8c1.7,1.6,3.2,3.5,4.4,5.6c0.5,0.9,1,1.9,1.3,2.9c0,0,0.6-1,1.4-2.7
	c0.5-1,0.9-1.9,1.2-2.9c0.4-1.1,0.8-2.3,1.2-3.5c0.3-1.3,0.6-2.5,0.7-3.8c0.2-1.2,0.2-2.4,0.1-3.6c-0.2-2.3-0.9-4.3-2.4-5.4
	c-1.6-1.3-3.1-2.8-4.3-4.5c-0.7-0.9-1.3-1.8-1.9-2.7s-1.1-1.7-1.7-2.5v3.9C286,332.8,286.3,333.2,286.6,333.8z"/>
<path class="st0" d="M318.9,333.6l-4.2,2.4c-1.5,0.9-3,1.8-4.5,2.7s-2.8,1.9-4.1,2.9c-1.2,0.9-2.3,1.9-3.3,3c-0.4,0.5-0.8,1-1.2,1.6
	c-0.3,0.5-0.6,1-0.8,1.6c-0.5,1.3-1,2.5-1.4,3.6c0.1-0.3,0.2-0.6,0.3-0.9c0.9-2.7,1.8-5.4,2.5-8.2c1.5-5.5,2.6-11.1,3.4-16.8
	c0.1-0.7,0.2-1.4,0.2-2c2.1-0.4,4.1-1,6.1-1.8c2.1-0.9,4-2.2,5.5-3.8c1.7-1.7,2.6-3.9,2.7-6.3c0-1.3,0.2-2.6,0.4-4
	c0.2-1.4,0.4-2.8,0.7-4.2l0.9-4.2c0.3-1.4,0.6-2.7,0.9-4l0.8-3.5c0.3-1.1,0.5-2,0.7-2.9c0.4-1.6,0.6-2.6,0.6-2.6s-1,1-2.6,2.7
	s-3.7,4-5.9,6.4c-1.1,1.2-2.2,2.5-3.3,3.8c-0.5,0.6-1,1.3-1.5,1.9s-1,1.3-1.4,1.9c-0.9,1.2-1.6,2.5-2.2,3.8c-0.6,1.1-0.9,2.3-1,3.6
	c0,1.1-0.1,2.2-0.2,3.2c-0.1,0.6-0.2,1.2-0.3,1.7c0.1-0.9,0.1-1.8,0.2-2.7l0.1-4.3c0-0.7,0-1.4,0-2.2v-2.1c0-1.4,0-2.8-0.1-4.2
	l-0.3-4.2c-0.1-1.4-0.3-2.8-0.4-4.2c-0.2-1.9-0.5-3.8-0.8-5.7l0.5-0.3c1.6-0.9,3.1-1.9,4.4-3.1c1.7-1.4,3-3.1,4-5.1
	c0.5-1,0.8-2.1,0.9-3.2c0.2-1.2,0.1-2.4-0.2-3.5c-0.3-1.3-0.6-2.6-0.8-3.9c-0.2-1.3-0.4-2.7-0.6-4.1l-0.4-4.2
	c-0.1-1.4-0.2-2.7-0.3-4c-0.2-2.5-0.3-4.9-0.5-6.5s-0.2-2.6-0.2-2.6s-0.6,1.3-1.6,3.3l-1.6,3.5c-0.6,1.3-1.2,2.7-1.9,4.2
	s-1.3,3-1.9,4.5s-1.1,3-1.6,4.5c-0.4,1.4-0.7,2.8-0.9,4.2c-0.2,1.2-0.1,2.5,0.1,3.7c0.3,1.3,0.6,2.7,0.8,4.1
	c-0.2-0.7-0.3-1.4-0.5-2.1c-1.3-5.3-2.9-10.5-4.9-15.6c-1.3-3.3-2.7-6.5-4.2-9.6c1.3-1.3,2.4-2.8,3.4-4.4c1.1-1.8,1.8-3.8,2.1-5.9
	c0.1-1.1,0.1-2.2-0.1-3.3c-0.2-1.2-0.7-2.3-1.3-3.3c-0.6-1.1-1.3-2.2-1.9-3.5s-1.1-2.5-1.7-3.8s-1.1-2.6-1.6-3.9s-1-2.5-1.5-3.7
	s-0.9-2.3-1.3-3.3l-1.1-2.7l-0.7-1.8l-0.3-0.6c0,0-0.2,1.4-0.5,3.4c-0.1,1.1-0.3,2.3-0.4,3.7s-0.3,2.9-0.5,4.4s-0.3,3.1-0.4,4.7
	s-0.1,3.2-0.1,4.6c0,1.4,0.2,2.8,0.4,4.2c0.2,1.2,0.6,2.4,1.2,3.5c0.3,0.6,0.6,1.2,0.9,1.7c-1.6-2.7-3.2-5.4-5-7.9
	c-2.7-3.9-5.6-7.7-8.7-11.3l-2.1-2.3c0-0.1,0.1-0.2,0.1-0.2c0.7-1.5,1.2-3,1.6-4.6c0.5-2,0.5-4,0.2-6c-0.5-2.2-1.6-4.2-3.2-5.8
	c-0.9-0.8-1.8-1.8-2.8-2.8s-1.9-2-2.7-3.1l-1.3-1.6l-1.3-1.6l-2.5-3.1c-1.6-1.9-3-3.7-4-4.9l-1.6-2c0,0,0.2,1.3,0.6,3.2
	c0.4,2,0.9,4.7,1.6,7.6c0.4,1.4,0.7,3,1.1,4.4s0.9,2.9,1.3,4.3c0.4,1.3,1,2.6,1.7,3.8c0.6,1.1,1.3,2.1,2.2,2.9c0.5,0.5,1,1,1.5,1.4
	c-5.5-5.2-11.5-9.9-17.8-14c-1.2-0.8-2.3-1.4-3.4-2.1c0.2-1.7,0.3-3.3,0.1-5c-0.2-1.9-0.7-3.8-1.7-5.5c-0.5-0.9-1.2-1.8-1.9-2.5
	c-0.8-0.8-1.8-1.5-2.9-2c-0.6-0.3-1.1-0.6-1.7-0.9s-1.1-0.6-1.7-0.9c-1.2-0.7-2.3-1.4-3.5-2.1s-2.3-1.5-3.4-2.2s-2.2-1.4-3.3-2.1
	s-2-1.4-2.9-1.9l-2.3-1.5l-2.1-1.4c0,0,0.6,1.1,1.6,2.8l1.7,2.9l2.1,3.5c0.7,1.2,1.6,2.5,2.4,3.7s1.7,2.5,2.6,3.6
	c0.8,1.1,1.7,2.1,2.7,3.1c0.9,0.8,1.9,1.6,2.9,2.1c1.8,0.9,3.5,1.9,5.2,3l0.1,0.1c-2.2-1.2-4.4-2.2-6.3-3.1c-4.6-2-8.3-3.3-10.8-4.1
	c-1.3-0.4-2.2-0.7-2.9-0.9l-1-0.3l1,0.4c0.6,0.3,1.6,0.7,2.8,1.2c2.4,1.1,5.9,2.7,10.3,5c5.2,2.8,10.3,5.8,15.2,9.1
	c6.3,4.3,12.3,9.1,17.8,14.4l2.3,2.2c0.8,0.8,1.5,1.6,2.2,2.3c1.5,1.6,3,3.3,4.4,5c0.7,0.9,1.4,1.8,2.2,2.6s1.5,1.8,2.1,2.7l2.1,2.8
	l2,2.9c5.7,8.3,10.4,17.3,14,26.7c1.9,5,3.5,10.1,4.8,15.2c1.3,5.3,2.3,10.7,2.9,16.1c0.1,1.4,0.3,2.7,0.4,4.1s0.2,2.8,0.3,4.1
	s0.1,2.8,0.1,4.2v2.1c0,0.6,0,1.4,0,2.1l-0.1,4.2c0,1.4-0.2,2.8-0.3,4.2c-0.1,2.8-0.6,5.6-0.9,8.3c-0.8,5.5-2,11-3.5,16.4
	c-0.7,2.7-1.7,5.3-2.5,7.9c-0.4,1.3-1,2.6-1.5,3.9s-1,2.6-1.6,3.8l-1.7,3.7c-0.6,1.2-1.2,2.5-1.8,3.7c-1.2,2.5-2.6,4.8-3.9,7.1
	l-0.4,0.6v6.6l-7.2,4.1c-0.5,0.6-0.9,1.2-1.4,1.8c-1.6,2.1-3.3,4-4.9,6c-0.8,1-1.7,1.9-2.6,2.8s-1.7,1.9-2.6,2.8
	c-1.8,1.7-3.5,3.5-5.4,5.1L259,404l-2.8,2.3c-7,5.7-14.5,10.6-22.4,14.8c-6.7,3.5-13.8,6.5-21,8.8c-1.6,0.6-3.2,1-4.7,1.5l-2.2,0.7
	c-0.7,0.2-1.5,0.4-2.2,0.6l-4.1,1.1l-3.8,0.9c-2.4,0.6-4.5,0.9-6.4,1.3c-0.9,0.2-1.8,0.4-2.6,0.5l-2.2,0.4c-1.3,0.2-2.3,0.4-3,0.5
	h-0.1l-0.3,0.2h0.5c0.7,0,1.7,0.1,3,0.1h2.2c0.8,0,1.7-0.1,2.7-0.1c1.9-0.1,4.2-0.2,6.7-0.5c6-0.6,12-1.8,17.8-3.4h0.1l0.2,0.4
	c1.2,1.9,2.7,3.7,4.2,5.4c1.8,1.9,3.9,3.5,6.2,4.7c2.3,1.1,4.9,1.2,7.2,0.3c1.3-0.5,2.5-0.9,3.9-1.3c1.4-0.4,2.8-0.7,4.3-1
	s2.9-0.6,4.4-0.8s2.9-0.4,4.2-0.6s2.6-0.4,3.8-0.5l3.1-0.4c1.7-0.2,2.8-0.4,2.8-0.4s-1.6-0.7-4-1.8l-4.3-1.9c-1.6-0.7-3.3-1.4-5-2.2
	l-2.6-1.1c-0.9-0.4-1.8-0.7-2.7-1.1c-1.8-0.7-3.5-1.3-5.1-1.7c-1.5-0.5-3.1-0.8-4.6-0.9c-1.1-0.1-2.2,0-3.2,0.3l3.2-1.4l5.7-2.8
	l5.8-3.2c1.9-1.2,3.9-2.3,5.8-3.6l1-0.7l0.1,0.1c1.7,1.4,3.5,2.7,5.4,3.8c2.2,1.3,4.6,2.1,7.1,2.5c2.4,0.3,4.9-0.3,6.9-1.8
	c1-0.8,2.1-1.6,3.3-2.3s2.5-1.5,3.8-2.1s2.6-1.4,3.9-2s2.6-1.2,3.8-1.8c2.4-1.2,4.6-2.2,6.2-2.9l2.5-1.2c0,0-1.6-0.2-4.2-0.5
	s-6.1-0.7-9.7-1c-1.8-0.1-3.7-0.3-5.5-0.4c-1.8-0.1-3.5-0.1-5.3-0.1c-1.5,0-3.1,0.2-4.6,0.5c-0.8,0.2-1.6,0.5-2.3,0.9
	c6-5.1,11.6-10.7,16.7-16.8l0.2,0.1c1.9,0.8,3.9,1.5,6,1.9c2.4,0.5,4.8,0.6,7.2,0.2c2.4-0.4,4.5-1.8,6-3.7c0.8-1,1.6-2.1,2.5-3.2
	s1.9-2.1,3-3.1s2-2.1,3.1-3s2.1-1.9,3.1-2.8c1.9-1.8,3.7-3.4,5-4.5c0.7-0.6,1.1-1,1.5-1.4l0.5-0.5l-4,0.8c-2.5,0.5-5.8,1.1-9.2,1.9
	c-1.7,0.4-3.5,0.8-5.2,1.2s-3.4,0.9-4.9,1.5c-1.4,0.5-2.8,1.1-4.2,1.8c-1.1,0.6-2.1,1.4-2.8,2.4l0,0c1.8-2.7,3.5-5.4,5.1-8.2
	c1.3-2.4,2.7-4.8,3.9-7.4c0.6-1.3,1.2-2.5,1.8-3.8l1-2.4l0.5,0c2,0.2,4,0.2,6,0c2.3-0.2,4.6-0.9,6.7-2c2.1-1.1,3.7-3,4.5-5.3
	c0.4-1.2,1-2.5,1.5-3.7s1.2-2.5,1.9-3.8s1.4-2.5,2.1-3.8s1.4-2.5,2.1-3.6s1.3-2.2,1.9-3.2l1.5-2.6c0.5-0.7,0.8-1.3,1-1.7
	s0.4-0.6,0.4-0.6l-3.5,1.9L318.9,333.6z M317.8,303.8c-0.1,0.3-0.3,0.9-0.5,1.4s-0.4,1.2-0.8,1.9s-0.6,1.4-0.8,2.2s-0.6,1.5-0.9,2.2
	s-0.6,1.4-0.7,1.9s-0.5,1.1-0.6,1.4l-0.2,0.5c0,0,0-0.2-0.1-0.6c-0.1-0.5-0.1-1-0.1-1.5c0-0.7,0.1-1.5,0.2-2.2
	c0.2-0.8,0.4-1.6,0.7-2.4s0.7-1.5,1.1-2.2c0.4-0.6,0.8-1.2,1.3-1.8c0.3-0.4,0.7-0.8,1.1-1.1l0.5-0.4
	C317.9,303.3,317.9,303.5,317.8,303.8L317.8,303.8z M310.8,307.7c0.1-0.6,0.3-1.1,0.5-1.6c0.3-0.8,0.6-1.5,1-2.2
	c0.4-0.8,0.9-1.5,1.5-2.3s1.2-1.4,1.8-2.1c0.6-0.6,1.2-1.1,1.8-1.6c0.5-0.4,0.9-0.7,1.4-1l0.6-0.3l-0.3,0.6
	c-0.2,0.3-0.5,0.9-0.9,1.4s-0.8,1.2-1.3,1.9s-1,1.4-1.5,2.1s-1.1,1.4-1.6,2.1s-1,1.3-1.4,1.8s-0.8,1-1.1,1.3l-0.4,0.5
	C310.6,308.4,310.7,308.2,310.8,307.7L310.8,307.7z M310.4,263.4l0.4-0.5c0,0,0,0.2-0.1,0.6s-0.1,0.9-0.3,1.6s-0.2,1.4-0.4,2.1
	s-0.4,1.6-0.5,2.4s-0.4,1.6-0.5,2.4s-0.4,1.5-0.5,2.1s-0.3,1.2-0.4,1.5l-0.2,0.6l-0.2-0.6c-0.1-0.5-0.2-1.1-0.3-1.6
	c-0.1-0.8-0.1-1.5,0-2.3c0.1-0.8,0.2-1.7,0.3-2.6s0.5-1.7,0.8-2.5c0.3-0.7,0.6-1.4,1-2.1C309.8,264.3,310.1,263.9,310.4,263.4
	L310.4,263.4z M306.6,265.3c0.1-0.7,0.1-1.6,0.3-2.5l0.6-2.8l0.8-2.7c0.2-0.9,0.6-1.6,0.9-2.3s0.6-1.2,0.7-1.6l0.3-0.6
	c0,0,0,0.2,0,0.7s0,1-0.1,1.8s-0.1,1.6-0.3,2.4l-0.6,2.8c-0.3,0.9-0.5,1.8-0.8,2.7s-0.6,1.6-0.9,2.3s-0.6,1.2-0.7,1.6l-0.3,0.6
	c0,0,0-0.2,0-0.7S306.5,266,306.6,265.3L306.6,265.3z M241.4,188.3c-0.5-0.7-1.1-1.4-1.7-2c-0.9-0.9-1.8-1.7-2.8-2.4
	c-1.1-0.9-2.3-1.6-3.5-2.3l-3.7-2.3c-1.1-0.7-2.1-1.5-3.1-2.3c-0.7-0.6-1.3-1.3-1.9-2c-0.4-0.5-0.6-0.8-0.6-0.8s0.3,0.2,0.9,0.6
	s1.3,0.8,2.3,1.4s2.1,1.1,3.3,1.8l3.8,2.1c1.2,0.8,2.4,1.7,3.6,2.7c1,0.9,1.9,1.9,2.6,2.9c0.5,0.8,0.9,1.6,1.2,2.5
	c0.1,0.2,0.1,0.5,0.2,0.7c0,0.2,0.1,0.3,0.1,0.3S241.8,188.8,241.4,188.3L241.4,188.3z M271.4,210.8c-0.1,0.3-0.2,0.6-0.4,0.9
	c0-0.3,0-0.7,0-1c0-0.8-0.2-1.6-0.5-2.4c-0.4-1.1-0.9-2.1-1.5-3c-0.7-1.1-1.6-2.1-2.5-3l-2.7-3.1c-0.8-0.9-1.4-2-2-3.1
	c-0.4-0.8-0.7-1.6-0.9-2.4c-0.1-0.3-0.1-0.7-0.1-1c0.1,0.3,0.3,0.6,0.5,0.9c0.4,0.7,0.9,1.4,1.4,2c0.7,0.9,1.5,1.7,2.3,2.6l2.9,2.9
	c0.9,1.1,1.8,2.2,2.5,3.4c0.6,1.1,1,2.3,1.1,3.6C271.7,209,271.7,210,271.4,210.8L271.4,210.8z M289.8,233c0,0.7-0.1,1.2-0.1,1.6
	s-0.1,0.6-0.1,0.6l-0.3-0.6c-0.2-0.5-0.4-1-0.6-1.6c-0.2-0.7-0.4-1.5-0.5-2.3c-0.1-0.9-0.2-1.8-0.3-2.7s0.1-1.8,0.1-2.7
	c0.1-0.8,0.2-1.5,0.4-2.3c0.1-0.5,0.3-1.1,0.5-1.6l0.2-0.6c0,0,0,0.2,0.1,0.6s0.1,1,0.2,1.6s0.1,1.4,0.1,2.3s0,1.7,0.1,2.6
	s0,1.8,0,2.6S289.8,232.3,289.8,233z M293,238.9c-0.2-0.8-0.4-1.8-0.6-2.7s-0.1-1.9-0.1-2.8c0-0.8,0.1-1.6,0.3-2.4
	c0.1-0.6,0.2-1.1,0.4-1.6l0.2-0.6c0,0,0,0.2,0.1,0.6s0.2,1,0.2,1.6s0.2,1.4,0.3,2.3s0.2,1.7,0.4,2.6s0.2,1.8,0.4,2.6
	s0.2,1.6,0.3,2.3s0.1,1.2,0.2,1.6s0.1,0.6,0.1,0.6l-0.4-0.5c-0.3-0.5-0.6-1-0.9-1.5C293.5,240.4,293.2,239.6,293,238.9L293,238.9z
	 M243.3,437.6c1.1,0,2.1,0.1,3.1,0.3c0.7,0.2,1.1,0.4,1.1,0.4c-0.4,0-0.8,0-1.2,0c-1,0-2,0.1-3,0.3c-1.4,0.3-2.7,0.7-4,1.1
	c-1.5,0.5-3,1.1-4.6,1.6c-1.6,0.5-3.3,0.9-5,1.1c-1.5,0.1-3,0-4.5-0.4c-1-0.3-2-0.7-2.9-1.4c-0.2-0.2-0.5-0.4-0.7-0.6l-0.2-0.2
	l0.3,0.1c0.2,0.1,0.4,0.2,0.8,0.3c0.9,0.3,1.9,0.6,2.9,0.6c1.4,0.1,2.7,0,4.1-0.2c1.6-0.3,3.1-0.7,4.6-1.2c1.6-0.5,3.2-1,4.8-1.4
	C240.3,437.9,241.8,437.6,243.3,437.6L243.3,437.6z M228.2,437.7l1.8-0.4l1.8-0.2c0.5,0,1.1,0,1.6,0c0.4,0,0.8,0.1,1.1,0.1l0.4,0.1
	l-0.4,0.2c-0.3,0.2-0.7,0.4-1,0.5c-0.5,0.2-1,0.4-1.5,0.5l-1.8,0.4l-1.8,0.2c-0.5,0-1.1,0-1.6,0c-0.4,0-0.8-0.1-1.1-0.1l-0.4-0.1
	l0.4-0.2c0.3-0.2,0.7-0.4,1-0.5C227.2,438,227.7,437.8,228.2,437.7L228.2,437.7z M269.6,415.7c1.4-0.8,2.8-1.6,4.1-2.4
	c1.3-0.7,2.6-1.2,4-1.5c1-0.2,2-0.3,3-0.2c0.4,0,0.7,0.1,1.1,0.2c-0.4,0-0.7,0.1-1.1,0.1c-0.9,0.2-1.8,0.4-2.7,0.8
	c-1.2,0.5-2.4,1.2-3.5,1.9c-1.3,0.8-2.6,1.7-4,2.5c-1.4,0.8-2.9,1.5-4.5,2c-1.4,0.4-2.9,0.5-4.3,0.3c-1-0.2-2-0.5-2.8-1.1
	c-0.2-0.2-0.4-0.3-0.6-0.5l-0.2-0.2l0.3,0.1c0.2,0.1,0.5,0.2,0.8,0.3c0.9,0.3,1.8,0.4,2.8,0.4c1.3,0,2.6-0.3,3.8-0.7
	C266.9,417.3,268.3,416.6,269.6,415.7L269.6,415.7z M261.7,414.2c0.7,0,1.3-0.1,2-0.2c0.6-0.1,1.3-0.2,1.8-0.3s1-0.2,1.3-0.3
	l0.5-0.1l-0.4,0.4c-0.3,0.3-0.7,0.7-1.1,0.9c-0.6,0.4-1.2,0.7-1.8,0.9c-1.5,0.5-3,0.6-4.5,0.3c-0.7-0.1-1.3-0.3-1.9-0.6
	c-0.4-0.2-0.8-0.4-1.2-0.8l-0.4-0.4h0.5c0.3,0,0.8,0,1.3,0.1s1.2,0,1.8,0C260.4,414.3,261.1,414.3,261.7,414.2L261.7,414.2z
	 M289.9,382.3c0.5-0.5,1-0.9,1.5-1.3c0.7-0.6,1.5-1.1,2.3-1.5c0.9-0.5,1.9-1,2.8-1.5s2-0.8,3-1c0.9-0.3,1.8-0.5,2.7-0.6
	c0.7-0.1,1.3-0.2,2-0.2h0.7l-0.7,0.3c-0.4,0.2-1,0.5-1.8,0.8s-1.6,0.7-2.5,1.1s-1.9,0.8-2.8,1.2s-1.9,0.8-2.8,1.2s-1.8,0.7-2.5,1
	s-1.4,0.5-1.8,0.7l-0.7,0.2L289.9,382.3z M286.1,391.1c0.8-0.1,1.6-0.2,2.3-0.5c1-0.4,2-0.9,2.9-1.6c1-0.8,2-1.6,2.8-2.6
	c1-0.9,1.9-1.9,2.8-2.9c0.9-0.8,1.8-1.6,2.8-2.2c0.7-0.5,1.5-0.8,2.3-1.1c0.6-0.2,0.9-0.2,0.9-0.2c-0.3,0.2-0.5,0.3-0.8,0.5
	c-0.7,0.5-1.3,1-1.9,1.6c-0.7,0.7-1.5,1.6-2.3,2.5s-1.7,2-2.7,3c-1,1-2.1,1.9-3.3,2.6c-1.1,0.6-2.3,1.1-3.5,1.3
	c-0.9,0.1-1.7,0.1-2.6-0.1c-0.3-0.1-0.6-0.2-0.9-0.3C285.5,391.1,285.8,391.1,286.1,391.1z M313.9,344.6c-0.3,0.3-0.6,0.8-1,1.3
	s-0.9,1.1-1.4,1.7s-1.1,1.3-1.6,2s-1.1,1.3-1.6,2s-1,1.2-1.4,1.7s-0.8,0.9-1,1.2l-0.4,0.5l0.1-0.6c0.1-0.5,0.3-1.1,0.5-1.6
	c0.3-0.7,0.6-1.4,1-2.1c0.5-0.7,1-1.5,1.5-2.2s1.3-1.3,1.9-1.9c0.6-0.5,1.2-1,1.9-1.4c0.5-0.3,1-0.6,1.5-0.8l0.6-0.2L313.9,344.6z
	 M318,337.6c-0.4,0.2-0.9,0.6-1.6,1s-1.4,1-2.2,1.5c-0.8,0.5-1.6,1.1-2.4,1.8c-0.8,0.6-1.6,1.2-2.3,1.8s-1.5,1.2-2,1.7
	s-1.1,0.9-1.4,1.2l-0.6,0.5l0.3-0.7c0.3-0.6,0.6-1.2,1-1.7c0.5-0.8,1.1-1.5,1.7-2.2c0.7-0.8,1.5-1.5,2.3-2.1
	c0.9-0.6,1.8-1.2,2.7-1.7c0.8-0.4,1.7-0.7,2.5-1c0.6-0.2,1.2-0.4,1.9-0.5l0.7-0.1L318,337.6z"/>
<path class="st0" d="M286.5,303.1c0.2,0.8,0.4,1.6,0.6,2.4s0.5,1.6,0.7,2.4c0.4,1.5,0.9,3,1.5,4.4c0.3,0.7,0.5,1.3,0.8,1.9
	c0.3,0.6,0.6,1.1,0.9,1.6c0.5,0.9,1.3,1.6,2.2,2.1c2.5,1.2,4.8,2.8,6.8,4.8c0.7,0.7,1.4,1.5,1.9,2.4c0,0,0.3-1.2,0.5-3
	c0.2-1,0.3-2.1,0.4-3.1c0.1-1.2,0.1-2.4,0.1-3.7c0-0.6,0-1.3-0.1-1.9s-0.1-1.3-0.2-1.9c-0.2-1.2-0.4-2.4-0.8-3.6
	c-0.3-1-0.8-2-1.5-2.8c-0.6-0.7-1.3-1.3-2.1-1.7c-1.8-0.8-3.5-1.8-5.1-3.1c-0.9-0.7-1.7-1.4-2.5-2.1l-2.3-2.1
	c-1-0.9-1.8-1.8-2.5-2.5v7C286.1,301.4,286.3,302.2,286.5,303.1z M296,311.7c-0.3,0-0.6-0.1-0.9-0.1c-0.4-0.1-0.8-0.3-1.2-0.5
	c-0.4-0.3-0.8-0.6-1.2-0.9c-0.4-0.4-0.7-0.8-1-1.2c-0.2-0.4-0.4-0.8-0.6-1.2c-0.1-0.3-0.2-0.6-0.2-0.9v-0.4l0.3,0.2
	c0.2,0.1,0.5,0.3,0.8,0.5s0.6,0.5,1,0.8s0.7,0.6,1,0.9s0.6,0.6,1,0.9s0.6,0.6,0.8,0.9s0.4,0.5,0.6,0.7l0.2,0.3L296,311.7z
	 M288.1,300.3c0.4,0.5,0.8,0.9,1.3,1.3c0.7,0.5,1.4,1,2.1,1.5c0.8,0.5,1.7,1,2.6,1.5s1.8,1.1,2.7,1.7c0.8,0.6,1.4,1.2,2,2
	c0.4,0.5,0.7,1.2,0.9,1.8c0.1,0.2,0.1,0.5,0.1,0.7c-0.1-0.2-0.3-0.4-0.5-0.6c-0.4-0.5-0.9-0.9-1.4-1.3c-0.7-0.5-1.4-1-2.1-1.4
	c-0.8-0.5-1.7-1-2.7-1.4c-0.9-0.5-1.8-1.1-2.7-1.8c-0.8-0.6-1.4-1.3-2-2.1c-0.4-0.6-0.7-1.2-0.8-1.9c0-0.2-0.1-0.4-0.1-0.5v-0.2
	C287.8,299.9,287.9,300.1,288.1,300.3L288.1,300.3z"/>
<path class="st0" d="M286.4,269.4c0.8,0.3,1.7,0.6,2.6,0.8c0.9,0.3,1.8,0.6,2.7,1c0.8,0.4,1.5,0.8,2.2,1.4c0.5,0.4,0.8,0.9,1.1,1.4
	c0.2,0.4,0.3,0.6,0.3,0.6c-0.2-0.1-0.4-0.3-0.5-0.4c-0.5-0.3-1-0.6-1.5-0.8c-0.7-0.3-1.4-0.6-2.2-0.8c-0.8-0.3-1.7-0.5-2.6-0.7
	s-1.8-0.6-2.6-1v6.7c0.4,0.6,0.8,1.2,1.3,1.8c0.7,1.1,1.6,2.1,2.6,3c0.7,0.7,1.6,1.2,2.5,1.5c2.6,0.5,5.1,1.5,7.5,2.8
	c0.8,0.5,1.6,1.1,2.3,1.8c0,0,0-0.3-0.1-0.8s-0.1-1.3-0.2-2.2s-0.3-2-0.5-3.1c-0.2-1.2-0.6-2.4-0.9-3.6c-0.4-1.2-0.8-2.5-1.3-3.6
	c-0.5-1.1-1.1-2.2-1.7-3.2c-0.6-0.9-1.3-1.7-2.1-2.3c-0.7-0.5-1.5-0.9-2.4-1c-1.9-0.3-3.7-0.8-5.5-1.7c-0.5-0.2-0.9-0.4-1.3-0.6v3
	L286.4,269.4z"/>
<path class="st0" d="M276.5,240.2c1,0.2,1.9,0.5,2.8,0.9c0.8,0.3,1.6,0.8,2.2,1.4c0.5,0.4,0.9,0.9,1.1,1.4c0.1,0.2,0.2,0.4,0.3,0.6
	c-0.2-0.1-0.4-0.3-0.5-0.4c-0.5-0.3-0.9-0.6-1.5-0.8c-0.7-0.3-1.4-0.6-2.2-0.8h-0.1l7.2,4v4.9c1.1,0.1,2.2,0.4,3.3,0.7
	c0.9,0.2,1.8,0.6,2.7,1.1c0,0-0.1-0.3-0.3-0.8s-0.5-1.2-0.9-2s-0.8-1.8-1.4-2.9s-1.2-2.1-1.9-3.2c-0.7-1.1-1.5-2.1-2.3-3.1
	c-0.4-0.5-0.8-1-1.2-1.4c-0.4-0.4-0.9-0.8-1.3-1.2c-0.8-0.7-1.6-1.3-2.6-1.7c-0.8-0.4-1.6-0.5-2.5-0.4c-1.8,0.2-3.7,0.1-5.5-0.2
	c-2-0.3-3.9-0.8-5.8-1.4l-1.7-0.5l9.5,5.3L276.5,240.2z"/>
<path class="st0" d="M240.2,211.2c-0.8,0-1.5-0.1-2.1-0.1c-1.2-0.1-1.9-0.1-1.9-0.1l0.9,0.5l1.1,0.6c0.4,0.2,0.9,0.5,1.4,0.8
	c1,0.6,2.2,1.2,3.5,1.9l2,1.2l2.1,1.2c0.7,0.4,1.4,0.8,2.2,1.2s1.5,0.8,2.2,1.2c1.4,0.8,2.9,1.5,4.2,2.1c1.2,0.6,2.4,1,3.7,1.3
	c0.9,0.3,1.8,0.3,2.7,0.1c2.3-0.8,4.8-1.1,7.2-1c0.9,0,1.9,0.2,2.8,0.4c0,0-0.7-1-1.9-2.4c-0.6-0.7-1.4-1.5-2.2-2.3
	s-1.7-1.7-2.7-2.6c-1-0.8-2-1.6-3-2.4c-1-0.7-2-1.3-3.1-1.8c-0.9-0.5-1.9-0.8-2.9-0.9c-0.8-0.2-1.6-0.1-2.4,0.2
	c-0.8,0.3-1.6,0.5-2.4,0.7c-0.9,0.2-1.8,0.3-2.8,0.4c-1,0.1-2,0.1-2.9,0.1s-2,0-2.9,0S241,211.3,240.2,211.2z M245.1,214.2
	c0.6,0,1.1-0.1,1.7-0.1c0.8-0.1,1.5-0.3,2.3-0.6c0.8-0.2,1.7-0.6,2.7-0.9c1-0.2,1.9-0.4,2.9-0.4c0.9,0,1.8,0.1,2.6,0.3
	c0.6,0.2,1.2,0.4,1.7,0.7c0.4,0.2,0.6,0.4,0.6,0.4c-0.2,0-0.4-0.1-0.7-0.1c-0.6-0.1-1.1-0.1-1.7-0.1c-0.8,0-1.6,0.1-2.3,0.2
	c-0.9,0.1-1.8,0.3-2.6,0.6c-0.9,0.2-1.9,0.5-2.8,0.6c-0.9,0.2-1.7,0.2-2.6,0.1c-0.6-0.1-1.2-0.3-1.8-0.5c-0.2-0.1-0.4-0.2-0.6-0.4
	C244.6,214.2,244.8,214.2,245.1,214.2L245.1,214.2z"/>
<path class="st0" d="M212.8,197.6l2.1,0.5c0.7,0.2,1.5,0.3,2.3,0.5l2.4,0.6c0.8,0.2,1.6,0.4,2.4,0.6l2.4,0.6
	c0.8,0.2,1.6,0.3,2.3,0.5s1.5,0.3,2.2,0.4s1.4,0.2,2,0.3c0.6,0.1,1.2,0.1,1.8,0.1c0.9,0.1,1.8-0.1,2.6-0.6c2-1.2,4.1-2.1,6.4-2.6
	c0.9-0.2,1.8-0.3,2.7-0.3l-0.7-0.5c-0.4-0.3-1.1-0.7-1.8-1.2s-1.7-1.1-2.7-1.7s-2.2-1.1-3.3-1.7c-1.2-0.5-2.4-1-3.6-1.4
	c-1.1-0.4-2.3-0.7-3.5-0.9c-1-0.2-2-0.3-3-0.2c-0.8,0-1.6,0.3-2.2,0.8c-1.4,1-2.9,1.7-4.5,2.1c-1.8,0.6-3.6,1.1-5.5,1.5
	c-1.8,0.4-3.4,0.7-4.5,0.9l-1.9,0.4l3.8,0.9C211.5,197.3,212.1,197.4,212.8,197.6z M216.8,196.9c0.6-0.1,1.2-0.2,1.9-0.3
	c0.8-0.1,1.6-0.4,2.5-0.7s1.9-0.6,2.9-0.9c1-0.3,2.1-0.5,3.2-0.6c1-0.1,1.9-0.1,2.9,0.1c0.7,0.1,1.3,0.4,1.9,0.7
	c0.2,0.1,0.4,0.3,0.6,0.4c-0.2,0-0.5-0.1-0.7-0.1c-0.6-0.1-1.2-0.1-1.9,0c-0.9,0.1-1.7,0.2-2.6,0.4c-1,0.2-2,0.5-2.9,0.8
	c-1,0.2-2.1,0.5-3.1,0.7c-0.9,0.2-1.9,0.2-2.8,0.2c-0.7,0-1.4-0.1-2-0.4c-0.2-0.1-0.5-0.2-0.7-0.3C216,197,216.4,197,216.8,196.9
	L216.8,196.9z"/>
<path class="st0" d="M191.1,432l0.5-0.3l21.3-11.9l8.2-4.6l1.6-0.9l1.8-1l1.5-0.8l2.4-1.3l14.8-8.2l5.9-3.3l1.3-0.7l2.8-1.6l0.9-0.5
	l2.7-1.5l14.3-8l6.5-3.6l1.2-0.6l7.2-4.1V246.6l-7.2-4l-4.7-2.6l-9.5-5.3l-63.1-35.3c-0.2,0.5-0.4,1-0.5,1.5c-0.6,1.7-1.3,3.7-2,6
	l79.3,44.4v123.2l-110.5,61.8L57.2,374.4V251.1l79.3-44.4c-0.7-2.2-1.4-4.2-2-6c-0.2-0.5-0.4-1-0.5-1.5l-63.1,35.4l-9.5,5.3
	l-4.7,2.6l-7.2,4v132.4l7.2,4.1l1.2,0.6l6.5,3.6l14.3,8l2.7,1.5l1,0.5l2.8,1.6l1.3,0.7l5.9,3.3l14.7,8.3l2.3,1.3l1.5,0.8l1.8,1
	l1.6,0.9l8.2,4.6l21.3,11.9l0.4,0.2l9.6,5.4l0.3,0.2l1.4,0.8l2.9,1.6l9.2,5.2l9.3-5.2l2.9-1.6l1.4-0.8l0.3-0.2L191.1,432z"/>
<path class="st0" d="M196.2,216.7l71.6,40.1v94.8l-34.9,11.8l-0.1,24.9l-65.1,36.5l-65.1-36.5v-24.9l-35-11.8v-94.8l71.6-40.1
	c-0.3-1.7-0.7-3.3-1.1-4.8L62.7,254v117.5l104.9,58.7l104.9-58.7V254l-75.2-42.1C196.9,213.4,196.5,215,196.2,216.7z"/>
<polygon class="st0" points="169.2,412.7 167.6,409.4 166,412.7 162.4,413.2 165,415.7 164.4,419.3 167.6,417.6 170.8,419.3 
	170.2,415.7 172.8,413.2 "/>
<path class="st1" d="M214.7,24.2v341.9h-85.3V182.8c0-26.5-0.6-42.4-1.9-47.7c-1.3-5.3-4.8-9.4-10.5-12.1
	c-5.7-2.7-18.4-4.1-38.1-4.1h-8.4V79c41.3-8.9,72.6-27.1,94-54.8H214.7z"/>
</svg>
