<?xml version="1.0" encoding="utf-8"?>
<!-- Generator: Adobe Illustrator 26.0.1, SVG Export Plug-In . SVG Version: 6.00 Build 0)  -->
<svg version="1.1" id="Слой_1" xmlns="http://www.w3.org/2000/svg" xmlns:xlink="http://www.w3.org/1999/xlink" x="0px" y="0px"
	 viewBox="0 0 335.3 488" style="enable-background:new 0 0 335.3 488;" xml:space="preserve">
<style type="text/css">
	.st0{fill:#3A6AB2;}
	.st1{fill:#3482F6;}
</style>
<path class="st0" d="M144.1,418.1l-0.4-0.2l0,0L144.1,418.1z"/>
<path class="st0" d="M153.9,424.8c-0.7,0.1-1.5,0.2-2.4,0.3s-1.8,0.1-2.8,0.1h-1.6c-0.5,0-1.1-0.1-1.7-0.1c-1.3-0.1-2.6,0.2-3.7,0.7
	c-1.5,0.7-2.9,1.4-4.2,2.3c-1.5,1-3,2.1-4.5,3.4s-3.1,2.5-4.6,3.8s-2.9,2.5-4.3,3.7l-3.6,3.2c-2.1,1.8-3.4,3-3.4,3s1.1-0.2,2.8-0.5
	c0.9-0.1,1.9-0.3,3.1-0.6s2.5-0.4,3.8-0.7c1.4-0.2,2.8-0.4,4.3-0.7s3-0.4,4.5-0.6l2.2-0.2c0.7-0.1,1.5-0.1,2.2-0.1
	c1.4-0.1,2.7,0,4.1,0.1c2.5,0.2,5-0.7,6.9-2.5c2-1.8,3.6-4.1,4.7-6.5c1.1-2.2,1.9-4.5,2.6-6.9l-2.9-1.6
	C155,424.6,154.4,424.7,153.9,424.8z M150.2,434.3c-0.1,0.2-0.3,0.5-0.4,0.7c-0.6,0.8-1.3,1.5-2.2,2.1c-1.2,0.8-2.5,1.4-3.9,1.8
	c-1.6,0.4-3.2,0.6-4.8,0.7c-1.6,0-3.2,0-4.7,0.1c-1.3,0-2.7,0.2-4,0.4c-0.9,0.2-1.9,0.4-2.8,0.7c-0.3,0.1-0.7,0.3-1,0.4
	c0.3-0.3,0.6-0.5,0.9-0.7c0.8-0.6,1.7-1.1,2.7-1.4c1.3-0.5,2.7-0.8,4.1-1c1.5-0.2,3.2-0.2,4.7-0.4c1.5,0,3.1-0.2,4.6-0.4
	c1.3-0.2,2.6-0.6,3.8-1.1c0.9-0.4,1.7-0.9,2.4-1.5c0.3-0.2,0.6-0.5,0.8-0.7L150.2,434.3z M150.9,429.9c-0.4,0.5-0.9,1-1.4,1.5
	c-0.7,0.7-1.4,1.3-2.2,1.8c-0.9,0.6-1.9,1.2-2.9,1.6c-1,0.4-2.1,0.8-3.1,1.1c-0.9,0.2-1.9,0.4-2.8,0.5c-0.7,0.1-1.3,0.1-2,0
	l-0.8-0.1l0.7-0.3c0.4-0.1,1.1-0.4,1.9-0.7s1.6-0.7,2.6-1s1.9-0.8,2.9-1.3c1-0.4,1.9-0.9,2.8-1.4c0.9-0.5,1.7-0.9,2.4-1.3
	s1.3-0.7,1.7-1l0.7-0.4L150.9,429.9z"/>
<path class="st0" d="M107,402.4c-0.2,1.1,0,2.1,0.4,3.1c0.4,1,1,2,1.8,2.8c0.8,0.9,1.7,1.8,2.8,2.5c1.1,0.7,2.2,1.4,3.3,2
	c1.1,0.6,2.2,1.1,3.4,1.5c1.1,0.4,2.1,0.7,3,1c0.7,0.2,1.4,0.4,2.1,0.5l0.8,0.1c-0.5-1-0.9-2.1-1.2-3.2c-0.6-2.2-0.9-4.5-1-6.7
	l-8.2-4.6c-0.1,0.6-0.2,1.2-0.4,1.8c-0.2,0.4-0.3,0.9-0.6,1.3l-0.3,0.5c0,0,0-0.2-0.1-0.5s-0.1-0.8-0.1-1.4s-0.1-1.2-0.1-1.8
	c0-0.2,0-0.4-0.1-0.6l-1.8-1c-0.1,0.6-0.2,1.2-0.3,1.8c-0.1,0.6-0.3,1.3-0.5,1.9l-0.3,0.7l-0.1-0.7c0-0.5-0.1-1.1-0.2-1.9
	s-0.1-1.6-0.2-2.5l-2.4-1.3C107.2,399,107.2,400.7,107,402.4z"/>
<path class="st0" d="M153.6,423.5c-0.7-0.1-1.7-0.3-3-0.5l-2.2-0.4c-0.8-0.1-1.7-0.3-2.6-0.5c-1.9-0.4-4-0.7-6.4-1.3l-3.8-0.9
	l-4.1-1.1c-0.7-0.2-1.4-0.4-2.2-0.6l-2.2-0.7c-1.5-0.5-3.1-0.9-4.7-1.5c-7.2-2.4-14.3-5.3-21-8.8c-8-4.2-15.5-9.1-22.4-14.8
	l-2.8-2.3l-2.7-2.4c-1.9-1.6-3.6-3.4-5.4-5.1c-0.9-0.9-1.7-1.8-2.6-2.8S63.8,378,63,377c-1.6-2-3.4-3.9-4.9-6
	c-0.5-0.6-0.9-1.2-1.4-1.8l-7.3-4.1v-6.6l-0.4-0.6c-1.3-2.4-2.7-4.7-3.9-7.1c-0.6-1.2-1.3-2.4-1.8-3.7l-1.7-3.8
	c-0.6-1.2-1.1-2.5-1.6-3.8s-1-2.6-1.5-3.9c-0.9-2.6-1.8-5.2-2.5-7.9c-1.5-5.4-2.7-10.8-3.6-16.4c-0.3-2.8-0.8-5.5-0.9-8.3
	c-0.1-1.4-0.2-2.8-0.3-4.2l-0.1-4.2c0-0.7,0-1.4,0-2.1v-2.1c0-1.4,0-2.8,0.1-4.2s0.2-2.8,0.3-4.1s0.3-2.7,0.4-4.1
	c0.6-5.4,1.6-10.8,2.9-16.1c1.3-5.2,2.9-10.3,4.8-15.2c3.6-9.4,8.3-18.4,14-26.7l2-2.9l2.1-2.8c0.7-0.9,1.4-1.9,2.1-2.7
	s1.4-1.8,2.2-2.6c1.5-1.7,2.9-3.4,4.4-5c0.8-0.8,1.5-1.6,2.2-2.4l2.3-2.2c5.5-5.3,11.5-10.1,17.8-14.4c4.9-3.3,9.9-6.4,15.2-9.1
	c4.4-2.2,7.9-3.9,10.3-5c1.2-0.5,2.2-0.9,2.8-1.2l1-0.4l-1,0.3c-0.7,0.2-1.6,0.5-2.9,0.9c-3.7,1.2-7.3,2.5-10.8,4.1
	c-2,0.9-4.1,1.9-6.3,3h0.1c1.7-1.1,3.4-2.1,5.2-3c1.1-0.6,2.1-1.3,2.9-2.1c1-1,1.9-2,2.7-3.1c0.9-1.1,1.7-2.3,2.6-3.6
	s1.6-2.5,2.4-3.7l2.1-3.5c0.6-1.1,1.2-2.1,1.7-2.9c1-1.7,1.6-2.8,1.6-2.8l-2.1,1.4l-2.3,1.5c-0.9,0.6-1.8,1.2-2.9,1.9
	s-2.2,1.4-3.3,2.1s-2.3,1.5-3.4,2.2s-2.3,1.5-3.5,2.2c-0.6,0.3-1.2,0.7-1.7,1s-1.1,0.6-1.7,0.9c-1,0.5-2,1.2-2.8,2
	c-0.8,0.7-1.4,1.6-1.9,2.5c-0.9,1.7-1.5,3.5-1.6,5.4c-0.2,1.7-0.1,3.3,0.1,5c-1.1,0.7-2.3,1.4-3.4,2.1c-6.4,4.1-12.3,8.8-17.8,14
	c0.4-0.5,0.9-1,1.4-1.4c0.9-0.9,1.6-1.9,2.2-2.9c0.7-1.2,1.2-2.5,1.7-3.8c0.5-1.4,0.9-2.8,1.3-4.3s0.7-3,1.1-4.4
	c0.7-2.9,1.2-5.6,1.6-7.6s0.6-3.2,0.6-3.2l-1.6,2c-1,1.2-2.4,3-4,4.9c-0.8,1-1.6,2-2.5,3.1l-1.3,1.6c-0.4,0.5-0.9,1.1-1.3,1.6
	c-0.9,1.1-1.8,2.1-2.8,3.1c-0.9,1-1.8,1.9-2.7,2.8c-1.7,1.5-2.8,3.5-3.2,5.8c-0.3,2-0.3,4,0.2,6c0.4,1.6,0.9,3.1,1.6,4.6l0.1,0.2
	l-2.1,2.3c-3.1,3.6-6,7.4-8.7,11.3c-1.7,2.5-3.4,5.2-5,7.9c0.3-0.6,0.6-1.1,1-1.7c0.6-1.1,1-2.3,1.2-3.5c0.2-1.4,0.3-2.8,0.3-4.2
	c0-1.6,0-3.1-0.1-4.6c-0.1-1.6-0.2-3.1-0.3-4.7s-0.3-3-0.5-4.4s-0.3-2.6-0.4-3.6l-0.5-3.4l-0.3,0.6l-0.7,1.8l-1.1,2.6
	c-0.4,1-0.8,2.1-1.3,3.3l-1.5,3.7c-0.5,1.3-1,2.6-1.6,3.9s-1.1,2.6-1.7,3.8s-1.2,2.4-1.9,3.4c-0.6,1-1,2.1-1.3,3.3
	c-0.2,1.1-0.2,2.2-0.1,3.3c0.3,2.1,1,4.1,2.1,5.9c0.9,1.6,2.1,3,3.3,4.4c-1.5,3.1-2.9,6.3-4.2,9.7c-1.9,5.1-3.5,10.3-4.8,15.6
	c-0.2,0.7-0.3,1.4-0.5,2.1c0.2-1.4,0.4-2.7,0.8-4.1c0.3-1.2,0.3-2.5,0.1-3.7c-0.2-1.4-0.5-2.8-0.9-4.2c-0.5-1.5-1-3-1.6-4.5
	s-1.3-3-1.9-4.5s-1.3-2.9-1.9-4.2l-1.6-3.5c-0.9-2-1.5-3.3-1.5-3.3s-0.1,1-0.2,2.6s-0.2,3.9-0.5,6.5c-0.1,1.3-0.2,2.6-0.3,4
	s-0.3,2.8-0.4,4.2s-0.3,2.8-0.6,4.1c-0.2,1.3-0.4,2.6-0.8,3.9c-0.3,1.2-0.4,2.4-0.2,3.5c0.1,1.1,0.4,2.2,0.9,3.2c1,2,2.3,3.7,4,5.1
	c1.4,1.2,2.9,2.2,4.4,3.1l0.5,0.3c-0.3,1.9-0.6,3.8-0.8,5.7l-0.4,4.2c-0.1,1.4-0.2,2.8-0.3,4.2s-0.1,2.8-0.1,4.2v2.1
	c0,0.8,0,1.4,0,2.1l0.1,4.3c0,0.9,0.1,1.8,0.2,2.7c-0.1-0.5-0.2-1.1-0.3-1.7c-0.1-1-0.2-2.1-0.2-3.2c-0.1-1.2-0.4-2.5-1-3.6
	c-0.6-1.3-1.3-2.6-2.2-3.8c-0.5-0.6-0.9-1.3-1.5-1.9s-1-1.3-1.5-2c-1.1-1.3-2.2-2.6-3.3-3.8c-2.2-2.5-4.3-4.8-5.9-6.4
	s-2.6-2.7-2.6-2.7s0.2,1,0.6,2.6c0.2,0.8,0.4,1.8,0.7,2.9s0.5,2.3,0.8,3.5s0.6,2.6,0.9,4s0.6,2.8,0.9,4.2s0.4,2.8,0.7,4.1
	c0.2,1.3,0.3,2.7,0.4,4c0.1,2.4,1,4.6,2.7,6.3c1.6,1.6,3.5,2.9,5.5,3.8c2,0.8,4,1.5,6.1,1.9c0.1,0.7,0.2,1.4,0.2,2
	c0.8,5.7,1.9,11.3,3.4,16.8c0.7,2.8,1.6,5.5,2.5,8.1c0.1,0.3,0.2,0.6,0.3,0.9c-0.5-1.1-1-2.3-1.4-3.6c-0.2-0.6-0.5-1.1-0.8-1.6
	c-0.3-0.6-0.7-1.1-1.2-1.5c-1-1.1-2.1-2.1-3.3-3c-1.3-1-2.6-1.9-4.1-2.9s-3-1.9-4.5-2.7l-4.2-2.5l-3.6-2l-3.5-1.9
	c0,0,0.1,0.2,0.4,0.6l1.1,1.7l1.5,2.6c0.6,1,1.1,2.1,1.9,3.2s1.4,2.3,2.1,3.6l2.1,3.8c0.7,1.3,1.3,2.5,1.9,3.8s1.1,2.5,1.5,3.7
	c0.8,2.3,2.4,4.2,4.5,5.3c2.1,1.1,4.4,1.8,6.7,2c2,0.2,4,0.2,6,0h0.5c0.3,0.8,0.7,1.6,1,2.4c0.6,1.3,1.2,2.5,1.8,3.8
	c1.2,2.5,2.6,4.9,3.9,7.4c1.6,2.8,3.4,5.6,5.1,8.2l0,0c-0.8-1-1.7-1.8-2.8-2.5c-1.3-0.7-2.7-1.4-4.2-1.8c-1.5-0.6-3.2-1.1-4.9-1.5
	s-3.5-0.8-5.3-1.2c-3.4-0.8-6.8-1.4-9.2-1.9l-4-0.8l0.5,0.5c0.4,0.3,0.9,0.8,1.5,1.4c1.3,1.1,3.1,2.7,5,4.5c1,0.9,2.1,1.8,3.1,2.8
	s2.1,2,3.1,3s2,2,3,3.1s1.7,2.1,2.5,3.2c1.4,2,3.6,3.3,6,3.7c2.4,0.4,4.9,0.3,7.2-0.2c2.1-0.4,4.1-1.1,6-1.9l0.2-0.1
	c5,6.1,10.6,11.7,16.7,16.9c-0.7-0.4-1.5-0.7-2.3-0.9c-1.5-0.3-3.1-0.5-4.6-0.5c-1.8-0.1-3.5,0-5.3,0.1c-1.8,0.1-3.7,0.3-5.5,0.4
	c-3.6,0.3-7.1,0.7-9.7,1s-4.2,0.5-4.2,0.5l2.5,1.2c1.6,0.7,3.8,1.7,6.2,2.9c1.2,0.6,2.5,1.2,3.8,1.8s2.6,1.3,3.9,2s2.6,1.4,3.8,2.1
	s2.3,1.6,3.3,2.3c2,1.5,4.4,2.2,6.9,1.8c2.5-0.4,4.9-1.2,7.1-2.5c1.9-1.1,3.7-2.3,5.4-3.8l0.1-0.1l1,0.7c1.9,1.3,3.9,2.4,5.8,3.6
	l5.8,3.2l5.7,2.8l3.2,1.4c-1-0.3-2.1-0.4-3.2-0.3c-1.6,0.2-3.1,0.5-4.6,0.9c-1.7,0.5-3.5,1.1-5.2,1.7c-0.9,0.3-1.8,0.7-2.7,1.1
	l-2.6,1c-1.7,0.7-3.4,1.5-5,2.2l-4.2,1.9c-2.4,1.1-4,1.8-4,1.8s1.1,0.1,2.8,0.4l3.1,0.4c1.2,0.1,2.5,0.3,3.8,0.5s2.8,0.4,4.2,0.6
	s2.9,0.5,4.4,0.8s2.9,0.6,4.3,1c1.3,0.4,2.6,0.8,3.9,1.3c2.3,0.9,4.9,0.8,7.2-0.3c2.4-1.2,4.5-2.7,6.2-4.7c1.6-1.7,3-3.5,4.2-5.4
	l0.3-0.4h0.1c5.8,1.7,11.7,2.8,17.7,3.5c2.5,0.3,4.7,0.4,6.7,0.5c1,0,1.9,0.1,2.7,0.1h2.2c1.3,0,2.4-0.1,3-0.1h0.5L153.6,423.5
	L153.6,423.5z M93.3,175.1c0-0.2,0.1-0.4,0.2-0.7c0.3-0.9,0.7-1.7,1.2-2.5c0.7-1.1,1.6-2.1,2.6-3c1.1-1,2.3-1.8,3.6-2.6l3.8-2.1
	c1.2-0.7,2.3-1.2,3.3-1.8s1.7-1,2.2-1.4s0.9-0.6,0.9-0.6s-0.2,0.3-0.6,0.8c-0.6,0.7-1.2,1.4-1.9,2c-1,0.8-2,1.6-3.1,2.3l-3.7,2.3
	c-1.2,0.7-2.4,1.5-3.5,2.3c-1,0.7-1.9,1.5-2.8,2.4c-0.6,0.6-1.2,1.3-1.7,2c-0.2,0.3-0.4,0.5-0.6,0.8L93.3,175.1z M63.7,194.4
	c0.2-1.3,0.5-2.5,1.1-3.6c0.7-1.2,1.5-2.4,2.5-3.4l2.9-2.9c0.8-0.8,1.6-1.7,2.3-2.6c0.5-0.6,1-1.3,1.4-2c0.2-0.3,0.3-0.6,0.5-0.9
	c0,0,0,0.4-0.1,1c-0.2,0.9-0.5,1.7-0.9,2.4c-0.6,1.1-1.2,2.1-2,3.1l-2.7,3.1c-0.9,0.9-1.8,1.9-2.5,3c-0.6,0.9-1.1,1.9-1.5,3
	c-0.3,0.8-0.4,1.6-0.5,2.4c0,0.3,0,0.7,0,1c-0.1-0.3-0.3-0.6-0.4-0.9C63.6,196.2,63.5,195.3,63.7,194.4z M45.4,216.9
	c0-0.8,0-1.7,0-2.6s0.1-1.7,0.1-2.6s0.1-1.6,0.1-2.3s0.1-1.2,0.2-1.6s0.1-0.6,0.1-0.6l0.2,0.6c0.2,0.5,0.4,1,0.5,1.6
	c0.2,0.8,0.3,1.5,0.4,2.3c0.1,0.9,0.1,1.8,0.1,2.7s-0.2,1.8-0.3,2.7c-0.1,0.8-0.3,1.5-0.5,2.3c-0.2,0.5-0.4,1-0.6,1.6l-0.3,0.6
	c0,0,0-0.2-0.1-0.6s-0.1-1-0.1-1.6S45.4,217.7,45.4,216.9z M40.5,228.8l-0.4,0.5c0,0,0-0.2,0.1-0.6s0.1-1,0.2-1.6s0.2-1.5,0.3-2.3
	s0.3-1.7,0.3-2.6s0.3-1.8,0.4-2.6s0.2-1.6,0.3-2.3s0.2-1.2,0.2-1.6s0.1-0.6,0.1-0.6l0.2,0.6c0.2,0.5,0.3,1.1,0.4,1.6
	c0.2,0.8,0.2,1.6,0.3,2.4c0,0.9,0,1.8-0.1,2.8s-0.4,1.8-0.6,2.7c-0.2,0.8-0.5,1.5-0.9,2.2C41.1,227.8,40.8,228.3,40.5,228.8z
	 M27.7,260.4c0,0.5-0.1,1.1-0.3,1.6l-0.2,0.6c0,0-0.1-0.2-0.2-0.6s-0.3-0.9-0.4-1.5s-0.4-1.4-0.5-2.1s-0.3-1.6-0.5-2.4
	s-0.3-1.6-0.5-2.4s-0.3-1.5-0.4-2.1s-0.2-1.2-0.3-1.6s-0.1-0.6-0.1-0.6s0.1,0.2,0.4,0.5c0.3,0.4,0.6,0.9,0.9,1.4
	c0.4,0.7,0.7,1.3,1,2.1c0.3,0.8,0.5,1.6,0.8,2.5c0.2,0.9,0.2,1.8,0.3,2.6C27.9,258.9,27.8,259.6,27.7,260.4z M28.7,253.9l-0.3-0.6
	c-0.2-0.4-0.5-0.9-0.7-1.6s-0.6-1.5-0.9-2.3s-0.5-1.8-0.8-2.7l-0.6-2.8c-0.2-0.9-0.2-1.7-0.3-2.4s-0.1-1.3-0.1-1.8s0-0.7,0-0.7
	l0.3,0.6c0.2,0.4,0.5,0.9,0.7,1.6s0.6,1.4,0.9,2.3l0.8,2.7c0.2,0.9,0.4,1.9,0.5,2.8s0.2,1.7,0.3,2.4s0.1,1.3,0.1,1.8
	S28.7,253.9,28.7,253.9z M22.2,301c-0.1,0.4-0.1,0.6-0.1,0.6l-0.2-0.5c-0.1-0.4-0.4-0.8-0.6-1.4s-0.5-1.2-0.7-2s-0.5-1.5-0.9-2.2
	s-0.5-1.5-0.8-2.2s-0.5-1.4-0.8-1.9s-0.4-1.1-0.5-1.4l-0.2-0.6l0.5,0.4c0.4,0.3,0.8,0.7,1.1,1.1c0.5,0.6,0.9,1.1,1.3,1.8
	c0.4,0.7,0.8,1.5,1.1,2.2s0.5,1.6,0.7,2.4c0.1,0.7,0.2,1.4,0.2,2.2C22.3,300,22.2,300.5,22.2,301z M24.2,294
	c-0.2-0.3-0.7-0.7-1.1-1.3s-1-1.1-1.4-1.8s-1-1.4-1.6-2.1s-1-1.5-1.5-2.1s-0.9-1.4-1.3-1.9s-0.7-1.1-0.9-1.4l-0.3-0.6l0.6,0.3
	c0.5,0.3,1,0.6,1.4,1c0.6,0.5,1.2,1,1.8,1.6c0.6,0.6,1.2,1.4,1.8,2.1s1,1.6,1.5,2.3c0.4,0.7,0.7,1.4,1,2.2c0.2,0.5,0.4,1.1,0.5,1.6
	c0.1,0.4,0.1,0.6,0.1,0.6L24.2,294z M18.9,324.9c-0.7-0.4-1.2-0.8-1.6-1l-0.6-0.4l0.7,0.1c0.6,0.1,1.3,0.3,1.9,0.5
	c0.9,0.3,1.7,0.6,2.5,1c0.9,0.5,1.8,1.1,2.7,1.7s1.6,1.4,2.3,2.1c0.6,0.7,1.2,1.5,1.7,2.3c0.4,0.5,0.7,1.1,1,1.7l0.3,0.7l-0.6-0.5
	c-0.3-0.3-0.9-0.7-1.4-1.2s-1.3-1.1-2-1.7c-0.7-0.7-1.5-1.3-2.3-1.8c-0.8-0.6-1.6-1.2-2.4-1.8S19.5,325.3,18.9,324.9L18.9,324.9z
	 M29.5,340.7c-0.2-0.3-0.6-0.7-1-1.2s-0.9-1.1-1.4-1.7s-1-1.3-1.6-2s-1.1-1.4-1.6-2s-1-1.2-1.4-1.7s-0.8-1-1-1.3l-0.4-0.4l0.6,0.2
	c0.5,0.2,1,0.5,1.5,0.8c0.7,0.4,1.3,0.9,1.9,1.4c0.6,0.6,1.3,1.2,1.9,1.9s1.1,1.5,1.5,2.2c0.4,0.7,0.7,1.4,1,2.1
	c0.2,0.5,0.3,1,0.5,1.6l0.1,0.6L29.5,340.7z M30.2,362.3H31c0.7,0,1.3,0.1,2,0.2c0.9,0.1,1.8,0.3,2.7,0.6c1,0.3,2,0.7,3,1
	s1.9,1,2.8,1.5c0.8,0.5,1.6,1,2.3,1.5c0.5,0.4,1,0.8,1.5,1.3l0.5,0.5l-0.7-0.2c-0.4-0.2-1.1-0.4-1.8-0.7s-1.6-0.6-2.5-1
	s-1.9-0.8-2.9-1.2s-1.9-0.9-2.8-1.2s-1.7-0.8-2.5-1.1s-1.3-0.6-1.8-0.8L30.2,362.3z M49.2,377.6c-0.8,0.2-1.7,0.3-2.6,0.1
	c-1.2-0.2-2.4-0.6-3.5-1.3c-1.2-0.8-2.3-1.6-3.3-2.6c-1-1-1.8-2.1-2.7-3s-1.6-1.9-2.3-2.5c-0.6-0.6-1.2-1.1-1.9-1.6
	c-0.2-0.2-0.5-0.4-0.8-0.5c0,0,0.3,0.1,0.9,0.2c0.8,0.3,1.6,0.6,2.3,1.1c1,0.7,2,1.4,2.8,2.2c0.9,0.9,1.9,1.9,2.8,2.9
	c0.9,1,1.8,1.8,2.9,2.6c0.9,0.7,1.8,1.2,2.9,1.6c0.7,0.3,1.5,0.5,2.3,0.5c0.3,0,0.6,0,0.9,0C49.8,377.4,49.5,377.5,49.2,377.6z
	 M77.1,404.1c-0.2,0.2-0.4,0.4-0.7,0.5c-0.8,0.6-1.8,1-2.8,1.1c-1.4,0.2-2.9,0.1-4.3-0.2c-1.6-0.5-3.1-1.2-4.5-2
	c-1.4-0.9-2.7-1.8-4-2.5c-1.1-0.7-2.3-1.3-3.5-1.9c-0.9-0.4-1.8-0.6-2.7-0.8c-0.4-0.1-0.7-0.1-1.1-0.1c0.4-0.1,0.7-0.2,1.1-0.2
	c1-0.1,2,0,3,0.2c1.4,0.3,2.7,0.8,4,1.5c1.4,0.7,2.7,1.6,4.1,2.4c1.3,0.8,2.6,1.5,4,2c1.2,0.5,2.5,0.7,3.8,0.7
	c0.9,0,1.9-0.1,2.8-0.4C76.5,404.2,76.7,404.1,77.1,404.1l0.2-0.2L77.1,404.1z M78.8,400.7c-0.4,0.3-0.8,0.5-1.2,0.8
	c-0.6,0.3-1.2,0.5-1.9,0.6c-0.8,0.1-1.5,0.2-2.3,0.2c-0.8-0.1-1.5-0.3-2.2-0.5c-0.6-0.2-1.2-0.5-1.8-0.9c-0.4-0.3-0.8-0.6-1.1-0.9
	l-0.3-0.4l0.5,0.1c0.3,0.1,0.8,0.1,1.3,0.3s1.1,0.2,1.8,0.3c0.7,0.1,1.3,0.2,2,0.2c0.7,0.1,1.3,0.1,2,0.1c0.6,0,1.3,0,1.8-0.1
	s1,0,1.3-0.1h0.5L78.8,400.7z M100.8,423.4c0.4-0.1,0.8-0.1,1.2-0.1c0.5,0,1.1,0,1.6,0l1.8,0.2l1.8,0.4c0.5,0.2,1,0.3,1.5,0.5
	c0.3,0.2,0.7,0.3,1,0.5l0.4,0.2l-0.4,0.1c-0.4,0.1-0.8,0.1-1.2,0.1c-0.5,0-1,0.1-1.6,0l-1.8-0.2l-1.8-0.4c-0.5-0.2-1-0.3-1.5-0.5
	c-0.3-0.2-0.7-0.3-1-0.5l-0.4-0.2L100.8,423.4z M113.6,426.3c-0.2,0.1-0.4,0.3-0.7,0.6c-0.9,0.6-1.8,1.1-2.9,1.3
	c-1.5,0.4-3,0.5-4.5,0.4c-1.7-0.2-3.4-0.6-5-1.1c-1.6-0.6-3.2-1.2-4.6-1.6c-1.3-0.5-2.7-0.8-4.1-1.1c-1-0.2-2-0.3-3-0.3
	c-0.4,0-0.8,0-1.2,0c0.4-0.1,0.7-0.3,1.1-0.4c1-0.3,2.1-0.4,3.1-0.3c1.5,0,2.9,0.3,4.4,0.6c1.6,0.4,3.2,0.9,4.8,1.4
	c1.5,0.5,3,1,4.6,1.2c1.4,0.2,2.7,0.3,4.1,0.2c1-0.1,1.9-0.3,2.9-0.6c0.3-0.1,0.5-0.2,0.8-0.3l0.3-0.1L113.6,426.3z"/>
<path class="st0" d="M78.6,389.3c0.5,1.1,1.2,2.1,2,3.1c0.8,1,1.7,1.9,2.7,2.8c0.9,0.8,1.9,1.6,2.9,2.4c0.9,0.7,1.8,1.3,2.6,1.8
	c1.6,1,2.6,1.5,2.6,1.5c-0.2-1.1-0.3-2.2-0.3-3.3c0-2.8,0.5-5.7,1.3-8.4l-5.9-3.3c-0.1,0.2-0.1,0.4-0.2,0.6
	c-0.1,0.4-0.3,0.8-0.5,1.1l-0.3,0.4l-0.1-0.5c0-0.3-0.1-0.7-0.1-1.2s-0.1-0.8-0.1-1.2l-2.8-1.6c-0.2,0.8-0.5,1.4-0.7,1.8
	s-0.3,0.7-0.3,0.7s0-0.3,0-0.8s0-1.2,0.1-2V383l-2.7-1.5c-0.2,0.6-0.4,1.1-0.6,1.7C77.2,385.1,77.6,387.1,78.6,389.3z"/>
<path class="st0" d="M61.5,374.8c1.2,1.4,2.1,2.2,2.1,2.2c0-1.1,0.2-2.1,0.5-3.2l0.1-0.4l-6.5-3.6c0.6,0.9,1.2,1.8,1.8,2.5
	S61,374.1,61.5,374.8z"/>
<path class="st0" d="M48.1,331.2c-0.5,0.4-1,0.7-1.6,0.9c-0.4,0.2-0.8,0.3-1.2,0.4l-0.5,0.1l0.3-0.4c0.2-0.2,0.5-0.6,0.8-0.9
	s0.7-0.8,1.1-1.2c0.4-0.5,0.8-0.9,1.2-1.4c0.4-0.5,0.8-1,1.1-1.5l0.1-0.1v-5.6c-0.1,0.4-0.2,0.8-0.4,1.1c-0.4,0.8-0.8,1.7-1.3,2.4
	c-0.5,0.7-1.1,1.4-1.7,2c-0.6,0.5-1.2,1-1.8,1.4c-0.4,0.3-0.8,0.6-1.1,1c-0.1,0.2-0.2,0.3-0.3,0.5c0-0.2,0-0.4,0-0.6
	c0.1-0.6,0.3-1.1,0.7-1.6c0.4-0.6,0.9-1.2,1.4-1.8c0.5-0.6,1-1.3,1.4-2c0.5-0.7,1-1.4,1.3-2.1c0.4-0.7,0.8-1.3,1.1-1.9
	s0.5-1,0.7-1.3v-3.9l-1.7,2.5c-0.6,0.9-1.2,1.8-1.9,2.7c-1.2,1.7-2.7,3.2-4.3,4.5c-1.5,1.1-2.2,3-2.4,5.4c-0.1,1.2,0,2.4,0.2,3.7
	c0.2,1.3,0.4,2.5,0.7,3.8c0.4,1.2,0.8,2.4,1.2,3.5s0.8,2.1,1.2,2.9c0.8,1.6,1.4,2.7,1.4,2.7c0.3-1,0.7-2,1.3-2.9
	c1.2-2.1,2.6-3.9,4.3-5.6v-8C49,330.4,48.6,330.8,48.1,331.2z"/>
<path class="st0" d="M46.9,282.3l-2.3,2.1c-0.8,0.7-1.6,1.4-2.4,2.1c-1.5,1.3-3.3,2.3-5.1,3.1c-0.9,0.4-1.6,0.9-2.1,1.7
	c-0.6,0.8-1.1,1.8-1.5,2.8c-0.4,1.2-0.6,2.4-0.8,3.6c-0.1,0.6-0.2,1.3-0.2,1.9c0,0.6,0,1.3-0.1,1.9c0,1.3,0,2.5,0.1,3.7
	c0.1,1.1,0.2,2.1,0.4,3.1c0.3,1.8,0.5,3,0.5,3c0.5-0.9,1.2-1.7,1.9-2.4c2-2,4.3-3.6,6.8-4.8c0.9-0.5,1.7-1.2,2.2-2.1
	c0.3-0.5,0.6-1.1,0.9-1.6c0.3-0.6,0.5-1.2,0.8-1.9c0.6-1.4,1.1-2.9,1.5-4.4c0.2-0.8,0.4-1.6,0.7-2.4s0.4-1.6,0.6-2.4
	s0.4-1.7,0.7-2.5v-7C48.7,280.5,47.8,281.4,46.9,282.3z M44.5,293.1c0,0.3-0.1,0.6-0.2,0.9c-0.1,0.4-0.3,0.8-0.6,1.2
	c-0.3,0.4-0.6,0.8-1,1.2s-0.8,0.6-1.2,0.9c-0.4,0.2-0.8,0.4-1.2,0.5c-0.3,0.1-0.6,0.1-1,0.1h-0.4l0.2-0.3c0.2-0.2,0.3-0.5,0.6-0.7
	s0.5-0.6,0.8-0.9s0.7-0.6,1-0.9c0.3-0.3,0.7-0.6,1-0.9c0.3-0.3,0.7-0.5,1-0.8s0.6-0.4,0.8-0.5l0.3-0.2L44.5,293.1z M47.6,286.1
	c0,0.2,0,0.4-0.1,0.6c-0.1,0.7-0.4,1.3-0.8,1.9c-0.6,0.8-1.2,1.5-2,2.1c-0.9,0.6-1.7,1.2-2.7,1.8c-0.9,0.5-1.9,0.9-2.7,1.4
	c-0.7,0.4-1.5,0.9-2.1,1.4c-0.5,0.4-0.9,0.8-1.3,1.3c-0.2,0.2-0.3,0.4-0.5,0.6c0-0.2,0.1-0.5,0.2-0.7c0.2-0.7,0.5-1.3,0.9-1.8
	c0.6-0.8,1.2-1.4,2-2c0.8-0.6,1.8-1.2,2.7-1.7c0.9-0.4,1.8-0.9,2.6-1.5c0.7-0.4,1.4-0.9,2.1-1.5c0.5-0.4,0.9-0.8,1.3-1.3
	c0.2-0.2,0.3-0.4,0.4-0.6L47.6,286.1z"/>
<path class="st0" d="M46.8,258.1c-0.9,0.2-1.8,0.5-2.6,0.7c-0.7,0.2-1.5,0.5-2.2,0.8c-0.5,0.2-1,0.5-1.5,0.8
	c-0.2,0.1-0.4,0.2-0.5,0.4c0.1-0.2,0.2-0.4,0.3-0.6c0.3-0.5,0.7-1,1.2-1.4c0.7-0.6,1.4-1,2.2-1.4c0.9-0.4,1.8-0.7,2.7-1
	c0.9-0.2,1.7-0.5,2.6-0.8l0.6-0.2v-3c-0.5,0.2-0.9,0.4-1.3,0.6c-1.7,0.8-3.6,1.4-5.5,1.7c-0.9,0.1-1.7,0.5-2.4,1
	c-0.8,0.7-1.5,1.4-2.1,2.3c-0.7,1-1.2,2.1-1.7,3.2c-0.5,1.2-1,2.4-1.3,3.7c-0.4,1.2-0.7,2.4-0.9,3.6c-0.2,1.1-0.4,2.2-0.5,3.1
	s-0.2,1.7-0.2,2.2s-0.1,0.8-0.1,0.8c0.7-0.7,1.5-1.3,2.3-1.8c2.3-1.4,4.8-2.3,7.4-2.9c1-0.3,1.8-0.8,2.5-1.5c1-0.9,1.8-1.9,2.5-3
	c0.4-0.6,0.8-1.2,1.3-1.8V257C48.5,257.4,47.7,257.8,46.8,258.1z"/>
<path class="st0" d="M56.6,228.7h-0.2c-0.7,0.2-1.5,0.4-2.2,0.8c-0.5,0.2-1,0.5-1.5,0.8c-0.2,0.1-0.4,0.3-0.5,0.4
	c0.3-0.8,0.8-1.5,1.4-2.1c0.7-0.6,1.4-1.1,2.2-1.4c0.9-0.4,1.9-0.6,2.8-0.9l2.6-0.3l9.5-5.3c-0.6,0.2-1.1,0.3-1.7,0.5
	c-1.9,0.6-3.8,1-5.8,1.3c-1.8,0.4-3.6,0.5-5.5,0.3c-0.9-0.1-1.7,0-2.5,0.4c-0.9,0.4-1.8,1-2.6,1.7c-0.4,0.4-0.9,0.8-1.3,1.2
	s-0.8,0.9-1.2,1.4c-0.8,1-1.6,2-2.3,3.1c-0.7,1.1-1.3,2.2-1.9,3.2s-1,2-1.4,2.9s-0.7,1.5-0.9,2l-0.3,0.8c0.8-0.5,1.7-0.8,2.7-1.1
	c1.1-0.3,2.2-0.5,3.3-0.7v-4.9L56.6,228.7z"/>
<path class="st0" d="M92.4,197.5c-0.9,0-1.9,0-2.9,0s-2,0-2.9-0.1c-0.9-0.1-1.9-0.2-2.8-0.4c-0.8-0.1-1.6-0.4-2.4-0.7
	c-0.8-0.3-1.6-0.4-2.4-0.2c-1,0.2-2,0.5-2.9,1c-1.1,0.5-2.1,1.1-3.1,1.8c-1,0.7-2,1.6-3,2.4c-1,0.8-1.9,1.6-2.7,2.6
	c-0.8,0.9-1.6,1.6-2.2,2.3c-1.2,1.4-1.9,2.4-1.9,2.4c0.9-0.2,1.8-0.4,2.8-0.4c2.4-0.1,4.9,0.2,7.2,1c0.9,0.2,1.9,0.2,2.8-0.1
	c1.3-0.3,2.5-0.8,3.6-1.3c1.3-0.6,2.8-1.3,4.2-2.1c0.7-0.4,1.4-0.8,2.2-1.2s1.5-0.8,2.2-1.2l2.1-1.2l2-1.1c1.3-0.7,2.5-1.4,3.5-2
	c0.5-0.3,1-0.5,1.4-0.8l1.1-0.6l0.9-0.5c0,0-0.7,0.1-1.9,0.1c-0.6,0-1.3,0.1-2.1,0.1S93.3,197.5,92.4,197.5z M90.3,200.8
	c-0.6,0.3-1.2,0.5-1.8,0.5c-0.9,0.1-1.8,0.1-2.6-0.1c-0.9-0.2-1.9-0.4-2.8-0.6c-0.8-0.3-1.7-0.5-2.6-0.6c-0.8-0.1-1.5-0.2-2.3-0.2
	c-0.6,0-1.1,0-1.7,0.1c-0.4,0-0.7,0.1-0.7,0.1c0.2-0.1,0.4-0.3,0.6-0.4c0.5-0.3,1.1-0.6,1.7-0.7c0.8-0.2,1.7-0.3,2.6-0.3
	c1,0.1,2,0.2,2.9,0.4c0.9,0.3,1.8,0.6,2.7,0.9c0.7,0.2,1.5,0.4,2.3,0.6c0.6,0.1,1.1,0.2,1.7,0.1c0.2,0,0.4,0,0.7,0
	C90.7,200.6,90.5,200.7,90.3,200.8L90.3,200.8z"/>
<path class="st0" d="M111.7,177.5c-0.7-0.5-1.4-0.7-2.2-0.8c-1-0.1-2,0-3,0.2c-1.2,0.2-2.4,0.5-3.5,0.9c-1.2,0.4-2.4,0.9-3.6,1.4
	c-1.2,0.6-2.3,1.1-3.3,1.7s-1.9,1.2-2.7,1.6s-1.4,0.9-1.8,1.2l-0.7,0.5c0.9,0,1.8,0.1,2.7,0.3c2.3,0.5,4.4,1.4,6.4,2.6
	c0.8,0.4,1.7,0.6,2.6,0.6c0.6,0,1.2,0,1.8-0.1c0.6-0.1,1.3-0.1,2-0.3s1.5-0.2,2.2-0.4l2.3-0.5c0.8-0.2,1.6-0.4,2.4-0.6
	s1.6-0.4,2.4-0.6l2.4-0.6c0.8-0.2,1.6-0.4,2.3-0.5l2.1-0.5c0.7-0.2,1.3-0.3,1.9-0.4l3.8-0.9l-1.9-0.3c-1.2-0.2-2.8-0.5-4.5-1
	c-1.8-0.4-3.7-0.9-5.5-1.5C114.6,179.2,113.1,178.4,111.7,177.5z M118.5,183.1c0.5,0.1,0.7,0.1,0.7,0.1s-0.2,0.1-0.7,0.3
	c-0.6,0.2-1.3,0.3-2,0.4c-0.9,0-1.9,0-2.8-0.2c-1-0.2-2-0.5-3.1-0.7c-1-0.3-1.9-0.6-2.9-0.8c-0.8-0.2-1.7-0.4-2.6-0.4
	c-0.6-0.1-1.2-0.1-1.9,0c-0.2,0-0.5,0-0.7,0.1c0.2-0.2,0.4-0.3,0.6-0.4c0.6-0.3,1.2-0.6,1.9-0.7c0.9-0.2,1.9-0.2,2.9-0.1
	c1.1,0.1,2.1,0.3,3.2,0.6c1,0.3,2,0.7,3,0.9s1.8,0.6,2.5,0.7C117.2,182.9,117.8,183,118.5,183.1z"/>
<path class="st0" d="M191.6,417.9l-0.5,0.3L191.6,417.9L191.6,417.9z"/>
<path class="st0" d="M179.5,433c1.1,2.5,2.7,4.7,4.7,6.5c1.8,1.7,4.3,2.6,6.8,2.5c1.4-0.2,2.7-0.2,4.1-0.1c0.7,0,1.4,0.1,2.2,0.1
	l2.2,0.2c1.5,0.1,3,0.3,4.5,0.6s2.9,0.4,4.3,0.7s2.7,0.5,3.9,0.7s2.2,0.4,3.1,0.6c1.8,0.3,2.9,0.5,2.9,0.5s-1.3-1.2-3.4-3l-3.6-3.2
	c-1.3-1.2-2.8-2.5-4.3-3.7s-3-2.5-4.6-3.8s-3.1-2.4-4.5-3.4c-1.3-0.9-2.7-1.7-4.2-2.3c-1.2-0.5-2.4-0.8-3.7-0.7
	c-0.6,0-1.1,0.1-1.7,0.1h-1.6c-1,0-1.9-0.1-2.8-0.1s-1.6-0.2-2.4-0.3s-1.1-0.2-1.6-0.4l-2.9,1.6C177.5,428.5,178.4,430.8,179.5,433z
	 M205.4,439.1c0.9,0.3,1.8,0.8,2.7,1.4c0.3,0.2,0.6,0.5,0.9,0.7c-0.3-0.2-0.7-0.3-1-0.4c-0.9-0.3-1.8-0.6-2.8-0.7
	c-1.3-0.2-2.7-0.3-4-0.4c-1.5-0.1-3.1-0.1-4.7-0.1c-1.6-0.1-3.2-0.3-4.8-0.7c-1.4-0.4-2.7-1-3.9-1.8c-0.9-0.6-1.6-1.3-2.2-2.2
	c-0.2-0.2-0.3-0.5-0.4-0.7l-0.1-0.3c0.3,0.3,0.5,0.5,0.8,0.7c0.7,0.6,1.6,1.1,2.4,1.5c1.2,0.5,2.5,0.9,3.8,1.1
	c1.5,0.3,3,0.4,4.6,0.4c1.6,0.1,3.2,0.2,4.8,0.4C202.7,438.3,204.1,438.6,205.4,439.1L205.4,439.1z M184.6,429.6
	c0.4,0.2,1,0.5,1.7,1s1.6,0.8,2.4,1.3c0.9,0.5,1.8,0.9,2.8,1.4c0.9,0.5,1.9,0.9,2.9,1.3s1.8,0.8,2.6,1s1.4,0.5,1.9,0.7l0.7,0.3
	l-0.8,0.1c-0.7,0-1.3,0-2,0c-1-0.1-1.9-0.3-2.8-0.5c-1.1-0.3-2.1-0.7-3.1-1.1c-1-0.5-2-1.1-2.9-1.6c-0.8-0.5-1.5-1.2-2.2-1.8
	c-0.5-0.5-0.9-1-1.4-1.5l-0.4-0.6L184.6,429.6z"/>
<path class="st0" d="M210.7,415.9l0.8-0.1c0.7-0.1,1.4-0.3,2.1-0.5c0.9-0.3,1.9-0.6,3-1c1.2-0.4,2.3-0.9,3.4-1.5
	c1.1-0.6,2.3-1.3,3.3-2c1-0.7,2-1.5,2.8-2.5c0.8-0.8,1.4-1.8,1.8-2.8c0.4-1,0.5-2.1,0.4-3.1c-0.2-1.7-0.2-3.3-0.1-5l-2.4,1.3
	c0,0.9-0.1,1.8-0.2,2.5s-0.1,1.5-0.1,1.9l-0.1,0.7l-0.3-0.7c-0.2-0.6-0.4-1.3-0.5-1.9c-0.1-0.5-0.2-1.1-0.3-1.8l-1.8,1
	c0,0.2,0,0.4,0,0.6c0,0.7-0.1,1.3-0.1,1.8s-0.1,1-0.1,1.4s-0.1,0.5-0.1,0.5s-0.1-0.2-0.3-0.5c-0.2-0.4-0.4-0.8-0.6-1.3
	c-0.2-0.6-0.3-1.2-0.4-1.8l-8.2,4.6c-0.1,2.3-0.4,4.5-1,6.7C211.7,413.8,211.3,414.8,210.7,415.9z"/>
<path class="st0" d="M243.9,400.8c0,0,1.1-0.5,2.6-1.5c0.8-0.5,1.6-1.1,2.6-1.8c1-0.7,2-1.5,2.9-2.4c0.9-0.9,1.8-1.8,2.6-2.8
	c0.8-0.9,1.5-2,2-3.1c1-2.1,1.4-4.2,0.6-6.1c-0.2-0.5-0.4-1.1-0.6-1.7L254,383c0,0.1,0,0.2,0,0.3c0.1,0.8,0.1,1.5,0.1,2s0,0.8,0,0.8
	l-0.3-0.7c-0.2-0.4-0.5-1.1-0.7-1.8l-2.8,1.6c0,0.4-0.1,0.8-0.1,1.2s-0.1,0.9-0.1,1.2l-0.1,0.5l-0.3-0.4c-0.2-0.4-0.4-0.7-0.5-1.1
	l-0.2-0.6l-5.9,3.3c0.8,2.7,1.3,5.5,1.3,8.4C244.3,398.6,244.2,399.7,243.9,400.8z"/>
<path class="st0" d="M271.6,377c0,0,0.9-0.8,2.1-2.2c0.6-0.7,1.3-1.5,2-2.5s1.2-1.6,1.8-2.5l-6.5,3.6c0,0.1,0.1,0.2,0.1,0.4
	C271.4,374.8,271.6,375.9,271.6,377z"/>
<path class="st0" d="M286.6,320c0.3,0.6,0.7,1.2,1.1,1.9c0.4,0.7,0.8,1.4,1.3,2.1c0.4,0.7,0.9,1.4,1.4,2c0.5,0.6,1,1.2,1.4,1.8
	c0.3,0.5,0.6,1,0.6,1.6c0,0.2,0,0.4,0,0.6c-0.1-0.2-0.2-0.4-0.3-0.5c-0.3-0.4-0.7-0.8-1.1-1c-0.6-0.5-1.2-1-1.8-1.5
	c-1.3-1.2-2.4-2.8-3-4.5c-0.2-0.4-0.3-0.8-0.4-1.1v5.6l0.1,0.1c0.3,0.5,0.7,1,1.1,1.5c0.4,0.5,0.7,1,1.2,1.4
	c0.4,0.4,0.7,0.9,1.1,1.2s0.6,0.7,0.8,0.9l0.3,0.4l-0.5-0.1c-0.4-0.1-0.8-0.2-1.2-0.4c-0.6-0.2-1.1-0.6-1.6-0.9
	c-0.5-0.4-0.9-0.8-1.3-1.2v8c1.7,1.6,3.2,3.5,4.4,5.6c0.5,0.9,1,1.9,1.3,2.9c0,0,0.6-1,1.4-2.7c0.4-0.8,0.8-1.8,1.2-2.9
	s0.8-2.3,1.2-3.5c0.3-1.3,0.6-2.5,0.7-3.8c0.2-1.2,0.2-2.4,0.1-3.7c-0.2-2.3-0.9-4.3-2.4-5.4c-1.6-1.3-3.1-2.8-4.3-4.5
	c-0.7-0.9-1.3-1.8-1.9-2.7l-1.7-2.5v3.9C286,319,286.3,319.4,286.6,320z"/>
<path class="st0" d="M318.9,319.8l-4.2,2.5c-1.5,0.9-3,1.8-4.5,2.7s-2.8,1.9-4.1,2.9c-1.2,0.9-2.3,1.9-3.3,3c-0.4,0.5-0.8,1-1.2,1.5
	c-0.3,0.5-0.6,1-0.8,1.6c-0.5,1.3-1,2.5-1.4,3.6c0.1-0.3,0.2-0.6,0.3-0.9c0.9-2.7,1.8-5.4,2.5-8.1c1.5-5.5,2.6-11.1,3.4-16.8
	c0.1-0.7,0.2-1.4,0.2-2c2.1-0.4,4.1-1,6.1-1.9c2.1-0.9,4-2.1,5.5-3.8c1.7-1.7,2.6-3.9,2.7-6.3c0-1.3,0.2-2.7,0.4-4
	c0.2-1.4,0.4-2.8,0.7-4.1s0.6-2.8,0.9-4.2s0.6-2.7,0.9-4s0.6-2.5,0.8-3.5l0.7-2.9c0.4-1.6,0.6-2.6,0.6-2.6s-1,1-2.6,2.7
	s-3.7,4-5.9,6.4c-1.1,1.2-2.2,2.5-3.3,3.8c-0.5,0.7-1,1.3-1.5,2c-0.5,0.6-1,1.3-1.4,1.9c-0.8,1.2-1.6,2.5-2.2,3.8
	c-0.6,1.1-0.9,2.3-1,3.6c0,1.1-0.1,2.2-0.2,3.2c-0.1,0.6-0.2,1.2-0.3,1.7c0.1-0.9,0.1-1.8,0.2-2.7l0.1-4.3c0-0.7,0-1.4,0-2.1v-2.1
	c0-1.4,0-2.8-0.1-4.2l-0.3-4.2c-0.1-1.4-0.3-2.8-0.4-4.2c-0.2-1.9-0.5-3.8-0.8-5.7l0.5-0.3c1.6-0.9,3.1-1.9,4.4-3.1
	c1.7-1.4,3-3.1,4-5.1c0.5-1,0.8-2.1,0.9-3.2c0.2-1.2,0.1-2.4-0.2-3.5c-0.3-1.3-0.6-2.6-0.8-3.9c-0.2-1.4-0.4-2.7-0.6-4.1
	s-0.3-2.8-0.4-4.2s-0.2-2.7-0.3-4c-0.2-2.6-0.3-4.9-0.5-6.5s-0.2-2.6-0.2-2.6s-0.6,1.3-1.6,3.3c-0.5,1-1,2.2-1.6,3.5
	s-1.2,2.7-1.9,4.2s-1.3,3-1.9,4.5s-1.1,3-1.6,4.5c-0.4,1.4-0.7,2.8-0.9,4.2c-0.2,1.2-0.1,2.5,0.1,3.7c0.3,1.3,0.6,2.7,0.8,4.1
	c-0.2-0.7-0.3-1.4-0.5-2.1c-1.3-5.3-2.9-10.5-4.9-15.6c-1.3-3.3-2.7-6.5-4.2-9.7c1.3-1.3,2.4-2.8,3.4-4.4c1.1-1.8,1.8-3.8,2.1-5.9
	c0.1-1.1,0.1-2.2-0.1-3.3c-0.2-1.2-0.7-2.3-1.3-3.3c-0.6-1.1-1.3-2.2-1.9-3.4s-1.1-2.5-1.7-3.8s-1.1-2.6-1.6-3.9s-1-2.5-1.5-3.7
	s-0.9-2.3-1.3-3.3l-1.1-2.7l-0.7-1.8l-0.3-0.6l-0.5,3.4c-0.1,1.1-0.3,2.3-0.4,3.6s-0.3,2.9-0.5,4.4s-0.3,3.1-0.4,4.7
	s-0.1,3.2-0.1,4.6c0,1.4,0.2,2.8,0.4,4.2c0.2,1.2,0.6,2.4,1.2,3.5c0.3,0.6,0.6,1.2,0.9,1.7c-1.6-2.7-3.3-5.4-5-7.9
	c-2.7-3.9-5.6-7.7-8.7-11.3l-2.1-2.3l0.1-0.2c0.7-1.5,1.2-3,1.6-4.6c0.5-2,0.5-4,0.2-6c-0.5-2.2-1.6-4.2-3.2-5.8
	c-0.9-0.8-1.8-1.8-2.8-2.8s-1.9-2-2.7-3.1c-0.4-0.5-0.9-1.1-1.3-1.6s-0.9-1.1-1.3-1.6l-2.5-3.1c-1.6-1.9-3-3.7-4-4.9l-1.6-2
	c0,0,0.2,1.3,0.6,3.2c0.4,2,0.9,4.8,1.6,7.6c0.4,1.4,0.7,3,1.1,4.4s0.9,2.9,1.3,4.3c0.4,1.3,1,2.6,1.7,3.8c0.6,1.1,1.3,2.1,2.2,3
	c0.5,0.5,1,1,1.5,1.4c-5.5-5.2-11.5-9.9-17.8-14c-1.2-0.8-2.3-1.5-3.4-2.1c0.2-1.7,0.3-3.3,0.1-5c-0.2-1.9-0.7-3.8-1.7-5.5
	c-0.5-0.9-1.2-1.8-1.9-2.5c-0.8-0.8-1.8-1.5-2.9-2c-0.6-0.3-1.1-0.6-1.7-0.9s-1.1-0.6-1.7-1c-1.2-0.7-2.3-1.4-3.5-2.1
	s-2.3-1.5-3.4-2.2s-2.2-1.4-3.3-2.1s-2-1.4-2.9-1.9l-2.3-1.5l-2.1-1.4c0,0,0.6,1.1,1.6,2.8c0.5,0.9,1.1,1.9,1.7,2.9l2.1,3.5
	c0.7,1.2,1.6,2.5,2.4,3.7s1.7,2.5,2.6,3.6c0.8,1.1,1.7,2.1,2.7,3.1c0.9,0.8,1.9,1.6,2.9,2.1c1.8,0.9,3.5,1.9,5.2,3h0.1
	c-2.2-1.2-4.4-2.2-6.3-3c-3.5-1.5-7.2-2.9-10.8-4c-1.3-0.4-2.2-0.7-2.9-0.9l-1-0.3l1,0.4c0.6,0.3,1.6,0.7,2.8,1.2
	c2.4,1.1,5.9,2.7,10.3,5c5.2,2.8,10.3,5.8,15.2,9.1c6.3,4.3,12.3,9.1,17.8,14.4l2.3,2.2c0.8,0.8,1.5,1.6,2.2,2.4
	c1.5,1.6,3,3.3,4.4,5c0.7,0.9,1.4,1.8,2.2,2.6s1.5,1.8,2.1,2.7l2.1,2.8l2,2.9c5.7,8.3,10.4,17.3,14,26.7c1.9,5,3.5,10,4.8,15.2
	c1.3,5.3,2.3,10.7,2.9,16.1c0.1,1.4,0.3,2.7,0.4,4.1s0.2,2.8,0.3,4.1s0.1,2.8,0.1,4.2v2.1c0,0.6,0,1.4,0,2.1l-0.1,4.2
	c0,1.4-0.2,2.8-0.3,4.2c-0.1,2.8-0.6,5.6-0.9,8.3c-0.8,5.5-2,11-3.5,16.4c-0.7,2.7-1.7,5.3-2.5,7.9c-0.4,1.3-1,2.6-1.5,3.9
	s-1,2.6-1.6,3.8l-1.7,3.7c-0.6,1.2-1.2,2.4-1.8,3.7c-1.2,2.5-2.6,4.8-3.9,7.1l-0.4,0.6v6.6l-7.2,4.1c-0.5,0.6-0.9,1.2-1.4,1.8
	c-1.6,2.1-3.3,4-4.9,6c-0.8,1-1.7,1.9-2.6,2.8s-1.7,1.9-2.6,2.8c-1.8,1.7-3.5,3.5-5.4,5.1c-0.9,0.8-1.8,1.6-2.7,2.4l-2.8,2.3
	c-7,5.7-14.5,10.6-22.4,14.8c-6.7,3.5-13.8,6.5-21,8.8c-1.6,0.6-3.2,1-4.7,1.5l-2.2,0.7c-0.7,0.2-1.5,0.4-2.2,0.6l-4.1,1.1l-3.8,0.9
	c-2.4,0.6-4.5,0.9-6.4,1.3c-0.9,0.2-1.8,0.4-2.6,0.5l-2.2,0.4c-1.3,0.2-2.3,0.4-3,0.5h-0.1l-0.3,0.2h0.5c0.7,0,1.7,0.1,3,0.1h2.2
	c0.8,0,1.7-0.1,2.7-0.1c1.9-0.1,4.2-0.2,6.7-0.5c6-0.6,12-1.7,17.8-3.4h0.1c0.1,0.1,0.2,0.3,0.2,0.4c1.2,1.9,2.7,3.7,4.2,5.4
	c1.8,1.9,3.9,3.5,6.2,4.7c2.3,1.1,4.9,1.2,7.2,0.3c1.3-0.5,2.5-1,3.9-1.3c1.4-0.4,2.8-0.7,4.3-1s2.9-0.6,4.4-0.8s2.9-0.4,4.2-0.6
	s2.6-0.4,3.8-0.5l3.1-0.4c1.7-0.2,2.8-0.4,2.8-0.4s-1.6-0.7-4-1.8l-4.3-1.9c-1.6-0.7-3.3-1.4-5-2.2l-2.6-1.1
	c-0.9-0.4-1.8-0.7-2.7-1.1c-1.7-0.7-3.4-1.2-5.1-1.7c-1.5-0.4-3.1-0.8-4.6-0.9c-1.1-0.1-2.2,0-3.2,0.3l3.2-1.4l5.7-2.8
	c1.9-1,3.8-2.1,5.8-3.2s3.9-2.3,5.8-3.6l1-0.7l0.1,0.1c1.7,1.4,3.5,2.7,5.4,3.8c2.2,1.3,4.6,2.1,7.1,2.5c2.4,0.3,4.9-0.3,6.9-1.8
	c1-0.8,2.1-1.6,3.3-2.3s2.5-1.5,3.8-2.1s2.6-1.4,3.9-2s2.6-1.2,3.8-1.8c2.4-1.2,4.6-2.2,6.2-2.9l2.5-1.2c0,0-1.6-0.2-4.2-0.5
	s-6.1-0.7-9.7-1c-1.8-0.1-3.7-0.3-5.5-0.4c-1.8-0.1-3.5-0.1-5.3-0.1c-1.5,0-3.1,0.2-4.6,0.5c-0.8,0.2-1.6,0.5-2.3,0.9
	c6-5.1,11.6-10.7,16.7-16.9l0.2,0.1c1.9,0.8,3.9,1.5,6,1.9c2.4,0.5,4.8,0.6,7.2,0.2c2.4-0.4,4.5-1.8,6-3.7c0.8-1,1.6-2.1,2.5-3.2
	s1.9-2.1,3-3.1s2-2.1,3.1-3s2.1-1.9,3.1-2.8c1.9-1.8,3.7-3.4,5-4.5c0.7-0.6,1.1-1,1.5-1.4s0.5-0.5,0.5-0.5l-4,0.8
	c-2.5,0.5-5.8,1.1-9.2,1.9c-1.7,0.4-3.5,0.8-5.2,1.2s-3.4,1-4.9,1.5c-1.4,0.4-2.8,1-4.2,1.7c-1.1,0.6-2.1,1.5-2.8,2.5l0,0
	c1.8-2.7,3.5-5.4,5.1-8.2c1.3-2.4,2.7-4.8,3.9-7.4c0.6-1.3,1.2-2.5,1.8-3.8l1-2.4h0.5c2,0.2,4,0.2,6,0c2.3-0.2,4.6-0.9,6.7-2
	c2.1-1.1,3.7-3,4.5-5.3c0.4-1.2,1-2.4,1.5-3.7s1.2-2.5,1.9-3.8l2.1-3.8c0.7-1.2,1.4-2.4,2.1-3.6s1.3-2.2,1.9-3.2l1.5-2.6
	c0.5-0.7,0.8-1.3,1-1.7s0.4-0.6,0.4-0.6l-3.5,1.9L318.9,319.8z M317.8,290c-0.1,0.3-0.3,0.9-0.5,1.4s-0.4,1.3-0.8,1.9
	s-0.6,1.4-0.8,2.2s-0.6,1.5-0.9,2.2s-0.6,1.4-0.7,2s-0.5,1-0.6,1.4l-0.2,0.5c0,0,0-0.2-0.1-0.6c-0.1-0.5-0.1-1-0.1-1.5
	c0-0.7,0.1-1.5,0.2-2.2c0.2-0.8,0.4-1.6,0.7-2.4s0.7-1.5,1.1-2.2c0.4-0.6,0.8-1.2,1.3-1.8c0.3-0.4,0.7-0.8,1.1-1.1l0.5-0.4
	C317.9,289.4,317.9,289.7,317.8,290z M310.8,293.9c0.1-0.6,0.3-1.1,0.5-1.6c0.3-0.8,0.6-1.5,1-2.2c0.4-0.8,0.9-1.5,1.5-2.3
	s1.2-1.4,1.8-2.1c0.6-0.6,1.2-1.1,1.8-1.6c0.5-0.4,0.9-0.7,1.4-1l0.6-0.3l-0.3,0.6c-0.2,0.3-0.5,0.9-0.9,1.4s-0.8,1.2-1.3,1.9
	s-1,1.4-1.5,2.1s-1.1,1.4-1.6,2.1s-1,1.3-1.4,1.8s-0.8,1-1.1,1.3l-0.4,0.5C310.6,294.5,310.7,294.3,310.8,293.9L310.8,293.9z
	 M310.4,249.6l0.4-0.5c0,0,0,0.2-0.1,0.6s-0.1,0.9-0.3,1.6s-0.2,1.4-0.4,2.1s-0.4,1.6-0.5,2.4c-0.1,0.8-0.4,1.7-0.5,2.4
	s-0.4,1.5-0.5,2.1s-0.3,1.2-0.4,1.5l-0.2,0.6l-0.2-0.6c-0.1-0.5-0.2-1.1-0.3-1.6c-0.1-0.8-0.1-1.5,0-2.3c0.1-0.8,0.2-1.7,0.3-2.6
	s0.5-1.7,0.8-2.5c0.3-0.7,0.6-1.4,1-2.1C309.8,250.5,310.1,250,310.4,249.6L310.4,249.6z M306.6,251.4c0.1-0.7,0.1-1.6,0.3-2.4
	l0.6-2.8l0.8-2.7c0.2-0.9,0.6-1.6,0.9-2.3s0.6-1.2,0.7-1.6s0.3-0.6,0.3-0.6s0,0.2,0,0.7s0,1-0.1,1.8s-0.1,1.6-0.3,2.4l-0.6,2.8
	c-0.3,0.9-0.5,1.8-0.8,2.7s-0.6,1.6-0.9,2.3s-0.6,1.2-0.7,1.6l-0.3,0.6c0,0,0-0.2,0-0.7S306.5,252.2,306.6,251.4L306.6,251.4z
	 M241.4,174.4c-0.5-0.7-1.1-1.4-1.7-2c-0.9-0.9-1.8-1.6-2.8-2.4c-1.1-0.9-2.3-1.6-3.5-2.3l-3.7-2.3c-1.1-0.7-2.1-1.5-3.1-2.3
	c-0.7-0.6-1.3-1.3-1.9-2c-0.4-0.5-0.6-0.8-0.6-0.8s0.3,0.2,0.9,0.6s1.3,0.8,2.3,1.4s2.1,1.1,3.3,1.8l3.8,2.1
	c1.2,0.8,2.4,1.7,3.6,2.6c1,0.9,1.9,1.9,2.6,3c0.5,0.8,0.9,1.6,1.2,2.5c0.1,0.2,0.1,0.5,0.2,0.7c0,0.2,0.1,0.3,0.1,0.3
	S241.8,175,241.4,174.4L241.4,174.4z M271.4,197c-0.1,0.3-0.2,0.6-0.4,0.9c0-0.3,0-0.7,0-1c0-0.8-0.2-1.6-0.5-2.4
	c-0.4-1.1-0.9-2.1-1.5-3c-0.7-1.1-1.6-2.1-2.5-3l-2.7-3.1c-0.8-0.9-1.4-2-2-3.1c-0.4-0.8-0.7-1.6-0.9-2.4c-0.1-0.3-0.1-0.7-0.1-1
	c0.1,0.3,0.3,0.6,0.5,0.9c0.4,0.7,0.9,1.4,1.4,2c0.7,0.9,1.5,1.7,2.3,2.6l2.9,2.9c0.9,1.1,1.8,2.2,2.5,3.4c0.6,1.1,1,2.3,1.1,3.6
	C271.7,195.2,271.7,196.1,271.4,197L271.4,197z M289.8,219.1c0,0.7-0.1,1.2-0.1,1.6s-0.1,0.6-0.1,0.6l-0.3-0.6
	c-0.2-0.5-0.4-1-0.6-1.6c-0.2-0.7-0.4-1.5-0.5-2.3c-0.1-0.8-0.2-1.8-0.3-2.7s0.1-1.8,0.1-2.7c0.1-0.8,0.2-1.5,0.4-2.3
	c0.1-0.5,0.3-1.1,0.5-1.6l0.2-0.6c0,0,0,0.2,0.1,0.6s0.1,1,0.2,1.6s0.1,1.4,0.1,2.3s0,1.7,0.1,2.6s0,1.8,0,2.6
	S289.8,218.5,289.8,219.1L289.8,219.1z M293,225c-0.2-0.9-0.4-1.8-0.6-2.7s-0.1-1.9-0.1-2.8c0-0.8,0.1-1.6,0.3-2.4
	c0.1-0.6,0.2-1.1,0.4-1.6l0.2-0.6c0,0,0,0.2,0.1,0.6s0.2,1,0.2,1.6s0.2,1.4,0.3,2.3s0.2,1.7,0.4,2.6s0.2,1.8,0.4,2.6
	s0.2,1.6,0.3,2.3s0.1,1.3,0.2,1.6s0.1,0.6,0.1,0.6l-0.4-0.5c-0.3-0.5-0.6-1-0.9-1.5C293.5,226.5,293.2,225.8,293,225L293,225z
	 M243.3,423.7c1.1,0,2.1,0.1,3.1,0.3c0.4,0.1,0.7,0.2,1.1,0.4c-0.4,0-0.8,0-1.2,0c-1,0-2,0.1-3,0.3c-1.4,0.3-2.7,0.7-4,1.1
	c-1.5,0.5-3,1.1-4.6,1.6c-1.6,0.5-3.3,0.9-5,1.1c-1.5,0.1-3,0-4.5-0.4c-1-0.3-2-0.7-2.9-1.3c-0.3-0.2-0.5-0.4-0.7-0.6l-0.2-0.2
	l0.3,0.1c0.2,0.1,0.4,0.2,0.8,0.3c0.9,0.3,1.9,0.6,2.9,0.6c1.4,0.1,2.7,0.1,4.1-0.2c1.6-0.3,3.1-0.7,4.6-1.2c1.6-0.5,3.2-1,4.8-1.4
	C240.3,424,241.8,423.8,243.3,423.7L243.3,423.7z M228.2,423.8l1.8-0.4l1.8-0.2c0.5,0,1.1,0,1.6,0c0.4,0,0.8,0.1,1.1,0.1l0.4,0.1
	l-0.4,0.2c-0.3,0.2-0.7,0.4-1,0.5c-0.5,0.2-1,0.4-1.5,0.5l-1.8,0.4l-1.8,0.2c-0.6,0.1-1.1,0-1.6,0c-0.4,0-0.8-0.1-1.1-0.1l-0.4-0.1
	l0.4-0.2c0.3-0.2,0.7-0.4,1-0.5C227.2,424.2,227.7,424,228.2,423.8L228.2,423.8z M269.5,401.9c1.4-0.8,2.8-1.6,4.1-2.4
	c1.3-0.7,2.6-1.2,4-1.5c1-0.2,2-0.3,3-0.2c0.4,0,0.7,0.1,1.1,0.2c-0.4,0-0.7,0.1-1.1,0.1c-0.9,0.2-1.8,0.4-2.7,0.8
	c-1.2,0.5-2.4,1.2-3.5,1.9c-1.3,0.8-2.6,1.7-4,2.5c-1.4,0.8-2.9,1.5-4.5,2c-1.4,0.4-2.9,0.5-4.3,0.2c-1-0.2-2-0.5-2.8-1.1
	c-0.2-0.2-0.4-0.3-0.6-0.5l-0.2-0.2l0.3,0.1c0.2,0.1,0.5,0.2,0.8,0.3c0.9,0.3,1.8,0.4,2.8,0.4c1.3,0,2.6-0.3,3.8-0.7
	C266.9,403.4,268.3,402.7,269.5,401.9L269.5,401.9z M261.7,400.4c0.7,0,1.3-0.1,2-0.2c0.6-0.1,1.3-0.2,1.8-0.3s1-0.2,1.3-0.3
	l0.5-0.1L267,400c-0.3,0.3-0.7,0.6-1.1,0.9c-0.6,0.4-1.2,0.7-1.8,0.9c-1.5,0.5-3,0.6-4.5,0.3c-0.7-0.1-1.3-0.3-1.9-0.6
	c-0.4-0.2-0.8-0.5-1.2-0.8l-0.4-0.4h0.5c0.3,0,0.8,0,1.3,0.1s1.2,0,1.8,0.1C260.4,400.5,261.1,400.5,261.7,400.4L261.7,400.4z
	 M289.9,368.4c0.5-0.5,1-0.9,1.5-1.3c0.7-0.6,1.5-1.1,2.3-1.5c0.9-0.5,1.9-1,2.8-1.5s2-0.7,3-1c0.9-0.2,1.8-0.4,2.7-0.6
	c0.7-0.1,1.3-0.2,2-0.2h0.8l-0.7,0.4c-0.4,0.2-1,0.5-1.8,0.8s-1.6,0.8-2.5,1.1s-1.9,0.8-2.8,1.2s-1.9,0.8-2.8,1.2s-1.8,0.7-2.5,1
	s-1.4,0.5-1.8,0.7l-0.7,0.2L289.9,368.4z M286.1,377.2c0.8-0.1,1.6-0.2,2.3-0.5c1-0.4,2-0.9,2.9-1.6c1-0.8,2-1.6,2.8-2.6
	c1-0.9,1.9-1.9,2.8-2.9c0.9-0.8,1.8-1.6,2.8-2.2c0.7-0.5,1.5-0.8,2.3-1.1c0.6-0.2,0.9-0.2,0.9-0.2c-0.3,0.2-0.5,0.4-0.8,0.5
	c-0.7,0.5-1.3,1-1.9,1.6c-0.7,0.7-1.5,1.6-2.3,2.5s-1.7,2-2.7,3c-1,1-2.1,1.9-3.3,2.6c-1.1,0.6-2.3,1.1-3.5,1.3
	c-0.9,0.1-1.8,0.1-2.6-0.1c-0.3-0.1-0.6-0.2-0.9-0.3C285.4,377.2,285.8,377.3,286.1,377.2L286.1,377.2z M313.8,330.7
	c-0.3,0.3-0.6,0.8-1,1.3s-0.9,1.1-1.4,1.7s-1.1,1.3-1.6,2s-1.1,1.3-1.6,2s-1,1.2-1.4,1.7s-0.8,0.9-1,1.2l-0.4,0.5l0.1-0.6
	c0.1-0.5,0.3-1.1,0.5-1.6c0.3-0.7,0.6-1.4,1-2.1c0.5-0.7,1-1.5,1.5-2.2s1.3-1.3,1.9-1.9c0.6-0.5,1.2-1,1.9-1.4
	c0.5-0.3,1-0.6,1.5-0.8l0.6-0.2L313.8,330.7z M317.9,323.7c-0.4,0.2-0.9,0.6-1.6,1s-1.4,1-2.2,1.5s-1.6,1.1-2.4,1.8
	c-0.8,0.6-1.6,1.2-2.3,1.8c-0.7,0.6-1.5,1.1-2,1.7s-1.1,0.9-1.4,1.2l-0.6,0.5l0.3-0.7c0.3-0.6,0.6-1.2,1-1.7
	c0.5-0.8,1.1-1.5,1.7-2.2c0.7-0.7,1.5-1.4,2.3-2.1s1.8-1.2,2.7-1.7c0.8-0.4,1.7-0.7,2.5-1c0.6-0.2,1.2-0.4,1.9-0.5l0.7-0.1
	L317.9,323.7z"/>
<path class="st0" d="M286.5,289.2c0.2,0.8,0.4,1.6,0.6,2.4s0.5,1.6,0.7,2.4c0.4,1.5,0.9,3,1.5,4.4c0.3,0.7,0.5,1.3,0.8,1.9
	c0.3,0.6,0.6,1.1,0.9,1.6c0.5,0.9,1.3,1.6,2.2,2.1c2.5,1.2,4.8,2.8,6.8,4.8c0.7,0.7,1.4,1.5,1.9,2.4c0,0,0.3-1.2,0.5-3
	c0.2-1,0.3-2.1,0.4-3.1c0.1-1.2,0.1-2.4,0.1-3.7c0-0.6,0-1.3-0.1-1.9s-0.1-1.3-0.2-1.9c-0.2-1.2-0.4-2.4-0.8-3.6
	c-0.3-1-0.8-2-1.5-2.8c-0.6-0.7-1.3-1.3-2.1-1.7c-1.8-0.8-3.5-1.8-5.1-3.1c-0.9-0.7-1.7-1.4-2.5-2.1l-2.3-2.1
	c-1-0.9-1.8-1.8-2.5-2.5v7C286.1,287.6,286.3,288.4,286.5,289.2z M296,297.9c-0.3,0-0.6-0.1-0.9-0.1c-0.4-0.1-0.8-0.3-1.2-0.5
	c-0.4-0.3-0.8-0.6-1.2-0.9s-0.7-0.8-1-1.2c-0.2-0.4-0.4-0.8-0.6-1.2c-0.1-0.3-0.2-0.6-0.2-0.9v-0.4l0.3,0.2c0.2,0.1,0.5,0.3,0.8,0.5
	s0.6,0.5,1,0.8c0.3,0.3,0.7,0.6,1,0.9c0.3,0.3,0.6,0.6,1,0.9s0.6,0.6,0.8,0.9s0.4,0.5,0.6,0.7l0.2,0.3L296,297.9z M288.1,286.5
	c0.4,0.5,0.8,0.9,1.3,1.3c0.7,0.5,1.4,1,2.1,1.5c0.8,0.5,1.7,1,2.6,1.5s1.8,1.1,2.7,1.7c0.8,0.6,1.4,1.2,2,2
	c0.4,0.5,0.7,1.2,0.9,1.8c0.1,0.2,0.1,0.5,0.1,0.7c-0.1-0.2-0.3-0.4-0.5-0.6c-0.4-0.5-0.9-0.9-1.4-1.2c-0.7-0.5-1.4-1-2.1-1.4
	c-0.8-0.5-1.7-1-2.7-1.4c-0.9-0.5-1.8-1.1-2.7-1.8c-0.8-0.6-1.4-1.3-2-2.1c-0.4-0.6-0.7-1.2-0.8-1.9c0-0.2-0.1-0.4-0.1-0.6v-0.2
	C287.8,286.1,287.9,286.3,288.1,286.5L288.1,286.5z"/>
<path class="st0" d="M286.4,255.6c0.8,0.3,1.7,0.6,2.6,0.8c0.9,0.3,1.8,0.6,2.7,1c0.8,0.4,1.5,0.8,2.2,1.4c0.5,0.4,0.9,0.9,1.2,1.4
	c0.2,0.4,0.3,0.6,0.3,0.6c-0.2-0.1-0.4-0.3-0.5-0.4c-0.5-0.3-1-0.6-1.5-0.8c-0.7-0.3-1.4-0.6-2.2-0.8c-0.8-0.3-1.7-0.5-2.6-0.7
	s-1.8-0.6-2.6-1v6.7c0.4,0.6,0.8,1.2,1.3,1.8c0.7,1.1,1.6,2.1,2.6,3c0.7,0.7,1.6,1.2,2.5,1.5c2.6,0.5,5.1,1.5,7.5,2.8
	c0.8,0.5,1.6,1.1,2.3,1.8c0,0,0-0.3-0.1-0.8s-0.1-1.3-0.2-2.2s-0.3-2-0.5-3.1c-0.2-1.2-0.6-2.4-0.9-3.6c-0.4-1.2-0.8-2.5-1.3-3.6
	c-0.5-1.1-1.1-2.2-1.7-3.2c-0.6-0.9-1.3-1.7-2.1-2.3c-0.7-0.5-1.5-0.9-2.4-1c-1.9-0.3-3.7-0.8-5.5-1.7c-0.5-0.2-0.9-0.4-1.3-0.6v3
	L286.4,255.6z"/>
<path class="st0" d="M276.5,226.4c1,0.2,1.9,0.5,2.8,0.9c0.8,0.3,1.6,0.8,2.2,1.4c0.5,0.4,0.9,0.9,1.1,1.4c0.1,0.2,0.2,0.4,0.3,0.6
	c-0.2-0.1-0.3-0.3-0.5-0.4c-0.5-0.3-0.9-0.6-1.5-0.8c-0.7-0.3-1.4-0.6-2.2-0.8h-0.1l7.2,4v4.9c1.1,0.1,2.2,0.4,3.3,0.7
	c0.9,0.3,1.8,0.6,2.7,1.1c0,0-0.1-0.3-0.3-0.8s-0.5-1.2-0.9-2s-0.8-1.8-1.4-2.9s-1.2-2.1-1.9-3.2c-0.7-1.1-1.5-2.1-2.3-3.1
	c-0.4-0.5-0.8-1-1.2-1.4s-0.9-0.8-1.3-1.2c-0.8-0.7-1.7-1.3-2.6-1.7c-0.8-0.4-1.6-0.5-2.5-0.4c-1.8,0.2-3.7,0.1-5.5-0.3
	c-2-0.3-3.9-0.8-5.8-1.3c-0.6-0.1-1.2-0.3-1.7-0.5l9.5,5.3L276.5,226.4z"/>
<path class="st0" d="M240.2,197.4c-0.8,0-1.5-0.1-2.1-0.1c-1.2-0.1-1.9-0.1-1.9-0.1l0.9,0.5l1.1,0.6c0.4,0.2,0.9,0.5,1.4,0.8
	c1,0.6,2.2,1.2,3.5,2l2,1.1l2.1,1.2c0.7,0.4,1.4,0.8,2.2,1.2s1.5,0.8,2.2,1.2c1.4,0.8,2.9,1.5,4.2,2.1c1.2,0.6,2.4,1,3.7,1.3
	c0.9,0.3,1.8,0.3,2.7,0.1c2.3-0.8,4.8-1.1,7.2-1c0.9,0,1.9,0.2,2.8,0.4c0,0-0.7-1-1.9-2.4c-0.6-0.7-1.4-1.5-2.2-2.3
	c-0.9-0.9-1.8-1.7-2.7-2.6c-1-0.8-2-1.6-3-2.4c-1-0.7-2.1-1.3-3.1-1.8c-0.9-0.5-1.9-0.8-2.9-1c-0.8-0.2-1.6-0.1-2.4,0.2
	c-0.8,0.3-1.6,0.5-2.4,0.7c-0.9,0.2-1.8,0.3-2.8,0.4c-1,0.1-2,0.1-2.9,0.1s-2,0-2.9,0S241,197.4,240.2,197.4z M245.1,200.4
	c0.6,0,1.1,0,1.7-0.1c0.8-0.1,1.5-0.3,2.3-0.6c0.8-0.2,1.7-0.6,2.7-0.9c1-0.2,1.9-0.4,2.9-0.4c0.9,0,1.8,0.1,2.6,0.3
	c0.6,0.2,1.2,0.4,1.7,0.7c0.2,0.1,0.4,0.3,0.6,0.4c0,0-0.2,0-0.7-0.1c-0.6-0.1-1.1-0.1-1.7-0.1c-0.8,0-1.6,0.1-2.3,0.2
	c-0.9,0.1-1.8,0.3-2.6,0.6c-0.9,0.2-1.9,0.5-2.8,0.6c-0.9,0.2-1.7,0.2-2.6,0.1c-0.6-0.1-1.2-0.3-1.8-0.5c-0.2-0.1-0.4-0.2-0.6-0.4
	C244.6,200.4,244.8,200.4,245.1,200.4L245.1,200.4z"/>
<path class="st0" d="M212.8,183.7l2.1,0.5c0.7,0.2,1.5,0.3,2.3,0.5l2.4,0.6c0.8,0.2,1.6,0.4,2.4,0.6s1.6,0.4,2.4,0.6l2.3,0.5
	c0.8,0.2,1.5,0.3,2.2,0.4c0.7,0.1,1.4,0.2,2,0.3c0.6,0.1,1.2,0.1,1.8,0.1c0.9,0,1.8-0.2,2.6-0.6c2-1.2,4.1-2.1,6.4-2.6
	c0.9-0.2,1.8-0.3,2.7-0.3l-0.7-0.5c-0.4-0.3-1.1-0.7-1.8-1.2s-1.7-1.1-2.7-1.6s-2.2-1.1-3.3-1.7c-1.2-0.6-2.4-1-3.6-1.4
	c-1.1-0.4-2.3-0.7-3.5-0.9c-1-0.2-2-0.3-3-0.2c-0.8,0-1.6,0.3-2.2,0.8c-1.4,1-2.9,1.7-4.5,2.2c-1.8,0.6-3.6,1.1-5.5,1.5
	c-1.8,0.4-3.4,0.7-4.5,1l-1.9,0.3l3.8,0.9C211.5,183.4,212.1,183.6,212.8,183.7z M216.8,183.1c0.6-0.1,1.2-0.2,1.9-0.3
	c0.8-0.1,1.6-0.5,2.5-0.7s1.9-0.6,2.9-0.9c1-0.3,2.1-0.5,3.2-0.6c1-0.1,1.9-0.1,2.9,0.1c0.7,0.1,1.3,0.4,1.9,0.7
	c0.2,0.1,0.4,0.3,0.6,0.4c-0.2,0-0.5-0.1-0.7-0.1c-0.6-0.1-1.2-0.1-1.9,0c-0.9,0.1-1.7,0.2-2.6,0.4c-1,0.2-2,0.5-2.9,0.8
	c-1,0.2-2.1,0.5-3.1,0.7c-0.9,0.2-1.9,0.2-2.8,0.2c-0.7,0-1.4-0.2-2-0.4c-0.2-0.1-0.5-0.2-0.7-0.3
	C216,183.2,216.4,183.2,216.8,183.1L216.8,183.1z"/>
<path class="st0" d="M191.1,418.2l0.5-0.3l21.3-12l8.2-4.6l1.6-0.9l1.8-1l1.5-0.8l2.4-1.3l14.8-8.2l5.9-3.3l1.3-0.7l2.8-1.6l1-0.5
	l2.7-1.5l14.3-8l6.5-3.6l1.2-0.6l7.2-4.1V232.7l-7.2-4l-4.7-2.6l-9.5-5.3l-63.1-35.3l-0.5,1.5c-0.6,1.7-1.3,3.7-2,6l79.3,44.4v123.2
	l-110.5,61.8L57.2,360.5V237.3l79.3-44.4c-0.7-2.2-1.4-4.2-2-6c-0.2-0.5-0.4-1-0.5-1.5l-63.1,35.4l-9.5,5.3l-4.7,2.6l-7.2,4v132.4
	l7.2,4.1l1.2,0.6l6.5,3.6l14.3,8l2.7,1.5l1,0.5l2.8,1.6l1.3,0.7l5.9,3.3l14.7,8.3l2.3,1.3l1.5,0.8l1.8,1l1.6,0.9l8.2,4.6l21.3,12
	l0.4,0.2l9.6,5.4l0.3,0.2l1.4,0.8l2.9,1.6l9.2,5.2l9.3-5.2l2.9-1.6l1.4-0.8l0.3-0.2L191.1,418.2z"/>
<path class="st0" d="M196.2,202.9l71.6,40.1v94.8l-34.9,11.8l-0.1,24.9l-65.1,36.5l-65.1-36.5v-24.9l-35-11.8V243l71.6-40.1
	c-0.3-1.7-0.7-3.3-1.1-4.8l-75.2,42.1v117.5l104.9,58.7l104.9-58.7V240.2l-75.2-42.1C196.9,199.6,196.5,201.2,196.2,202.9z"/>
<polygon class="st0" points="169.2,398.9 167.6,395.6 166,398.9 162.4,399.4 165,401.9 164.4,405.5 167.6,403.8 170.8,405.5 
	170.2,401.9 172.8,399.4 "/>
<path class="st1" d="M229,172.4c12.9,4.4,22.6,11.5,28.9,21.4c6.3,9.9,9.5,33.2,9.5,69.8c0,27.2-3.1,48.3-9.3,63.3
	c-6.2,15-16.9,26.4-32.1,34.2c-15.2,7.8-34.7,11.7-58.5,11.7c-27,0-48.3-4.5-63.7-13.6s-25.6-20.2-30.4-33.4
	c-4.8-13.2-7.3-36-7.3-68.5v-27h85.3v55.5c0,14.8,0.9,24.2,2.6,28.2c1.8,4,5.7,6,11.7,6c6.6,0,11-2.5,13.1-7.6s3.2-18.3,3.2-39.7
	v-23.7c0-13.1-1.5-22.7-4.4-28.7c-3-6-7.3-10-13.1-11.9c-5.8-1.9-17-3-33.6-3.3v-49.6c20.3,0,32.8-0.8,37.6-2.3
	c4.8-1.6,8.2-4.9,10.3-10.1c2.1-5.2,3.2-13.4,3.2-24.5v-19c0-12-1.2-19.9-3.7-23.7c-2.5-3.8-6.3-5.7-11.5-5.7c-5.9,0-10,2-12.1,6
	c-2.2,4-3.3,12.6-3.3,25.7v28.1H66.2v-29.2c0-32.7,7.5-54.7,22.4-66.2s38.6-17.2,71.2-17.2c40.7,0,68.3,7.9,82.8,23.8
	c14.5,15.9,21.8,38,21.8,66.3c0,19.1-2.6,33-7.8,41.5C251.2,157.6,242.1,165.4,229,172.4z"/>
</svg>
