<?xml version="1.0" encoding="utf-8"?>
<!-- Generator: Adobe Illustrator 26.0.1, SVG Export Plug-In . SVG Version: 6.00 Build 0)  -->
<svg version="1.1" id="Слой_1" xmlns="http://www.w3.org/2000/svg" xmlns:xlink="http://www.w3.org/1999/xlink" x="0px" y="0px"
	 viewBox="0 0 2154.7 1407.8" style="enable-background:new 0 0 2154.7 1407.8;" xml:space="preserve">
<style type="text/css">
	.st0{fill:#EB5C55;}
	.st1{fill:#1C1C1C;}
	.st2{opacity:0.6;fill:#B72425;enable-background:new    ;}
	.st3{fill:#464545;}
	.st4{fill:#FFFFFF;}
	.st5{fill:#AF1B3B;}
	.st6{fill:#EB5977;}
	.st7{fill:#BBDCEB;}
	.st8{fill:#8BB0CC;}
	.st9{fill:#F294A4;}
	.st10{fill:#5C5B5B;}
	.st11{fill:#7A797B;}
	.st12{fill:#3F3F3F;}
</style>
<g>
	<path class="st0" d="M686.3,487.5C606.5,118.3,26.6,85.9,26.6,589.3c0,428.8,659.7,785,659.7,785s659.7-356.1,659.7-785
		C1345.6,85.9,766.1,118.3,686.3,487.5z"/>
	<g>
		<g>
			<path class="st0" d="M675.8,343c-27-124.9-223.3-135.9-223.3,34.5c0,145.1,223.3,265.6,223.3,265.6s223.3-120.5,223.3-265.6
				C898.9,207.2,702.8,218.1,675.8,343z"/>
			<path class="st1" d="M791.2,249.4c54.7,0,107.7,39.6,107.7,128.1c0,145.1-223.3,265.6-223.3,265.6S452.4,522.6,452.4,377.5
				c0-88.6,53-128.1,107.9-128.1c55.8,0.1,103.9,39.1,115.3,93.7c11.4-54.6,59.6-93.7,115.3-93.7 M560.3,241.9
				c-30-0.4-58.9,11.6-79.8,33.2c-23.2,24.1-35.5,59.5-35.5,102.5c0,34.6,12.2,70.7,36.1,106.9c18.9,28.6,45.1,57.6,78.1,86.1
				c35,30,72.8,56.6,112.9,79.3l3.7,1.9l3.7-1.9c40.1-22.7,77.9-49.3,112.9-79.3c32.9-28.5,59.2-57.5,78.1-86.1
				c24-36.3,36.1-72.3,36.1-106.9c0-42.9-12.3-78.1-35.5-102.5c-20.9-21.6-49.8-33.6-79.8-33.2c-27.6,0.1-54.4,9.3-76.4,26
				c-17.2,13.1-30.7,30.4-39,50.3c-8.4-19.9-21.9-37.3-39.1-50.3c-21.9-16.7-48.7-25.9-76.3-26L560.3,241.9z"/>
			<path class="st2" d="M675.8,352.9V343c-11.6-55.5-61.2-94.9-117.9-93.6C600.8,252.4,651.5,287.2,675.8,352.9z"/>
			<path class="st2" d="M782.5,249.6c49,3.7,94.3,41.7,94.3,121.5C876.8,509,664.7,609,664.7,609s-209.2-98.4-212.1-235.1
				c0,1.2,0,2.4,0,3.7c0,145.1,223.3,265.6,223.3,265.6s223.3-120.5,223.3-265.6C898.9,284.3,840.1,245.3,782.5,249.6z"/>
			<path class="st3" d="M466.2,405.5C447,275.3,551.5,227.5,616.8,277C568.8,250.3,467.4,287.9,466.2,405.5z"/>
			<path class="st0" d="M991.2,963.2c0-40.1,17.6-48.1,29.8-48.1s29.8,8,29.8,48.1s-13.4,97-29.8,97S991.2,1003.2,991.2,963.2z"/>
			<path class="st1" d="M1021.2,906.8c-10,0-19.4,4.4-25.9,12c-7.7,9-12.3,23.2-12.3,44.7c0.2,22.2,3.2,44.4,9,65.8
				c2.3,9.1,5.8,17.8,10.4,26c4.2,7.2,9.9,13.6,18.6,13.6c8.7,0,14.6-6.6,18.8-13.6c4.6-8.2,8-17,10.3-26c5.8-21.5,8.9-43.6,9-65.8
				c0-21.3-4.6-35.4-12.3-44.7C1040.6,911.1,1031.1,906.8,1021.2,906.8z M1021.2,923.4c5.1-0.2,10,2.1,13.2,6.1
				c4.2,4.9,8.3,14.9,8.3,33.7c-0.2,20.7-3,41.3-8.4,61.3c-2,7.6-4.9,15-8.6,22c-1.1,2.1-2.7,3.9-4.5,5.3c-1.8-1.5-3.3-3.3-4.5-5.3
				c-3.8-6.9-6.7-14.3-8.6-22c-5.4-20-8.2-40.6-8.4-61.3c0-18.8,4.2-28.8,8.4-33.7C1011.3,925.5,1016.1,923.3,1021.2,923.4z"/>
			<path class="st0" d="M840.2,963.2c0-40.1,17.6-48.1,29.8-48.1s29.8,8,29.8,48.1s-13.4,97-29.8,97
				C853.6,1060.2,840.2,1003.2,840.2,963.2L840.2,963.2z"/>
			<path class="st1" d="M870.1,906.8c-10-0.1-19.5,4.3-25.9,12c-7.7,9-12.5,23.2-12.5,44.7c0.2,22.2,3.2,44.4,9,65.8
				c2.3,9.1,5.8,17.8,10.3,26c4.2,7.2,9.9,13.6,18.6,13.6s14.4-6.6,18.6-13.6c4.6-8.2,8.1-16.9,10.4-26c5.9-21.5,9-43.6,9.2-65.8
				c0-21.3-4.7-35.4-12.3-44.7C889.3,911.2,879.9,906.8,870.1,906.8z M870.1,923.4c5.1-0.2,10,2.1,13.1,6.1
				c4.2,4.9,8.4,14.9,8.4,33.7c-0.2,20.7-3,41.3-8.4,61.3c-2,7.6-4.9,15-8.6,22c-1.1,2.1-2.6,3.9-4.5,5.3c-1.8-1.5-3.4-3.3-4.5-5.3
				c-3.7-7-6.6-14.3-8.6-22c-5.4-20-8.2-40.6-8.4-61.3c0-18.8,4.1-28.8,8.4-33.7c3.2-4,8-6.3,13.1-6.2V923.4z"/>
			<path class="st0" d="M1141.3,764.2c-11.6-38.4,2.9-51.2,14.7-54.7c11.7-3.5,30.9-1,42.5,37.2c11.6,38.2,15.3,96.7-0.5,101.5
				S1152.9,802.5,1141.3,764.2z"/>
			<path class="st1" d="M1153.4,706c-9.5,2.9-17.3,9.8-21.3,18.9c-4.7,10.8-5.1,25.8,1.1,46.1c6.6,21.2,16,41.5,27.8,60.4
				c4.8,8,10.7,15.4,17.5,21.9c6,5.5,13.4,10.2,21.9,7.4c8.5-2.7,12-10.5,14.1-18.4c2-9.2,2.8-18.5,2.3-27.9
				c-0.6-22.2-4.1-44.3-10.4-65.6c-6.2-20.4-14.9-32.6-24.7-39c-8.4-5.4-18.7-6.8-28.2-3.9V706z M1158.2,721.9
				c4.8-1.7,10.2-0.9,14.4,2c5.4,3.7,12.3,11.8,17.8,29.8c5.8,19.9,9,40.4,9.6,61.1c0.4,7.9-0.3,15.8-1.9,23.5
				c-0.5,2.3-1.4,4.5-2.7,6.4c-2.2-0.8-4.2-2.1-5.8-3.7c-5.6-5.6-10.5-11.8-14.6-18.6c-10.9-17.6-19.6-36.5-25.8-56.2
				c-5.5-18-4.4-28.7-1.7-34.7c1.9-4.7,5.9-8.3,10.8-9.6L1158.2,721.9z"/>
			<path class="st0" d="M700.9,745.2c15.3-37.2,34.7-37.7,46-33c11.3,4.7,24.5,18.8,9.2,55.8c-15.3,37-49.5,84.6-64.7,78.1
				c-15.1-6.4-5.8-64,9.6-101.1L700.9,745.2z"/>
			<path class="st1" d="M750,704.5c-9.2-3.8-19.6-3.4-28.4,1.2c-10.6,5.4-20.3,16.7-28.4,36.4c-8.3,20.6-14,42.2-16.8,64.3
				c-1.3,9.3-1.5,18.7-0.4,28c1.2,8.1,3.7,16.3,12.1,19.7c8.4,3.4,16-0.5,22.5-5.4c7.4-5.8,13.9-12.5,19.5-20.1
				c13.6-17.6,24.8-37,33.5-57.5c8.1-19.6,9.2-34.5,5.6-45.8c-3.1-9.5-10.1-17.2-19.3-21L750,704.5z M743.7,719.9
				c4.8,1.8,8.4,5.8,9.8,10.8c2,6.2,2,17-5.1,34.3c-8.1,19.1-18.6,37-31.3,53.4c-4.7,6.3-10.2,12-16.4,17c-1.8,1.5-3.9,2.5-6.1,3.2
				c-1.1-2-1.9-4.3-2.1-6.6c-0.8-7.9-0.7-15.8,0.4-23.6c2.7-20.6,8-40.8,15.8-60.1c7.2-17.4,14.9-24.9,20.6-27.9
				c4.4-2.5,9.8-2.7,14.4-0.6L743.7,719.9z"/>
			<path class="st1" d="M945.6,531c-129.2,0-233.9,104.7-233.9,233.9s104.7,233.9,233.9,233.9s233.9-104.7,233.9-233.9
				c0,0,0,0,0-0.1l0,0C1179.3,635.8,1074.7,531.1,945.6,531z M945.6,557.7c114.4,0,207.3,92.7,207.3,207.1
				c0,114.4-92.7,207.3-207.1,207.3c-114.4,0-207.3-92.7-207.3-207.1c0,0,0,0,0-0.1l0,0c-0.1-114.3,92.4-207,206.7-207.2
				c0,0,0,0,0.1,0L945.6,557.7z"/>
			<path class="st4" d="M725,764.9c0-121.8,98.7-220.6,220.5-220.6c121.8,0,220.6,98.7,220.6,220.5s-98.7,220.6-220.5,220.6
				c-58.5,0-114.5-23.2-155.9-64.5C748.3,879.5,725.1,823.4,725,764.9z"/>
			<path class="st4" d="M753.1,753.4c0-112.7,91.3-204,204-204s204,91.3,204,204s-91.3,204-204,204c-54.1,0-106-21.5-144.2-59.7
				C774.6,859.4,753.1,807.5,753.1,753.4z"/>
			<path class="st0" d="M725,764.9c1.6,121.8,101.6,219.2,223.4,217.7c119.6-1.6,216.1-98.1,217.7-217.7l0,0H725z"/>
			<path class="st0" d="M753.7,764.9c6.1,112.4,102.1,198.6,214.5,192.5c103.9-5.6,186.9-88.6,192.5-192.5H753.7z"/>
			<path class="st1" d="M945.6,541c-123.7,0-223.9,100.2-223.9,223.9s100.2,223.9,223.9,223.9c123.7,0,223.9-100.2,223.9-223.9l0,0
				C1169.4,641.3,1069.2,541,945.6,541z M945.6,547.7c120,0,217.2,97.3,217.2,217.2s-97.3,217.2-217.2,217.2
				s-217.2-97.3-217.2-217.2c0,0,0,0,0,0l0,0c0-119.9,97.1-217.2,217-217.2c0,0,0,0,0.1,0L945.6,547.7z"/>
			<path class="st1" d="M1016.5,685c18.9-0.1,34.3,15.2,34.4,34.1c0,0,0,0,0,0v17.4c-0.6,19-16.5,33.9-35.5,33.2
				c-18.1-0.6-32.6-15.1-33.2-33.2v-17.2C982.2,700.4,997.5,685,1016.5,685L1016.5,685L1016.5,685z"/>
			<path class="st4" d="M996.4,709.6c0-6.2,5-11.2,11.2-11.2s11.2,5,11.2,11.2s-5,11.2-11.2,11.2S996.4,715.8,996.4,709.6z"/>
			<path class="st1" d="M874.9,685c18.9,0,34.3,15.3,34.3,34.3c0,0,0,0,0,0v17.3c0,19-15.4,34.4-34.4,34.4s-34.4-15.4-34.4-34.4
				v-17.2c0-18.9,15.3-34.3,34.2-34.3h0H874.9z"/>
			<path class="st4" d="M854.7,709.6c0-6.2,5-11.2,11.2-11.2s11.2,5,11.2,11.2s-5,11.2-11.2,11.2l0,0
				C859.7,720.8,854.7,715.8,854.7,709.6z"/>
			<path class="st5" d="M909,781c-4.1,0-7.4,3.3-7.4,7.4l0,0v8.6c0.7,24.4,21.1,43.6,45.5,42.9c23.4-0.7,42.2-19.5,42.9-42.9l0,0
				v-8.6c0-4.1-3.3-7.4-7.4-7.4H909z"/>
			<path class="st6" d="M945.6,811.2c-12.8,0-24.9,5.5-33.3,15.1c15.9,18.4,43.8,20.5,62.2,4.6c0,0,0,0,0.1-0.1
				c1.6-1.4,3.1-2.9,4.5-4.5C970.6,816.6,958.4,811.1,945.6,811.2L945.6,811.2z"/>
			<path class="st4" d="M909,781c-4.1,0-7.4,3.3-7.4,7.4l0,0v7.7c27.9,13.4,60.4,13.4,88.4,0v-7.7c0-4.1-3.3-7.4-7.4-7.4L909,781
				L909,781z"/>
			<path class="st7" d="M977.9,781v11.9c0,4.4-0.6,7.2-3.7,9.3c5.3-1.5,10.5-3.5,15.4-5.8v-7.7c0-4.1-3.3-7.4-7.4-7.4h-4.3V781z"/>
			<path class="st7" d="M909,781c-4.1,0-7.4,3.3-7.4,7.4l0,0v7.7c9.6,4.5,19.8,7.6,30.4,9c-5.1-1.3-6.7-6.5-6.7-12.5v-11.8L909,781z
				"/>
			<path class="st8" d="M913.3,781v11.9c0,4.4,0.6,7.2,3.7,9.3c-5.3-1.5-10.5-3.5-15.4-5.8v-7.7c0-4.1,3.3-7.4,7.4-7.4h4.3V781z"/>
			<path class="st1" d="M909,777.7c-5.9,0.2-10.7,5-10.8,10.9v8.6c-0.7,26.3,20,48.1,46.2,48.9c26.3,0.7,48.1-20,48.9-46.2
				c0-0.9,0-1.8,0-2.7v-8.6c-0.1-5.9-4.9-10.7-10.8-10.9H909z M982.2,784.4c2.3-0.1,4.2,1.7,4.3,4c0,0,0,0.1,0,0.1v8.8
				c0,22.6-18.3,40.9-40.9,40.9s-40.9-18.3-40.9-40.9v-8.6c-0.1-2.3,1.7-4.2,4-4.2c0,0,0,0,0,0H982.2z"/>
			<path class="st1" d="M989.8,794.5c-28,13.7-60.8,13.7-88.8,0l-1.5,3c29,14.1,62.8,14.1,91.8,0L989.8,794.5z"/>
			<path class="st9" d="M950.3,823.1c0.1-1.5,0.9-2.9,2.2-3.7c1.5-1,3.4-1.6,5.2-1.6c4.1,0,7.2,2.3,7.2,5.2s-3.3,5.2-7.2,5.2
				c-1.9,0-3.7-0.5-5.2-1.5c-1.3-0.8-2.1-2.2-2.2-3.7V823.1z"/>
			<path class="st1" d="M1153.2,868.8l-3.3-0.4l5.9-44.4l3.3,0.4L1153.2,868.8z"/>
			<path class="st1" d="M948.7,456.3c-21.2,1.2-42.2,1.3-65.7,3.1c-31.1,2.3-53.4,11.8-67.8,26.3c-13.2,13.7-20.3,32-19.9,50.9
				c0,31.7,19.5,56.1,46.4,69.2s61.4,16.7,96.5,11.2c3.7-0.5,7.2-1.2,10.6-1.9V592c-4.8,1.1-9.5,2-14,2.7
				c-31.3,4.8-61.7,1.1-83.1-9.3c-21.4-10.5-33.7-26-33.7-48.9c-0.5-13,4.3-25.6,13.4-35c9.7-9.7,26-17.7,53.4-19.7
				c21.9-1.6,42.6-1.9,64.1-3.3L948.7,456.3z"/>
			<path class="st1" d="M1009.2,447.6c-22.2,5.2-44.9,8.2-67.6,8.9v22.3c17.7-0.8,35.3-2.7,52.8-5.7l-6.6,18.1h16.1
				c21.7-0.2,43.3-3.5,64.1-9.8c-16.4,65.4-70.9,101.5-126.5,112.1v23c69.1-11.8,141-60.5,152.8-149.8l2.3-18.2l-17.3,6.1
				c-19.2,6-38.8,10.3-58.8,12.8l1.8-4.9l7.4-19.9L1009.2,447.6z"/>
			<path class="st10" d="M1011.9,458.5c-47.4,11.5-84.1,8.7-128.1,12c-58.5,4.3-77.2,35.1-77.2,65.9c0,109.6,254.1,99.5,276.6-71.2
				c0,0-42.8,14.9-79.2,14.9l8-21.5L1011.9,458.5z"/>
			<path class="st11" d="M1011.9,458.5c-47.4,11.5-84.1,8.7-128.1,12c-33.5,2.5-53.9,13.5-65.1,28.2
				c30.8,53.5,205.2,43.8,264.6-33.5c0,0-42.8,14.9-79.2,14.9l8-21.5L1011.9,458.5z"/>
			<path class="st12" d="M1083.2,465.2c-29.8,111.1-234.4,154.5-274.9,56.2c-1.1,4.9-1.7,9.9-1.7,14.9
				C806.6,646,1060.7,635.9,1083.2,465.2z"/>
			<path class="st1" d="M948.7,464.7c-21.3,1.2-42.2,1.3-65.2,3c-29.8,2.2-49.8,11.2-62.4,23.9c-11.6,12-17.9,28.2-17.5,44.9
				c0,28.5,16.8,49.5,41.7,61.6c24.9,12.1,57.8,15.8,91.5,10.8c3.9-0.6,7.9-1.3,11.9-2.2v-6c-4.2,0.9-8.5,1.7-12.7,2.4
				c-32.7,5-64.7,1.3-88.1-10.1c-23.5-11.5-38.5-30.3-38.5-56.5c-0.5-15.2,5.3-30,15.9-40.9c11.4-11.5,30-20.1,58.8-22.3
				c22.5-1.6,43.3-1.8,64.7-3.2L948.7,464.7L948.7,464.7z"/>
			<path class="st1" d="M1011.2,455.8c-22.8,5.4-46.2,8.4-69.6,9.2v5.7c22.2-0.9,44.2-3.7,65.9-8.4l-7.6,20.6h4
				c34.1,0,69.2-11.5,75.7-13.7c-12.4,78.7-75.5,121.5-138,132.9v5.7c65.8-11.7,133.2-57.7,144.4-142.3l0.6-4.6l-4.4,1.6
				c0,0-39.5,13.4-74.1,14.4l6.4-17.4l1.9-4.9L1011.2,455.8z"/>
			<path class="st0" d="M462.2,956.6c0-38.8,17.1-46.6,28.9-46.6c11.8,0,28.9,7.7,28.9,46.6c0,38.8-12.9,94.1-28.9,94.1
				S462.2,995.7,462.2,956.6z"/>
			<path class="st1" d="M491,902.1c-9.7,0-18.8,4.3-25,11.6c-7.4,8.7-12,22.3-12,43.1c0.2,21.6,3.1,43,8.8,63.8
				c2.2,8.8,5.6,17.3,10,25.2c4.1,6.8,9.6,13.2,18.2,13.2s14.1-6.4,18.2-13.2c4.4-7.9,7.8-16.4,10.1-25.2c5.6-20.9,8.6-42.4,8.7-64
				c0-20.6-4.5-34.3-11.9-43.1c-6.2-7.4-15.4-11.7-25.1-11.6V902.1z M491,918.3c4.9-0.2,9.7,2,12.8,5.8c4.1,4.8,8.1,14.5,8.1,32.7
				c-0.2,20.1-3,40.1-8.2,59.5c-1.9,7.4-4.7,14.5-8.4,21.2c-1.1,2-2.5,3.8-4.3,5.2c-1.8-1.4-3.2-3.2-4.3-5.2
				c-3.7-6.7-6.5-13.9-8.4-21.3c-5.2-19.4-8-39.4-8.1-59.5c0-18.2,4-27.8,8.1-32.6c3.1-3.9,7.8-6.1,12.7-5.9V918.3z"/>
			<path class="st0" d="M315.8,956.6c0-38.8,17.1-46.6,28.9-46.6s29.1,7.9,29.1,46.6c0,38.7-13,94.1-28.9,94.1
				S315.8,995.7,315.8,956.6z"/>
			<path class="st1" d="M344.7,902.1c-9.7,0-18.9,4.2-25.1,11.6c-7.4,8.7-11.9,22.3-11.9,43.1c0.2,21.6,3.1,43,8.7,63.8
				c2.3,8.8,5.6,17.4,10.1,25.3c4.1,6.8,9.5,13.2,18.2,13.2s14.1-6.4,18.2-13.2c4.4-7.9,7.8-16.4,10-25.2
				c5.7-20.9,8.6-42.5,8.8-64.1c0-20.6-4.5-34.3-12-43.1c-6.2-7.4-15.4-11.7-25-11.6L344.7,902.1z M344.7,918.3
				c4.9-0.2,9.6,2,12.7,5.8c4.1,4.8,8.1,14.5,8.1,32.7c-0.2,20.1-2.9,40.1-8.1,59.5c-1.9,7.4-4.7,14.5-8.4,21.2
				c-1.1,2-2.5,3.8-4.3,5.2c-1.8-1.4-3.2-3.2-4.3-5.2c-3.7-6.7-6.5-13.8-8.4-21.2c-5.3-19.4-8-39.4-8.2-59.5
				c0-18.2,4.1-27.8,8.1-32.6C335,920.3,339.8,918.1,344.7,918.3z"/>
			<path class="st0" d="M607.6,763.9c-11.2-37.2,2.9-49.5,14.1-53c11.2-3.5,30-0.9,41.2,36.2s14.9,93.8-0.4,98.4
				C647.2,850.2,618.8,801.1,607.6,763.9L607.6,763.9z"/>
			<path class="st1" d="M619.4,707.3c-9.2,2.8-16.8,9.5-20.7,18.4c-4.6,10.6-4.9,25,1,44.7c6.4,20.6,15.4,40.2,26.9,58.5
				c4.7,7.8,10.4,14.9,16.9,21.2c5.9,5.3,12.9,9.8,21.2,7.4c8.3-2.4,11.7-10.2,13.6-17.9c2-8.9,2.8-17.9,2.3-27
				c-0.6-21.5-4-42.9-10.1-63.6c-6-19.7-14.1-31.5-23.9-37.8c-8.1-5.2-18.1-6.6-27.3-3.7L619.4,707.3z M624,723
				c4.7-1.6,9.8-0.9,13.9,1.9c5.3,3.7,11.9,11.4,17.2,28.9c5.6,19.3,8.8,39.2,9.4,59.2c0.3,7.6-0.3,15.3-1.8,22.8
				c-0.4,2.2-1.3,4.3-2.6,6.2c-2.1-0.8-4-2-5.7-3.5c-5.4-5.4-10.2-11.4-14.1-17.9c-10.6-17-19-35.4-25-54.5
				c-5.3-17.4-4.2-27.8-1.7-33.5c1.8-4.6,5.8-8.1,10.6-9.3L624,723z"/>
			<path class="st0" d="M180.7,745.5c14.9-35.9,33.5-36.5,44.7-32c11.2,4.6,23.8,18.2,8.9,54.1c-14.9,35.9-48,81.9-62.7,75.8
				S165.9,781.4,180.7,745.5z"/>
			<path class="st1" d="M228.4,706.1c-8.9-3.7-19-3.3-27.6,1.1c-10.2,5.2-19.6,16.2-27.5,35.3c-8.1,20-13.5,40.9-16.3,62.3
				c-1.3,9-1.4,18.1-0.4,27.2c1.2,7.9,3.7,15.8,11.8,19.1s15.5-0.4,21.8-5.2c7.1-5.6,13.5-12.2,18.9-19.4
				c13.2-17,24.1-35.7,32.5-55.6c7.9-19.1,9-33.5,5.4-44.4c-2.9-9.2-9.7-16.6-18.6-20.3L228.4,706.1z M222.2,720.9
				c4.6,1.7,8.2,5.5,9.5,10.3c1.9,6,2,16.4-5,33.3c-7.9,18.5-18.1,35.9-30.3,51.8c-4.6,6.1-9.9,11.6-15.9,16.4
				c-1.8,1.4-3.8,2.5-6,3.1c-1.1-2-1.8-4.1-2-6.4c-0.8-7.6-0.7-15.2,0.3-22.8c2.6-19.9,7.7-39.4,15.2-58c7.1-16.9,14.4-24.2,20-27.1
				C212.4,719.1,217.7,718.9,222.2,720.9L222.2,720.9z"/>
			<path class="st1" d="M417.9,537.9c-125.2,0-226.7,101.5-226.7,226.6c0,125.2,101.5,226.7,226.6,226.7s226.7-101.5,226.7-226.6
				c0,0,0,0,0,0l0,0C644.4,639.5,543,538.1,417.9,537.9z M417.9,564c111,0,200.9,90,200.9,200.9s-90,200.9-200.9,200.9
				s-200.9-90-200.9-200.9l0,0c-0.2-110.8,89.4-200.7,200.2-200.9c0.1,0,0.1,0,0.2,0H417.9z"/>
			<path class="st0" d="M628.4,759.4c0,8.9-1,112.1-61.4,141.2c-42.8,20.7-66.8-19.6-153.3-18.6c-81.5,1.2-102.8,37.4-143.1,18.6
				c-60.5-28.2-61.4-132.5-61.4-141.2c0-12.1,1.4-108.9,61.4-141.4c35.3-19.1,53.8,4.4,141.2,5.4c95.7,1,116.5-26.7,155.4-5.4
				C626.8,651.5,628.3,747.3,628.4,759.4z"/>
			<path class="st4" d="M420.1,554.8c-91.5,0.1-173.1,57.9-203.4,144.3h406.8C593.3,612.7,511.7,554.8,420.1,554.8z"/>
			<path class="st4" d="M408.9,559.8c-87,0-164,56.4-190.3,139.3H599C572.7,616.2,495.8,559.9,408.9,559.8z"/>
			<path class="st4" d="M215.1,838.8c22.2,43.2,56.3,79,98.4,103.2c32.4,19.2,69.2,29.8,106.9,30.6c20.3,0.3,40.5-2.5,60-8.3
				c38.5-12,72.7-35,98.4-66c15.2-17.8,27.6-37.9,36.6-59.5L215.1,838.8z"/>
			<path class="st4" d="M225.7,839.2c47.6,104.1,170.5,150,274.7,102.4c45.4-20.7,81.7-57.1,102.4-102.4H225.7z"/>
			<path class="st1" d="M417.9,547.6c-119.8,0-217,97.1-217,217s97.1,217,217,217s217-97.1,217-217c0,0,0,0,0,0l0,0
				C634.8,644.8,537.7,547.7,417.9,547.6z M417.9,554.1c116.3,0,210.5,94.2,210.6,210.5c0,116.3-94.2,210.5-210.5,210.6
				s-210.5-94.2-210.6-210.5l0,0C207.4,648.4,301.6,554.2,417.9,554.1C417.8,554.2,417.8,554.2,417.9,554.1L417.9,554.1z"/>
			<path class="st1" d="M486.6,687.2c18.4,0,33.3,14.8,33.3,33.2c0,0,0,0,0,0v16.8c0,18.4-14.9,33.3-33.3,33.3
				c-18.4,0-33.3-14.9-33.3-33.3c0,0,0,0,0-0.1v-16.7c-0.1-18.3,14.7-33.2,33.1-33.3c0,0,0,0,0,0L486.6,687.2z"/>
			<path class="st4" d="M467.2,711c0.1-5.9,4.9-10.5,10.8-10.4c5.9,0.1,10.5,4.9,10.4,10.8c0,2.6-1.1,5.1-2.9,7.1
				c-4.2,4.2-11,4.2-15.2,0c0,0,0,0,0,0C468.3,716.5,467.2,713.9,467.2,711z"/>
			<path class="st1" d="M349.3,687.2c18.3-0.2,33.3,14.6,33.5,32.9c0,0.1,0,0.1,0,0.2v16.9c0,18.4-14.9,33.3-33.3,33.3
				c-18.4,0-33.3-14.9-33.3-33.3l0,0v-16.7c0-18.4,14.8-33.3,33.2-33.3c0,0,0,0,0,0L349.3,687.2z"/>
			<path class="st4" d="M329.8,711c-0.1-6,4.6-11,10.6-11.1c6-0.1,11,4.6,11.1,10.6c0.1,6-4.6,11-10.6,11.1c-3,0.1-5.8-1.1-7.9-3.2
				C331,716.5,329.8,713.9,329.8,711z"/>
			<path class="st5" d="M382.4,780.3c-4.1,0-7.4,3.3-7.4,7.4l0,0v8.3c1,23.6,20.9,42,44.6,41c22.3-0.9,40.1-18.8,41-41v-8.3
				c0-4.1-3.3-7.4-7.4-7.4H382.4z"/>
			<path class="st6" d="M417.9,809.5c-12.4,0-24.2,5.3-32.3,14.7c15.6,17.8,42.7,19.7,60.5,4.1c0,0,0,0,0,0c1.4-1.3,2.8-2.6,4.1-4.1
				C442,814.8,430.3,809.5,417.9,809.5z"/>
			<path class="st4" d="M382.4,780.3c-4.1,0-7.4,3.3-7.4,7.4l0,0v7.4c27,13,58.5,13,85.6,0v-7.4c0-4.1-3.3-7.4-7.4-7.4H382.4z"/>
			<path class="st7" d="M449.2,780.3v11.4c0,4.3-0.5,7.1-3.7,9c5.1-1.5,10.1-3.3,14.9-5.6v-7.4c0-4.1-3.3-7.4-7.4-7.4h-4.1
				L449.2,780.3z"/>
			<path class="st7" d="M382.4,780.3c-4.1,0-7.4,3.3-7.4,7.4l0,0v7.4c9.3,4.4,19.2,7.3,29.4,8.7c-5-1.3-6.5-6.4-6.5-12.2v-11.5
				H382.4z"/>
			<path class="st8" d="M386.5,780.3v11.4c0,4.3,0.5,7.1,3.5,9c-5.1-1.5-10.1-3.3-14.9-5.6v-7.4c0-4.1,3.3-7.4,7.4-7.4h4.1
				L386.5,780.3z"/>
			<path class="st1" d="M382.4,777c-5.8,0-10.6,4.7-10.6,10.6v8.3c0,25.4,20.6,46.1,46.1,46.1c25.4,0,46.1-20.6,46.1-46.1v-8.3
				c0-5.8-4.8-10.6-10.6-10.6H382.4z M453.1,783.5c2.3,0,4.1,1.8,4.2,4c0,0,0,0,0,0v8.5c0.7,21.9-16.5,40.1-38.4,40.8
				c-21.9,0.7-40.1-16.5-40.8-38.4c0-0.8,0-1.6,0-2.4v-8.3c0-2.3,1.8-4.1,4-4.2c0,0,0,0,0,0H453.1z"/>
			<path class="st1" d="M460.9,793.3c-27.2,13.2-58.9,13.2-86.1,0l-1.4,2.9c28.1,13.7,60.9,13.7,88.9,0L460.9,793.3z"/>
			<path class="st9" d="M422.6,821c0-1.5,0.8-2.9,2.1-3.7c1.5-1,3.2-1.5,5-1.5c3.9,0,7.1,2.3,7.1,5s-3.2,5-7.1,5
				c-1.8,0-3.5-0.5-5-1.5c-1.2-0.8-2-2.1-2.1-3.5V821z"/>
			<path class="st1" d="M376.4,465.5V487c20.8,1.3,40.9,1.6,62.1,3.2c26.5,1.9,42.3,9.7,51.7,19.1c8.8,9,13.4,21.3,12.9,33.9
				c0,22.3-11.9,37.2-32.7,47.4c-20.8,10.2-50.3,13.7-80.6,9.1c-4.5-0.7-9.1-1.6-13.6-2.6v22.3c3.5,0.7,6.8,1.3,10.2,1.9
				c34,5.2,67.4,1.7,93.5-11.2c26.1-12.9,45-36.3,45-67c0.4-18.4-6.6-36.2-19.3-49.4c-13.9-14.1-35.3-23.3-65.7-25.5
				c-22.8-1.7-43.1-1.7-63.6-3L376.4,465.5z"/>
			<path class="st1" d="M297.8,452.2l7,19.3l2,4.8c-19.3-2.4-38.4-6.6-57-12.4L233,458l2.3,17.6c11.4,86.5,81.2,134,148.1,145.1
				v-22.3c-53.7-10.2-106.5-45.2-122.3-108.4c20.1,6.2,41.1,9.4,62.1,9.6h15.7l-6.6-17.7c16.9,2.9,34,4.7,51.2,5.5v-21.7
				c-22-0.8-43.9-3.7-65.4-8.7L297.8,452.2z"/>
			<path class="st10" d="M315.2,467.7l7.7,20.8c-35.3,0-76.8-14.3-76.8-14.3c22,165.2,268.1,175.3,268.1,69
				c0-29.8-18.2-59.5-74.9-63.9C396.7,476.2,361.2,478.9,315.2,467.7z"/>
			<path class="st11" d="M315.2,467.7l7.7,20.8c-35.3,0-76.8-14.3-76.8-14.3c57.5,74.8,226.4,84.2,256.3,32.4
				c-11.2-14.1-30.8-25-63.3-27.3C396.7,476.2,361.2,478.9,315.2,467.7z"/>
			<path class="st12" d="M246.1,474.2c22,165.2,268.1,175.3,268.1,69c0-4.9-0.5-9.7-1.6-14.5C473.2,623.8,275.1,581.9,246.1,474.2z"
				/>
			<path class="st1" d="M376.4,473.6v5.4c20.8,1.3,40.9,1.5,62.7,3.1c27.9,2,45.9,10.3,56.9,21.5c10.3,10.6,15.8,24.9,15.4,39.7
				c0,25.5-14.5,43.7-37.2,54.8s-53.7,14.7-85.6,9.8c-4.1-0.6-8.2-1.4-12.3-2.3v5.6c3.8,0.8,7.7,1.5,11.5,2.1
				c32.6,5,64.5,1.5,88.6-10.3c24.1-11.8,40.4-32.1,40.4-59.8c0.4-16.2-5.7-31.9-16.9-43.5c-12.2-12.3-31.8-21-60.5-23.1
				C417.3,474.9,397.2,474.9,376.4,473.6z"/>
			<path class="st1" d="M310.9,463.9l1.8,4.8l6.3,16.8c-33.7-0.9-71.9-13.9-71.9-13.9l-4.2-1.5l0.5,4.4
				c10.8,81.9,76.1,126.5,139.9,137.9v-5.6C322.8,596,261.7,554.2,249.6,478c6.3,2.1,40.4,13.4,73.4,13.2h3.7l-7.4-20
				c21,4.6,42.4,7.3,63.9,8.2V474c-22.7-0.8-45.3-3.8-67.5-9L310.9,463.9z"/>
		</g>
	</g>
</g>
</svg>
