<svg id="Слой_1" data-name="Слой 1" xmlns="http://www.w3.org/2000/svg" viewBox="0 0 2154.7 1407.8"><defs><style>.cls-1{isolation:isolate;}.cls-2{fill:#564495;}</style></defs><g class="cls-1"><path class="cls-2" d="M432.06,450.83v161H397.22v-78.1l-74.5,74.5v-74.5l-78.1,78.1H195.36l162.2-161v74.49Z"/><path class="cls-2" d="M477.72,513.31h22.83A44.38,44.38,0,0,0,533,500.09q14.41-12.61,14.42-32.44V450.83h34.84v16.82c0,22.83-8.41,40.85-24,57.67-2.4,2.4-4.8,4.81-7.21,6,2.41,2.4,4.81,3.6,7.21,6,15.62,15.62,24,34.84,24,57.67v18H547.41V596.21a44.38,44.38,0,0,0-13.22-32.44,46.43,46.43,0,0,0-32.44-13.22H478.92V613H444.07V450.83h34.85l-1.2,62.48Z"/><path class="cls-2" d="M595.47,549.35c-1.2-6-1.2-10.81-1.2-16.82,0-22.83,8.41-40.85,24-57.67,15.62-15.62,34.85-24,57.68-24s40.85,8.41,57.67,24a73,73,0,0,1,18,28.83H712l-3.6-3.6a46.42,46.42,0,0,0-64.89,0c-4.8,4.81-8.41,9.61-10.81,15.62H754.08c1.2,6,1.2,10.81,1.2,16.82,0,22.83-8.41,40.85-24,57.68s-34.85,24-57.68,24-40.85-8.41-57.67-24a73.24,73.24,0,0,1-18-28.84h39.65l3.61,3.6A46.41,46.41,0,0,0,706,565c4.81-4.8,8.41-9.61,10.82-15.62Z"/></g><polygon class="cls-2" points="429.66 622.65 397.21 622.65 397.21 775.24 429.66 775.24 432.06 775.24 432.06 622.65 429.66 622.65"/><polygon class="cls-2" points="552.22 622.65 547.41 622.65 547.41 625.05 547.41 625.05 547.41 680.32 477.72 680.32 477.72 622.65 474.12 622.65 444.08 622.65 444.08 700.75 444.08 711.56 547.41 711.56 547.41 775.24 582.25 775.24 582.25 770.44 582.25 700.75 582.25 625.05 582.25 622.65 552.22 622.65"/><path class="cls-2" d="M2019.9,679a66.57,66.57,0,0,0-66.52-66.52h-11.47c-4.59,11.47-16.06,16-29.82,16-6.88,0-18.35-2.29-22.94-11.46-4.59-4.59-6.88-13.77-6.88-20.65V527.56a515.62,515.62,0,0,0-493.18-362.43c-231.68,0-426.66,149.11-493.18,362.43v78c0,2.29,0,4.58-2.3,4.58-2.29,4.59-2.29,6.89-4.58,11.47-2.3,2.3-4.59,4.59-11.47,6.88-2.3,0-2.3,2.3-4.59,2.3h-6.88c-13.76,0-22.94-6.88-29.82-16.06H824.8a66.53,66.53,0,1,0,0,133h39c6.88,0,16.06,4.58,16.06,13.76,39,252.32,252.32,433.54,509.23,433.54,130.75,0,250-48.17,341.79-128.46C1818,988.63,1880,883.11,1898.32,757c0-6.88,6.89-13.76,16.06-13.76h39C1992.37,745.48,2019.9,713.37,2019.9,679Zm-630.81,415.19c-229.39,0-415.19-185.8-415.19-415.19s185.8-415.19,415.19-415.19S1804.28,449.57,1804.28,679,1618.48,1094.15,1389.09,1094.15Z"/><path class="cls-2" d="M1728.58,1110.21a554.23,554.23,0,0,1-676.69,0l-43.58,149.1c-13.77,50.46,22.93,100.93,75.69,100.93h612.46c22.94,0,48.17-11.47,64.23-32.12,16.06-18.35,18.36-45.87,13.77-68.81Z"/><path class="cls-2" d="M806.45,1078.09c0-27.53-20.65-50.46-50.47-50.46-27.52,0-50.46,20.64-50.46,50.46,0,27.53,20.65,50.47,50.46,50.47C785.8,1126.26,806.45,1105.62,806.45,1078.09Z"/><path class="cls-2" d="M2072.66,894.58a66.53,66.53,0,1,0,66.52,66.52A66.57,66.57,0,0,0,2072.66,894.58Z"/><path class="cls-2" d="M1898.33,305.06V607.85c2.29,2.29,4.58,4.59,6.88,4.59h2.29c11.47,2.29,18.35-2.3,18.35-9.18V307.35c0-4.59-6.88-9.17-16-9.17C1907.5,295.89,1898.33,300.47,1898.33,305.06Z"/><path class="cls-2" d="M845.44,305.06V601c0,6.88,11.47,11.47,18.35,9.18h2.3a1488.12,1488.12,0,0,1,4.58-4.59,2.25,2.25,0,0,0,2.3-2.29V300.48c0-4.59-6.89-9.18-16.06-9.18C854.62,295.89,845.44,300.47,845.44,305.06Z"/><path class="cls-2" d="M1886.86,295.89c13.76-16.06,36.7-16.06,50.46,0,22.94-11.47,43.58-34.41,43.58-61.94a66.52,66.52,0,1,0-133,0C1843.27,263.77,1861.62,289,1886.86,295.89Z"/><path class="cls-2" d="M834,295.89c13.77-16.06,36.7-16.06,50.47,0C907.38,284.42,928,261.48,928,234a66.52,66.52,0,0,0-133,0C790.39,263.77,811,289,834,295.89Z"/><path class="cls-2" d="M1705.64,13.74c18.35,0,34.41,16.06,34.41,34.41S1724,82.56,1705.64,82.56s-34.41-16.06-34.41-34.41S1687.29,13.74,1705.64,13.74Z"/><path class="cls-2" d="M1033.54,82.56c20.65,0,36.7,16,36.7,34.4s-16,34.41-34.41,34.41-34.4-16.06-34.4-34.41C999.13,98.61,1015.19,82.56,1033.54,82.56Z"/><path class="cls-2" d="M723.87,277.53c18.35,0,34.41,16.06,34.41,34.41s-16.06,34.41-34.41,34.41-34.41-16.06-34.41-34.41S705.52,277.53,723.87,277.53Z"/><path class="cls-2" d="M2088.72,378.46c18.35,0,34.4,16.06,34.4,34.41s-16,34.41-34.4,34.41-34.41-16.06-34.41-34.41C2052,392.23,2068.07,378.46,2088.72,378.46Z"/><path class="cls-2" d="M2019.9,1144.61c18.35,0,32.12,13.77,32.12,32.12s-13.77,32.11-32.12,32.11-32.11-13.76-32.11-32.11C1990.08,1158.38,2003.84,1144.61,2019.9,1144.61Z"/><path class="cls-2" d="M822.5,1243.25c18.36,0,34.41,16.06,34.41,34.41s-16,34.41-34.41,34.41-34.4-16.06-34.4-34.41S804.15,1243.25,822.5,1243.25Z"/><path class="cls-2" d="M689.46,844.12c18.35,0,34.41,16.06,34.41,34.41s-16.06,34.4-34.41,34.4-34.41-16-34.41-34.4S671.11,844.12,689.46,844.12Z"/><path class="cls-2" d="M1728.58,1110.21a554.23,554.23,0,0,1-676.69,0l-43.58,149.1c-13.77,50.46,22.93,100.93,75.69,100.93h612.46c22.94,0,48.17-11.47,64.23-32.12,16.06-18.35,18.36-45.87,13.77-68.81Z"/><circle class="cls-2" cx="2072.66" cy="961.1" r="66.52" transform="translate(-177.25 564.18) rotate(-14.87)"/><circle class="cls-2" cx="1705.64" cy="48.15" r="34.41" transform="translate(1008.44 1605.53) rotate(-67.5)"/><circle class="cls-2" cx="723.87" cy="311.94" r="34.41"/><path class="cls-2" d="M2088.72,447.28c18.35,0,34.4-16.06,34.4-34.41s-16-34.41-34.4-34.41c-20.65,0-36.7,13.77-34.41,34.41C2054.31,431.22,2070.36,447.28,2088.72,447.28Z"/><path class="cls-2" d="M2019.9,1144.61c-16.06,0-29.82,13.77-32.11,32.12,0,18.35,13.76,32.11,32.11,32.11s32.12-13.76,32.12-32.11S2038.25,1144.61,2019.9,1144.61Z"/><circle class="cls-2" cx="822.5" cy="1277.66" r="34.41" transform="translate(-226.77 178.6) rotate(-10.9)"/><circle class="cls-2" cx="689.46" cy="878.53" r="34.41"/></svg>